G04 WinPCB Gerber Out *
G70*
G90*
G04 CSI RS-274X *
G04 Date: 2019/03/05 *
G04 Time: 11:11:36 *
%FSDAX66Y66*%
%MOIN*%
%IPPOS*%
%ADD10C,0.005906*%
%ADD11C,0.007874*%
%ADD12C,0.011811*%
%ADD13R,0.061024X0.061024*%
%ADD14C,0.051181*%
%C:\Users\user_EDA1\Documents\PC-98_C-BUS_Board\6.プリント基板\01\1-1部品面配線層-L1.gbr*%
G01X000000000000Y000000000000D02*
G54D10*
X000000811850Y-000000210551D02*
X000000821653D01*
D02*
X000000825905D01*
D02*
X000000829330Y-000000203464D01*
D02*
X000000828503Y-000000196378D01*
D02*
X000000827204Y-000000187755D01*
D02*
X000000819527Y-000000172755D01*
D02*
X000000813031Y-000000166259D01*
D02*
X000000824133Y-000000125039D01*
D02*
X000000803818D01*
D02*
Y-000000244330D01*
D02*
X000000791535D01*
D02*
Y-000000113346D01*
D02*
X000000827795D01*
D02*
X000000829094Y-000000111574D01*
D02*
X000000840196Y-000000120787D01*
D02*
X000000837716Y-000000122559D01*
D02*
X000000824133Y-000000163779D01*
D02*
X000000833346Y-000000173937D01*
D02*
X000000842204Y-000000192126D01*
D02*
X000000841968Y-000000200039D01*
D02*
X000000841614Y-000000212086D01*
D02*
X000000833346Y-000000224015D01*
D02*
X000000825433D01*
D02*
X000000814330D01*
D02*
X000000811850Y-000000210551D01*
X000000773700Y-000000181614D02*
Y-000000237598D01*
D02*
X000000761417D01*
D02*
Y-000000230866D01*
D02*
X000000727637D01*
D02*
Y-000000240669D01*
D02*
X000000715354D01*
D02*
Y-000000181614D01*
D02*
X000000773700D01*
X000000727637Y-000000219173D02*
X000000761417D01*
D02*
Y-000000193307D01*
D02*
X000000727637D01*
D02*
Y-000000219173D01*
X000000751614Y-000000102952D02*
X000000754684Y-000000103543D01*
D02*
X000000754921Y-000000106023D01*
D02*
X000000752204Y-000000107795D01*
D02*
Y-000000121378D01*
D02*
X000000781141D01*
D02*
Y-000000133070D01*
D02*
X000000772519D01*
D02*
X000000763897Y-000000158818D01*
D02*
X000000787283D01*
D02*
Y-000000170511D01*
D02*
X000000702952D01*
D02*
Y-000000158818D01*
D02*
X000000726338D01*
D02*
X000000719015Y-000000133070D01*
D02*
X000000710984D01*
D02*
Y-000000121378D01*
D02*
X000000738031D01*
D02*
Y-000000102952D01*
D02*
X000000751614D01*
X000000733189Y-000000133070D02*
X000000739330Y-000000158818D01*
D02*
X000000751023D01*
D02*
X000000758346Y-000000133070D01*
D02*
X000000733189D01*
X000000898425Y-000000162598D02*
Y-000000166850D01*
D02*
X000000886141D01*
D02*
Y-000000109685D01*
D02*
X000000964921D01*
D02*
Y-000000165669D01*
D02*
X000000952637D01*
D02*
Y-000000162598D01*
D02*
X000000898425D01*
X000000952637Y-000000150905D02*
Y-000000121378D01*
D02*
X000000898425D01*
D02*
Y-000000150905D01*
D02*
X000000952637D01*
X000000947086Y-000000232047D02*
Y-000000243149D01*
D02*
X000000934803D01*
D02*
Y-000000177952D01*
D02*
X000000988897D01*
D02*
Y-000000241259D01*
D02*
X000000976614D01*
D02*
Y-000000232047D01*
D02*
X000000947086D01*
Y-000000220354D02*
X000000976614D01*
D02*
Y-000000189645D01*
D02*
X000000947086D01*
D02*
Y-000000220354D01*
X000000876929D02*
X000000906456D01*
D02*
Y-000000189645D01*
D02*
X000000876929D01*
D02*
Y-000000220354D01*
Y-000000232047D02*
Y-000000243149D01*
D02*
X000000864645D01*
D02*
Y-000000177952D01*
D02*
X000000918740D01*
D02*
Y-000000241259D01*
D02*
X000000906456D01*
D02*
Y-000000232047D01*
D02*
X000000876929D01*
X000001120236Y-000000239488D02*
Y-000000233346D01*
D02*
X000001026102D01*
D02*
Y-000000241850D01*
D02*
X000001013818D01*
D02*
Y-000000144763D01*
D02*
X000001064252D01*
D02*
X000001069212Y-000000124448D01*
D02*
X000001006378D01*
D02*
Y-000000112755D01*
D02*
X000001139842D01*
D02*
Y-000000124448D01*
D02*
X000001083267D01*
D02*
X000001076535Y-000000144763D01*
D02*
X000001132519D01*
D02*
Y-000000239488D01*
D02*
X000001120236D01*
X000001047598Y-000000156456D02*
X000001026102D01*
D02*
Y-000000221653D01*
D02*
X000001047598D01*
D02*
Y-000000156456D01*
X000001086338Y-000000206181D02*
X000001059881D01*
D02*
Y-000000221653D01*
D02*
X000001086338D01*
D02*
Y-000000206181D01*
Y-000000182204D02*
X000001059881D01*
D02*
Y-000000196378D01*
D02*
X000001086338D01*
D02*
Y-000000182204D01*
X000001059881Y-000000156456D02*
Y-000000172401D01*
D02*
X000001086338D01*
D02*
Y-000000156456D01*
D02*
X000001059881D01*
X000001098622D02*
Y-000000221653D01*
D02*
X000001120236D01*
D02*
Y-000000156456D01*
D02*
X000001098622D01*
X000001276023Y-000000137322D02*
X000001272362D01*
D02*
X000001266220Y-000000134960D01*
D02*
X000001263740Y-000000132480D01*
D02*
X000001261259Y-000000130000D01*
D02*
X000001258897Y-000000123858D01*
D02*
Y-000000120078D01*
D02*
Y-000000116417D01*
D02*
X000001261259Y-000000110275D01*
D02*
X000001263740Y-000000107795D01*
D02*
X000001266220Y-000000105433D01*
D02*
X000001272362Y-000000102952D01*
D02*
X000001276023D01*
D02*
X000001279685D01*
D02*
X000001285944Y-000000105433D01*
D02*
X000001288425Y-000000107795D01*
D02*
X000001290787Y-000000110275D01*
D02*
X000001293267Y-000000116417D01*
D02*
Y-000000120078D01*
D02*
Y-000000123858D01*
D02*
X000001290787Y-000000130000D01*
D02*
X000001288425Y-000000132480D01*
D02*
X000001285944Y-000000134960D01*
D02*
X000001279685Y-000000137322D01*
D02*
X000001276023D01*
Y-000000131181D02*
X000001278503D01*
D02*
X000001282519Y-000000129645D01*
D02*
X000001284055Y-000000128110D01*
D02*
X000001285590Y-000000126574D01*
D02*
X000001287126Y-000000122559D01*
D02*
Y-000000120078D01*
D02*
Y-000000117716D01*
D02*
X000001285590Y-000000113700D01*
D02*
X000001284055Y-000000112165D01*
D02*
X000001282519Y-000000110629D01*
D02*
X000001278503Y-000000109094D01*
D02*
X000001276023D01*
D02*
X000001273543D01*
D02*
X000001269645Y-000000110629D01*
D02*
X000001268110Y-000000112165D01*
D02*
X000001266574Y-000000113700D01*
D02*
X000001265039Y-000000117716D01*
D02*
Y-000000120078D01*
D02*
Y-000000122559D01*
D02*
X000001266574Y-000000126574D01*
D02*
X000001268110Y-000000128110D01*
D02*
X000001269645Y-000000129645D01*
D02*
X000001273543Y-000000131181D01*
D02*
X000001276023D01*
X000001251456Y-000000134252D02*
X000001266811Y-000000153622D01*
D02*
X000001288661Y-000000194606D01*
D02*
X000001295157Y-000000216102D01*
D02*
X000001278503Y-000000221653D01*
D02*
X000001270826Y-000000197322D01*
D02*
X000001250866Y-000000158582D01*
D02*
X000001238582Y-000000144173D01*
D02*
X000001251456Y-000000134252D01*
X000001204685Y-000000148425D02*
X000001207165Y-000000149960D01*
D02*
X000001206574Y-000000152795D01*
D02*
X000001203503Y-000000153976D01*
D02*
X000001197952Y-000000173346D01*
D02*
X000001180118Y-000000208779D01*
D02*
X000001167834Y-000000224724D01*
D02*
X000001153661Y-000000215511D01*
D02*
X000001167126Y-000000199212D01*
D02*
X000001185315Y-000000162362D01*
D02*
X000001189921Y-000000141692D01*
D02*
X000001204685Y-000000148425D01*
X000001361299Y-000000115826D02*
X000001360000Y-000000119488D01*
D02*
X000001356929Y-000000126574D01*
D02*
X000001355157Y-000000130000D01*
D02*
X000001396378D01*
D02*
X000001403110Y-000000127519D01*
D02*
X000001411141Y-000000135551D01*
D02*
X000001412322Y-000000137086D01*
D02*
X000001411023Y-000000139566D01*
D02*
X000001408661Y-000000140393D01*
D02*
X000001406181Y-000000152795D01*
D02*
X000001398740Y-000000175236D01*
D02*
X000001393897Y-000000185275D01*
D02*
X000001408661Y-000000195196D01*
D02*
X000001399448Y-000000208661D01*
D02*
X000001385866Y-000000198858D01*
D02*
X000001376889Y-000000211850D01*
D02*
X000001351378Y-000000232992D01*
D02*
X000001334842Y-000000241259D01*
D02*
X000001320669Y-000000230866D01*
D02*
X000001339094Y-000000223189D01*
D02*
X000001365551Y-000000202874D01*
D02*
X000001373582Y-000000190236D01*
D02*
X000001365905Y-000000185393D01*
D02*
X000001350787Y-000000176417D01*
D02*
X000001343464Y-000000172401D01*
D02*
X000001350787Y-000000161299D01*
D02*
X000001360354Y-000000165669D01*
D02*
X000001376063Y-000000173700D01*
D02*
X000001382204Y-000000177362D01*
D02*
X000001386811Y-000000167795D01*
D02*
X000001392362Y-000000150905D01*
D02*
X000001393307Y-000000143464D01*
D02*
X000001348307D01*
D02*
X000001342519Y-000000153976D01*
D02*
X000001328110Y-000000172992D01*
D02*
X000001319488Y-000000181614D01*
D02*
X000001307795Y-000000173582D01*
D02*
X000001323385Y-000000157283D01*
D02*
X000001344055Y-000000122913D01*
D02*
X000001349015Y-000000104724D01*
D02*
X000001363779Y-000000110866D01*
D02*
X000001366141Y-000000112165D01*
D02*
X000001364960Y-000000114645D01*
D02*
X000001361299Y-000000115826D01*
X000001425551Y-000000166259D02*
X000001562677D01*
D02*
Y-000000179842D01*
D02*
X000001425551D01*
D02*
Y-000000166259D01*
X000001696496Y-000000158818D02*
X000001680196Y-000000192716D01*
D02*
X000001625393Y-000000228385D01*
D02*
X000001587007Y-000000230157D01*
D02*
X000001585472Y-000000234173D01*
D02*
X000001582401Y-000000234763D01*
D02*
X000001580866Y-000000231456D01*
D02*
X000001575905Y-000000215511D01*
D02*
X000001615826Y-000000214566D01*
D02*
X000001669684Y-000000181614D01*
D02*
X000001683503Y-000000149606D01*
D02*
X000001696496Y-000000158818D01*
X000001609685D02*
X000001601417Y-000000151141D01*
D02*
X000001585708Y-000000138622D01*
D02*
X000001578385Y-000000133661D01*
D02*
X000001588779Y-000000120787D01*
D02*
X000001595275Y-000000124803D01*
D02*
X000001611574Y-000000138031D01*
D02*
X000001621378Y-000000147244D01*
D02*
X000001609685Y-000000158818D01*
X000000791535Y-000000244330D02*
X000000803818D01*
X000000791535Y-000000242559D02*
X000000803818D01*
X000000864645D02*
X000000876929D01*
X000000934803D02*
X000000947086D01*
X000000791535Y-000000240787D02*
X000000803818D01*
X000000864645D02*
X000000876929D01*
X000000906456D02*
X000000918740D01*
X000000934803D02*
X000000947086D01*
X000000976614D02*
X000000988897D01*
X000001013818D02*
X000001026102D01*
X000001334198D02*
X000001335787D01*
X000000715354Y-000000239015D02*
X000000727637D01*
X000000791535D02*
X000000803818D01*
X000000864645D02*
X000000876929D01*
X000000906456D02*
X000000918740D01*
X000000934803D02*
X000000947086D01*
X000000976614D02*
X000000988897D01*
X000001013818D02*
X000001026102D01*
X000001120236D02*
X000001132519D01*
X000001331782D02*
X000001339330D01*
X000000715354Y-000000237244D02*
X000000727637D01*
X000000761417D02*
X000000773700D01*
X000000791535D02*
X000000803818D01*
X000000864645D02*
X000000876929D01*
X000000906456D02*
X000000918740D01*
X000000934803D02*
X000000947086D01*
X000000976614D02*
X000000988897D01*
X000001013818D02*
X000001026102D01*
X000001120236D02*
X000001132519D01*
X000001329366D02*
X000001342874D01*
X000000715354Y-000000235472D02*
X000000727637D01*
X000000761417D02*
X000000773700D01*
X000000791535D02*
X000000803818D01*
X000000864645D02*
X000000876929D01*
X000000906456D02*
X000000918740D01*
X000000934803D02*
X000000947086D01*
X000000976614D02*
X000000988897D01*
X000001013818D02*
X000001026102D01*
X000001120236D02*
X000001132519D01*
X000001326950D02*
X000001346417D01*
X000000715354Y-000000233700D02*
X000000727637D01*
X000000761417D02*
X000000773700D01*
X000000791535D02*
X000000803818D01*
X000000864645D02*
X000000876929D01*
X000000906456D02*
X000000918740D01*
X000000934803D02*
X000000947086D01*
X000000976614D02*
X000000988897D01*
X000001013818D02*
X000001026102D01*
X000001120236D02*
X000001132519D01*
X000001324534D02*
X000001349960D01*
X000001581908D02*
X000001585652D01*
X000000715354Y-000000231929D02*
X000000727637D01*
X000000761417D02*
X000000773700D01*
X000000791535D02*
X000000803818D01*
X000000864645D02*
X000000918740D01*
X000000934803D02*
X000000988897D01*
X000001013818D02*
X000001132519D01*
X000001322118D02*
X000001352660D01*
X000001581085D02*
X000001586330D01*
X000000715354Y-000000230157D02*
X000000773700D01*
X000000791535D02*
X000000803818D01*
X000000864645D02*
X000000918740D01*
X000000934803D02*
X000000988897D01*
X000001013818D02*
X000001132519D01*
X000001322370D02*
X000001354798D01*
X000001580461D02*
X000001587007D01*
X000000715354Y-000000228385D02*
X000000773700D01*
X000000791535D02*
X000000803818D01*
X000000864645D02*
X000000918740D01*
X000000934803D02*
X000000988897D01*
X000001013818D02*
X000001132519D01*
X000001326622D02*
X000001356936D01*
X000001579910D02*
X000001625393D01*
X000000715354Y-000000226614D02*
X000000773700D01*
X000000791535D02*
X000000803818D01*
X000000864645D02*
X000000918740D01*
X000000934803D02*
X000000988897D01*
X000001013818D02*
X000001132519D01*
X000001330874D02*
X000001359074D01*
X000001579359D02*
X000001628115D01*
X000000715354Y-000000224842D02*
X000000773700D01*
X000000791535D02*
X000000803818D01*
X000000864645D02*
X000000918740D01*
X000000934803D02*
X000000988897D01*
X000001013818D02*
X000001132519D01*
X000001335126D02*
X000001361212D01*
X000001578808D02*
X000001630837D01*
X000000715354Y-000000223070D02*
X000000773700D01*
X000000791535D02*
X000000803818D01*
X000000814156D02*
X000000834001D01*
X000000864645D02*
X000000918740D01*
X000000934803D02*
X000000988897D01*
X000001013818D02*
X000001132519D01*
X000001165290D02*
X000001169108D01*
X000001339248D02*
X000001363349D01*
X000001578257D02*
X000001633559D01*
X000000715354Y-000000221299D02*
X000000773700D01*
X000000791535D02*
X000000803818D01*
X000000813830D02*
X000000835229D01*
X000000864645D02*
X000000918740D01*
X000000934803D02*
X000000988897D01*
X000001013818D02*
X000001026102D01*
X000001047598D02*
X000001059881D01*
X000001086338D02*
X000001098622D01*
X000001120236D02*
X000001132519D01*
X000001162565D02*
X000001170472D01*
X000001341555D02*
X000001365487D01*
X000001577705D02*
X000001636281D01*
X000000715354Y-000000219527D02*
X000000773700D01*
X000000791535D02*
X000000803818D01*
X000000813503D02*
X000000836456D01*
X000000864645D02*
X000000876929D01*
X000000906456D02*
X000000918740D01*
X000000934803D02*
X000000947086D01*
X000000976614D02*
X000000988897D01*
X000001013818D02*
X000001026102D01*
X000001047598D02*
X000001059881D01*
X000001086338D02*
X000001098622D01*
X000001120236D02*
X000001132519D01*
X000001159839D02*
X000001171838D01*
X000001277832D02*
X000001284881D01*
X000001343862D02*
X000001367625D01*
X000001577154D02*
X000001639003D01*
X000000715354Y-000000217755D02*
X000000727637D01*
X000000761417D02*
X000000773700D01*
X000000791535D02*
X000000803818D01*
X000000813177D02*
X000000837684D01*
X000000864645D02*
X000000876929D01*
X000000906456D02*
X000000918740D01*
X000000934803D02*
X000000947086D01*
X000000976614D02*
X000000988897D01*
X000001013818D02*
X000001026102D01*
X000001047598D02*
X000001059881D01*
X000001086338D02*
X000001098622D01*
X000001120236D02*
X000001132519D01*
X000001157113D02*
X000001173203D01*
X000001277273D02*
X000001290196D01*
X000001346169D02*
X000001369763D01*
X000001576603D02*
X000001641726D01*
X000000715354Y-000000215984D02*
X000000727637D01*
X000000761417D02*
X000000773700D01*
X000000791535D02*
X000000803818D01*
X000000812851D02*
X000000838913D01*
X000000864645D02*
X000000876929D01*
X000000906456D02*
X000000918740D01*
X000000934803D02*
X000000947086D01*
X000000976614D02*
X000000988897D01*
X000001013818D02*
X000001026102D01*
X000001047598D02*
X000001059881D01*
X000001086338D02*
X000001098622D01*
X000001120236D02*
X000001132519D01*
X000001154388D02*
X000001174567D01*
X000001276714D02*
X000001295121D01*
X000001348477D02*
X000001371901D01*
X000001576052D02*
X000001644447D01*
X000000715354Y-000000214212D02*
X000000727637D01*
X000000761417D02*
X000000773700D01*
X000000791535D02*
X000000803818D01*
X000000812524D02*
X000000840140D01*
X000000864645D02*
X000000876929D01*
X000000906456D02*
X000000918740D01*
X000000934803D02*
X000000947086D01*
X000000976614D02*
X000000988897D01*
X000001013818D02*
X000001026102D01*
X000001047598D02*
X000001059881D01*
X000001086338D02*
X000001098622D01*
X000001120236D02*
X000001132519D01*
X000001154734D02*
X000001175932D01*
X000001276155D02*
X000001294586D01*
X000001350784D02*
X000001374039D01*
X000001616405D02*
X000001647169D01*
X000000715354Y-000000212440D02*
X000000727637D01*
X000000761417D02*
X000000773700D01*
X000000791535D02*
X000000803818D01*
X000000812198D02*
X000000841368D01*
X000000864645D02*
X000000876929D01*
X000000906456D02*
X000000918740D01*
X000000934803D02*
X000000947086D01*
X000000976614D02*
X000000988897D01*
X000001013818D02*
X000001026102D01*
X000001047598D02*
X000001059881D01*
X000001086338D02*
X000001098622D01*
X000001120236D02*
X000001132519D01*
X000001156198D02*
X000001177297D01*
X000001275597D02*
X000001294050D01*
X000001353091D02*
X000001376176D01*
X000001619301D02*
X000001649891D01*
X000000715354Y-000000210669D02*
X000000727637D01*
X000000761417D02*
X000000773700D01*
X000000791535D02*
X000000803818D01*
X000000811871D02*
X000000841655D01*
X000000864645D02*
X000000876929D01*
X000000906456D02*
X000000918740D01*
X000000934803D02*
X000000947086D01*
X000000976614D02*
X000000988897D01*
X000001013818D02*
X000001026102D01*
X000001047598D02*
X000001059881D01*
X000001086338D02*
X000001098622D01*
X000001120236D02*
X000001132519D01*
X000001157661D02*
X000001178662D01*
X000001275037D02*
X000001293515D01*
X000001355399D02*
X000001377705D01*
X000001622196D02*
X000001652613D01*
X000000715354Y-000000208897D02*
X000000727637D01*
X000000761417D02*
X000000773700D01*
X000000791535D02*
X000000803818D01*
X000000826704D02*
X000000841707D01*
X000000864645D02*
X000000876929D01*
X000000906456D02*
X000000918740D01*
X000000934803D02*
X000000947086D01*
X000000976614D02*
X000000988897D01*
X000001013818D02*
X000001026102D01*
X000001047598D02*
X000001059881D01*
X000001086338D02*
X000001098622D01*
X000001120236D02*
X000001132519D01*
X000001159125D02*
X000001180026D01*
X000001274478D02*
X000001292980D01*
X000001357706D02*
X000001378929D01*
X000001625092D02*
X000001655335D01*
X000000715354Y-000000207126D02*
X000000727637D01*
X000000761417D02*
X000000773700D01*
X000000791535D02*
X000000803818D01*
X000000827561D02*
X000000841760D01*
X000000864645D02*
X000000876929D01*
X000000906456D02*
X000000918740D01*
X000000934803D02*
X000000947086D01*
X000000976614D02*
X000000988897D01*
X000001013818D02*
X000001026102D01*
X000001047598D02*
X000001059881D01*
X000001086338D02*
X000001098622D01*
X000001120236D02*
X000001132519D01*
X000001160588D02*
X000001180950D01*
X000001273920D02*
X000001292444D01*
X000001360013D02*
X000001380153D01*
X000001397321D02*
X000001400499D01*
X000001627988D02*
X000001658057D01*
X000000715354Y-000000205354D02*
X000000727637D01*
X000000761417D02*
X000000773700D01*
X000000791535D02*
X000000803818D01*
X000000828417D02*
X000000841812D01*
X000000864645D02*
X000000876929D01*
X000000906456D02*
X000000918740D01*
X000000934803D02*
X000000947086D01*
X000000976614D02*
X000000988897D01*
X000001013818D02*
X000001026102D01*
X000001047598D02*
X000001098622D01*
X000001120236D02*
X000001132519D01*
X000001162052D02*
X000001181841D01*
X000001273361D02*
X000001291909D01*
X000001362320D02*
X000001381378D01*
X000001394866D02*
X000001401711D01*
X000001630883D02*
X000001660779D01*
X000000715354Y-000000203582D02*
X000000727637D01*
X000000761417D02*
X000000773700D01*
X000000791535D02*
X000000803818D01*
X000000829273D02*
X000000841864D01*
X000000864645D02*
X000000876929D01*
X000000906456D02*
X000000918740D01*
X000000934803D02*
X000000947086D01*
X000000976614D02*
X000000988897D01*
X000001013818D02*
X000001026102D01*
X000001047598D02*
X000001098622D01*
X000001120236D02*
X000001132519D01*
X000001163515D02*
X000001182733D01*
X000001272802D02*
X000001291374D01*
X000001364628D02*
X000001382601D01*
X000001392411D02*
X000001402923D01*
X000001633779D02*
X000001663502D01*
X000000715354Y-000000201811D02*
X000000727637D01*
X000000761417D02*
X000000773700D01*
X000000791535D02*
X000000803818D01*
X000000829137D02*
X000000841916D01*
X000000864645D02*
X000000876929D01*
X000000906456D02*
X000000918740D01*
X000000934803D02*
X000000947086D01*
X000000976614D02*
X000000988897D01*
X000001013818D02*
X000001026102D01*
X000001047598D02*
X000001098622D01*
X000001120236D02*
X000001132519D01*
X000001164979D02*
X000001183625D01*
X000001272242D02*
X000001290838D01*
X000001366226D02*
X000001383826D01*
X000001389957D02*
X000001404135D01*
X000001636675D02*
X000001666224D01*
X000000715354Y-000000200039D02*
X000000727637D01*
X000000761417D02*
X000000773700D01*
X000000791535D02*
X000000803818D01*
X000000828930D02*
X000000841968D01*
X000000864645D02*
X000000876929D01*
X000000906456D02*
X000000918740D01*
X000000934803D02*
X000000947086D01*
X000000976614D02*
X000000988897D01*
X000001013818D02*
X000001026102D01*
X000001047598D02*
X000001098622D01*
X000001120236D02*
X000001132519D01*
X000001166442D02*
X000001184516D01*
X000001271683D02*
X000001290303D01*
X000001367352D02*
X000001385050D01*
X000001387502D02*
X000001405348D01*
X000001639570D02*
X000001668945D01*
X000000715354Y-000000198267D02*
X000000727637D01*
X000000761417D02*
X000000773700D01*
X000000791535D02*
X000000803818D01*
X000000828724D02*
X000000842021D01*
X000000864645D02*
X000000876929D01*
X000000906456D02*
X000000918740D01*
X000000934803D02*
X000000947086D01*
X000000976614D02*
X000000988897D01*
X000001013818D02*
X000001026102D01*
X000001047598D02*
X000001098622D01*
X000001120236D02*
X000001132519D01*
X000001167592D02*
X000001185408D01*
X000001271124D02*
X000001289767D01*
X000001368478D02*
X000001406559D01*
X000001642466D02*
X000001671667D01*
X000000715354Y-000000196496D02*
X000000727637D01*
X000000761417D02*
X000000773700D01*
X000000791535D02*
X000000803818D01*
X000000828517D02*
X000000842074D01*
X000000864645D02*
X000000876929D01*
X000000906456D02*
X000000918740D01*
X000000934803D02*
X000000947086D01*
X000000976614D02*
X000000988897D01*
X000001013818D02*
X000001026102D01*
X000001047598D02*
X000001098622D01*
X000001120236D02*
X000001132519D01*
X000001168466D02*
X000001186300D01*
X000001270400D02*
X000001289232D01*
X000001369604D02*
X000001407772D01*
X000001645361D02*
X000001674389D01*
X000000715354Y-000000194724D02*
X000000727637D01*
X000000761417D02*
X000000773700D01*
X000000791535D02*
X000000803818D01*
X000000828254D02*
X000000842127D01*
X000000864645D02*
X000000876929D01*
X000000906456D02*
X000000918740D01*
X000000934803D02*
X000000947086D01*
X000000976614D02*
X000000988897D01*
X000001013818D02*
X000001026102D01*
X000001047598D02*
X000001059881D01*
X000001086338D02*
X000001098622D01*
X000001120236D02*
X000001132519D01*
X000001169341D02*
X000001187192D01*
X000001269487D02*
X000001288697D01*
X000001370730D02*
X000001407958D01*
X000001648257D02*
X000001677111D01*
X000000715354Y-000000192952D02*
X000000773700D01*
X000000791535D02*
X000000803818D01*
X000000827987D02*
X000000842179D01*
X000000864645D02*
X000000876929D01*
X000000906456D02*
X000000918740D01*
X000000934803D02*
X000000947086D01*
X000000976614D02*
X000000988897D01*
X000001013818D02*
X000001026102D01*
X000001047598D02*
X000001059881D01*
X000001086338D02*
X000001098622D01*
X000001120236D02*
X000001132519D01*
X000001170215D02*
X000001188083D01*
X000001268574D02*
X000001287779D01*
X000001371855D02*
X000001405321D01*
X000001651152D02*
X000001679833D01*
X000000715354Y-000000191181D02*
X000000773700D01*
X000000791535D02*
X000000803818D01*
X000000827720D02*
X000000841744D01*
X000000864645D02*
X000000876929D01*
X000000906456D02*
X000000918740D01*
X000000934803D02*
X000000947086D01*
X000000976614D02*
X000000988897D01*
X000001013818D02*
X000001026102D01*
X000001047598D02*
X000001059881D01*
X000001086338D02*
X000001098622D01*
X000001120236D02*
X000001132519D01*
X000001171090D02*
X000001188976D01*
X000001267662D02*
X000001286835D01*
X000001372981D02*
X000001402685D01*
X000001654048D02*
X000001680934D01*
X000000715354Y-000000189409D02*
X000000773700D01*
X000000791535D02*
X000000803818D01*
X000000827453D02*
X000000840881D01*
X000000864645D02*
X000000918740D01*
X000000934803D02*
X000000988897D01*
X000001013818D02*
X000001026102D01*
X000001047598D02*
X000001059881D01*
X000001086338D02*
X000001098622D01*
X000001120236D02*
X000001132519D01*
X000001171964D02*
X000001189867D01*
X000001266749D02*
X000001285890D01*
X000001372271D02*
X000001400049D01*
X000001656944D02*
X000001681787D01*
X000000715354Y-000000187637D02*
X000000773700D01*
X000000791535D02*
X000000803818D01*
X000000827144D02*
X000000840018D01*
X000000864645D02*
X000000918740D01*
X000000934803D02*
X000000988897D01*
X000001013818D02*
X000001026102D01*
X000001047598D02*
X000001059881D01*
X000001086338D02*
X000001098622D01*
X000001120236D02*
X000001132519D01*
X000001172839D02*
X000001190759D01*
X000001265836D02*
X000001284946D01*
X000001369462D02*
X000001397412D01*
X000001659840D02*
X000001682638D01*
X000000715354Y-000000185866D02*
X000000773700D01*
X000000791535D02*
X000000803818D01*
X000000826237D02*
X000000839155D01*
X000000864645D02*
X000000918740D01*
X000000934803D02*
X000000988897D01*
X000001013818D02*
X000001026102D01*
X000001047598D02*
X000001059881D01*
X000001086338D02*
X000001098622D01*
X000001120236D02*
X000001132519D01*
X000001173713D02*
X000001191651D01*
X000001264923D02*
X000001284001D01*
X000001366654D02*
X000001394776D01*
X000001662735D02*
X000001683490D01*
X000000715354Y-000000184094D02*
X000000773700D01*
X000000791535D02*
X000000803818D01*
X000000825330D02*
X000000838292D01*
X000000864645D02*
X000000918740D01*
X000000934803D02*
X000000988897D01*
X000001013818D02*
X000001026102D01*
X000001047598D02*
X000001059881D01*
X000001086338D02*
X000001098622D01*
X000001120236D02*
X000001132519D01*
X000001174587D02*
X000001192542D01*
X000001264010D02*
X000001283057D01*
X000001363717D02*
X000001394467D01*
X000001665631D02*
X000001684342D01*
X000000715354Y-000000182322D02*
X000000773700D01*
X000000791535D02*
X000000803818D01*
X000000824423D02*
X000000837430D01*
X000000864645D02*
X000000918740D01*
X000000934803D02*
X000000988897D01*
X000001013818D02*
X000001026102D01*
X000001047598D02*
X000001059881D01*
X000001086338D02*
X000001098622D01*
X000001120236D02*
X000001132519D01*
X000001175462D02*
X000001193434D01*
X000001263098D02*
X000001282112D01*
X000001360733D02*
X000001395322D01*
X000001668526D02*
X000001685194D01*
X000000791535Y-000000180551D02*
X000000803818D01*
X000000823517D02*
X000000836567D01*
X000000864645D02*
X000000918740D01*
X000000934803D02*
X000000988897D01*
X000001013818D02*
X000001026102D01*
X000001047598D02*
X000001098622D01*
X000001120236D02*
X000001132519D01*
X000001176337D02*
X000001194326D01*
X000001262185D02*
X000001281167D01*
X000001317940D02*
X000001320551D01*
X000001357749D02*
X000001396176D01*
X000001670144D02*
X000001686046D01*
X000000791535Y-000000178779D02*
X000000803818D01*
X000000822610D02*
X000000835704D01*
X000000864645D02*
X000000918740D01*
X000000934803D02*
X000000988897D01*
X000001013818D02*
X000001026102D01*
X000001047598D02*
X000001098622D01*
X000001120236D02*
X000001132519D01*
X000001177211D02*
X000001195218D01*
X000001261272D02*
X000001280223D01*
X000001315361D02*
X000001322322D01*
X000001354765D02*
X000001397030D01*
X000001425551D02*
X000001562677D01*
X000001670908D02*
X000001686898D01*
X000000791535Y-000000177007D02*
X000000803818D01*
X000000821703D02*
X000000834841D01*
X000001013818D02*
X000001026102D01*
X000001047598D02*
X000001098622D01*
X000001120236D02*
X000001132519D01*
X000001178085D02*
X000001196109D01*
X000001260359D02*
X000001279278D01*
X000001312781D02*
X000001324094D01*
X000001351781D02*
X000001381610D01*
X000001382375D02*
X000001397885D01*
X000001425551D02*
X000001562677D01*
X000001671673D02*
X000001687750D01*
X000000791535Y-000000175236D02*
X000000803818D01*
X000000820796D02*
X000000833979D01*
X000001013818D02*
X000001026102D01*
X000001047598D02*
X000001098622D01*
X000001120236D02*
X000001132519D01*
X000001178960D02*
X000001197001D01*
X000001259446D02*
X000001278334D01*
X000001310202D02*
X000001325866D01*
X000001348633D02*
X000001378638D01*
X000001383228D02*
X000001398740D01*
X000001425551D02*
X000001562677D01*
X000001672438D02*
X000001688601D01*
X000000791535Y-000000173464D02*
X000000803818D01*
X000000819890D02*
X000000832917D01*
X000001013818D02*
X000001026102D01*
X000001047598D02*
X000001098622D01*
X000001120236D02*
X000001132519D01*
X000001179835D02*
X000001197893D01*
X000001258533D02*
X000001277389D01*
X000001307908D02*
X000001327637D01*
X000001345402D02*
X000001375600D01*
X000001384081D02*
X000001399327D01*
X000001425551D02*
X000001562677D01*
X000001673203D02*
X000001689453D01*
X000000791535Y-000000171692D02*
X000000803818D01*
X000000818464D02*
X000000831311D01*
X000001013818D02*
X000001026102D01*
X000001047598D02*
X000001059881D01*
X000001086338D02*
X000001098622D01*
X000001120236D02*
X000001132519D01*
X000001180709D02*
X000001198426D01*
X000001257621D02*
X000001276445D01*
X000001309602D02*
X000001329094D01*
X000001343931D02*
X000001372135D01*
X000001384934D02*
X000001399915D01*
X000001425551D02*
X000001562677D01*
X000001673968D02*
X000001690305D01*
X000000702952Y-000000169921D02*
X000000787283D01*
X000000791535D02*
X000000803818D01*
X000000816692D02*
X000000829703D01*
X000001013818D02*
X000001026102D01*
X000001047598D02*
X000001059881D01*
X000001086338D02*
X000001098622D01*
X000001120236D02*
X000001132519D01*
X000001181583D02*
X000001198934D01*
X000001256708D02*
X000001275500D01*
X000001311297D02*
X000001330436D01*
X000001345100D02*
X000001368670D01*
X000001385787D02*
X000001400502D01*
X000001425551D02*
X000001562677D01*
X000001674733D02*
X000001691157D01*
X000000702952Y-000000168149D02*
X000000787283D01*
X000000791535D02*
X000000803818D01*
X000000814921D02*
X000000828097D01*
X000001013818D02*
X000001026102D01*
X000001047598D02*
X000001059881D01*
X000001086338D02*
X000001098622D01*
X000001120236D02*
X000001132519D01*
X000001182458D02*
X000001199442D01*
X000001255794D02*
X000001274555D01*
X000001312992D02*
X000001331779D01*
X000001346268D02*
X000001365205D01*
X000001386640D02*
X000001401089D01*
X000001425551D02*
X000001562677D01*
X000001675498D02*
X000001692009D01*
X000000702952Y-000000166378D02*
X000000787283D01*
X000000791535D02*
X000000803818D01*
X000000813149D02*
X000000826490D01*
X000000886141D02*
X000000898425D01*
X000001013818D02*
X000001026102D01*
X000001047598D02*
X000001059881D01*
X000001086338D02*
X000001098622D01*
X000001120236D02*
X000001132519D01*
X000001183332D02*
X000001199950D01*
X000001254882D02*
X000001273611D01*
X000001314686D02*
X000001333122D01*
X000001347437D02*
X000001361740D01*
X000001387276D02*
X000001401677D01*
X000001425551D02*
X000001562677D01*
X000001676262D02*
X000001692861D01*
X000000702952Y-000000164606D02*
X000000787283D01*
X000000791535D02*
X000000803818D01*
X000000813476D02*
X000000824883D01*
X000000886141D02*
X000000898425D01*
X000000952637D02*
X000000964921D01*
X000001013818D02*
X000001026102D01*
X000001047598D02*
X000001059881D01*
X000001086338D02*
X000001098622D01*
X000001120236D02*
X000001132519D01*
X000001184207D02*
X000001200457D01*
X000001253969D02*
X000001272667D01*
X000001316381D02*
X000001334464D01*
X000001348605D02*
X000001358026D01*
X000001387859D02*
X000001402265D01*
X000001677028D02*
X000001693713D01*
X000000702952Y-000000162834D02*
X000000787283D01*
X000000791535D02*
X000000803818D01*
X000000813953D02*
X000000824445D01*
X000000886141D02*
X000000898425D01*
X000000952637D02*
X000000964921D01*
X000001013818D02*
X000001026102D01*
X000001047598D02*
X000001059881D01*
X000001086338D02*
X000001098622D01*
X000001120236D02*
X000001132519D01*
X000001185081D02*
X000001200965D01*
X000001253056D02*
X000001271722D01*
X000001318076D02*
X000001335806D01*
X000001349774D02*
X000001354148D01*
X000001388441D02*
X000001402852D01*
X000001677792D02*
X000001694565D01*
X000000702952Y-000000161062D02*
X000000787283D01*
X000000791535D02*
X000000803818D01*
X000000814431D02*
X000000825028D01*
X000000886141D02*
X000000964921D01*
X000001013818D02*
X000001026102D01*
X000001047598D02*
X000001059881D01*
X000001086338D02*
X000001098622D01*
X000001120236D02*
X000001132519D01*
X000001185604D02*
X000001201472D01*
X000001252143D02*
X000001270778D01*
X000001319770D02*
X000001337149D01*
X000001389023D02*
X000001403439D01*
X000001678557D02*
X000001695416D01*
X000000702952Y-000000159291D02*
X000000787283D01*
X000000791535D02*
X000000803818D01*
X000000814908D02*
X000000825612D01*
X000000886141D02*
X000000964921D01*
X000001013818D02*
X000001026102D01*
X000001047598D02*
X000001059881D01*
X000001086338D02*
X000001098622D01*
X000001120236D02*
X000001132519D01*
X000001185999D02*
X000001201980D01*
X000001251231D02*
X000001269833D01*
X000001321465D02*
X000001338492D01*
X000001389605D02*
X000001404027D01*
X000001679322D02*
X000001696268D01*
X000000725968Y-000000157519D02*
X000000739020D01*
X000000751393D02*
X000000764332D01*
X000000791535D02*
X000000803818D01*
X000000815385D02*
X000000826196D01*
X000000886141D02*
X000000964921D01*
X000001013818D02*
X000001026102D01*
X000001047598D02*
X000001059881D01*
X000001086338D02*
X000001098622D01*
X000001120236D02*
X000001132519D01*
X000001186394D02*
X000001202488D01*
X000001249959D02*
X000001268889D01*
X000001323159D02*
X000001339834D01*
X000001390188D02*
X000001404614D01*
X000001608285D02*
X000001610997D01*
X000001680087D02*
X000001694663D01*
X000000725465Y-000000155748D02*
X000000738598D01*
X000000751896D02*
X000000764925D01*
X000000791535D02*
X000000803818D01*
X000000815863D02*
X000000826779D01*
X000000886141D02*
X000000964921D01*
X000001013818D02*
X000001132519D01*
X000001186789D02*
X000001202996D01*
X000001248449D02*
X000001267944D01*
X000001324309D02*
X000001341177D01*
X000001390770D02*
X000001405201D01*
X000001606377D02*
X000001612787D01*
X000001680852D02*
X000001692165D01*
X000000724961Y-000000153976D02*
X000000738175D01*
X000000752400D02*
X000000765518D01*
X000000791535D02*
X000000803818D01*
X000000816339D02*
X000000827364D01*
X000000886141D02*
X000000964921D01*
X000001013818D02*
X000001132519D01*
X000001187183D02*
X000001203503D01*
X000001246939D02*
X000001266999D01*
X000001325374D02*
X000001342519D01*
X000001391352D02*
X000001405789D01*
X000001604470D02*
X000001614576D01*
X000001681616D02*
X000001689666D01*
X000000724457Y-000000152204D02*
X000000737752D01*
X000000752904D02*
X000000766112D01*
X000000791535D02*
X000000803818D01*
X000000816816D02*
X000000827947D01*
X000000886141D02*
X000000964921D01*
X000001013818D02*
X000001132519D01*
X000001187578D02*
X000001206697D01*
X000001245429D02*
X000001265687D01*
X000001326439D02*
X000001343495D01*
X000001391935D02*
X000001406299D01*
X000001602562D02*
X000001616366D01*
X000001682381D02*
X000001687168D01*
X000000723953Y-000000150433D02*
X000000737330D01*
X000000753408D02*
X000000766705D01*
X000000791535D02*
X000000803818D01*
X000000817294D02*
X000000828531D01*
X000000886141D02*
X000000898425D01*
X000000952637D02*
X000000964921D01*
X000001013818D02*
X000001132519D01*
X000001187973D02*
X000001207066D01*
X000001243918D02*
X000001264283D01*
X000001327505D02*
X000001344470D01*
X000001392422D02*
X000001406653D01*
X000001600528D02*
X000001618156D01*
X000001683146D02*
X000001684669D01*
X000000723449Y-000000148661D02*
X000000736907D01*
X000000753912D02*
X000000767299D01*
X000000791535D02*
X000000803818D01*
X000000817771D02*
X000000829115D01*
X000000886141D02*
X000000898425D01*
X000000952637D02*
X000000964921D01*
X000001013818D02*
X000001132519D01*
X000001188368D02*
X000001205066D01*
X000001242408D02*
X000001262878D01*
X000001328570D02*
X000001345445D01*
X000001392647D02*
X000001407007D01*
X000001598305D02*
X000001619946D01*
X000000722945Y-000000146889D02*
X000000736485D01*
X000000754416D02*
X000000767892D01*
X000000791535D02*
X000000803818D01*
X000000818248D02*
X000000829698D01*
X000000886141D02*
X000000898425D01*
X000000952637D02*
X000000964921D01*
X000001013818D02*
X000001132519D01*
X000001188763D02*
X000001201317D01*
X000001240898D02*
X000001261474D01*
X000001329636D02*
X000001346420D01*
X000001392872D02*
X000001407362D01*
X000001596082D02*
X000001621000D01*
X000000722441Y-000000145118D02*
X000000736062D01*
X000000754919D02*
X000000768485D01*
X000000791535D02*
X000000803818D01*
X000000818726D02*
X000000830283D01*
X000000886141D02*
X000000898425D01*
X000000952637D02*
X000000964921D01*
X000001013818D02*
X000001132519D01*
X000001189157D02*
X000001197432D01*
X000001239387D02*
X000001260069D01*
X000001330701D02*
X000001347396D01*
X000001393096D02*
X000001407716D01*
X000001593859D02*
X000001619115D01*
X000000721938Y-000000143346D02*
X000000735639D01*
X000000755424D02*
X000000769078D01*
X000000791535D02*
X000000803818D01*
X000000819202D02*
X000000830866D01*
X000000886141D02*
X000000898425D01*
X000000952637D02*
X000000964921D01*
X000001064598D02*
X000001077005D01*
X000001189552D02*
X000001193547D01*
X000001239655D02*
X000001258665D01*
X000001331766D02*
X000001408070D01*
X000001591636D02*
X000001617230D01*
X000000721434Y-000000141574D02*
X000000735217D01*
X000000755928D02*
X000000769672D01*
X000000791535D02*
X000000803818D01*
X000000819679D02*
X000000831450D01*
X000000886141D02*
X000000898425D01*
X000000952637D02*
X000000964921D01*
X000001065030D02*
X000001077592D01*
X000001241954D02*
X000001257261D01*
X000001332832D02*
X000001408425D01*
X000001589413D02*
X000001615344D01*
X000000720930Y-000000139803D02*
X000000734794D01*
X000000756431D02*
X000000770265D01*
X000000791535D02*
X000000803818D01*
X000000820157D02*
X000000832034D01*
X000000886141D02*
X000000898425D01*
X000000952637D02*
X000000964921D01*
X000001065463D02*
X000001078179D01*
X000001244253D02*
X000001255857D01*
X000001333897D02*
X000001410348D01*
X000001587190D02*
X000001613459D01*
X000000720426Y-000000138031D02*
X000000734372D01*
X000000756935D02*
X000000770858D01*
X000000791535D02*
X000000803818D01*
X000000820634D02*
X000000832618D01*
X000000886141D02*
X000000898425D01*
X000000952637D02*
X000000964921D01*
X000001065895D02*
X000001078766D01*
X000001246552D02*
X000001254452D01*
X000001334963D02*
X000001411827D01*
X000001584836D02*
X000001611574D01*
X000000719922Y-000000136259D02*
X000000733949D01*
X000000757439D02*
X000000771451D01*
X000000791535D02*
X000000803818D01*
X000000821111D02*
X000000833201D01*
X000000886141D02*
X000000898425D01*
X000000952637D02*
X000000964921D01*
X000001066328D02*
X000001079353D01*
X000001248851D02*
X000001253048D01*
X000001269598D02*
X000001282502D01*
X000001336028D02*
X000001411686D01*
X000001582221D02*
X000001609391D01*
X000000719418Y-000000134488D02*
X000000733526D01*
X000000757943D02*
X000000772044D01*
X000000791535D02*
X000000803818D01*
X000000821589D02*
X000000833785D01*
X000000886141D02*
X000000898425D01*
X000000952637D02*
X000000964921D01*
X000001066761D02*
X000001079940D01*
X000001265748D02*
X000001286417D01*
X000001337094D02*
X000001410078D01*
X000001579606D02*
X000001607208D01*
X000000710984Y-000000132716D02*
X000000781141D01*
X000000791535D02*
X000000803818D01*
X000000822065D02*
X000000834369D01*
X000000886141D02*
X000000898425D01*
X000000952637D02*
X000000964921D01*
X000001067193D02*
X000001080528D01*
X000001263976D02*
X000001288189D01*
X000001338159D02*
X000001408307D01*
X000001579148D02*
X000001605025D01*
X000000710984Y-000000130944D02*
X000000781141D01*
X000000791535D02*
X000000803818D01*
X000000822542D02*
X000000834952D01*
X000000886141D02*
X000000898425D01*
X000000952637D02*
X000000964921D01*
X000001067626D02*
X000001081114D01*
X000001262204D02*
X000001272943D01*
X000001279121D02*
X000001289887D01*
X000001339225D02*
X000001406535D01*
X000001580578D02*
X000001602842D01*
X000000710984Y-000000129173D02*
X000000781141D01*
X000000791535D02*
X000000803818D01*
X000000823020D02*
X000000835537D01*
X000000886141D02*
X000000898425D01*
X000000952637D02*
X000000964921D01*
X000001068058D02*
X000001081702D01*
X000001260941D02*
X000001269173D01*
X000001282992D02*
X000001291121D01*
X000001340290D02*
X000001355584D01*
X000001398622D02*
X000001404763D01*
X000001582009D02*
X000001600660D01*
X000000710984Y-000000127401D02*
X000000781141D01*
X000000791535D02*
X000000803818D01*
X000000823497D02*
X000000836120D01*
X000000886141D02*
X000000898425D01*
X000000952637D02*
X000000964921D01*
X000001068491D02*
X000001082289D01*
X000001260260D02*
X000001267401D01*
X000001284763D02*
X000001291837D01*
X000001341355D02*
X000001356501D01*
X000001583439D02*
X000001598477D01*
X000000710984Y-000000125629D02*
X000000781141D01*
X000000791535D02*
X000000803818D01*
X000000823974D02*
X000000836704D01*
X000000886141D02*
X000000898425D01*
X000000952637D02*
X000000964921D01*
X000001068924D02*
X000001082876D01*
X000001259578D02*
X000001266213D01*
X000001285952D02*
X000001292552D01*
X000001342421D02*
X000001357338D01*
X000001584869D02*
X000001596294D01*
X000000710984Y-000000123858D02*
X000000781141D01*
X000000791535D02*
X000000837288D01*
X000000886141D02*
X000000898425D01*
X000000952637D02*
X000000964921D01*
X000001006378D02*
X000001139842D01*
X000001258897D02*
X000001265535D01*
X000001286629D02*
X000001293267D01*
X000001343487D02*
X000001358105D01*
X000001586300D02*
X000001593747D01*
X000000710984Y-000000122086D02*
X000000781141D01*
X000000791535D02*
X000000838377D01*
X000000886141D02*
X000000898425D01*
X000000952637D02*
X000000964921D01*
X000001006378D02*
X000001139842D01*
X000001258897D02*
X000001265039D01*
X000001287126D02*
X000001293267D01*
X000001344280D02*
X000001358873D01*
X000001587730D02*
X000001590881D01*
X000000738031Y-000000120314D02*
X000000752204D01*
X000000791535D02*
X000000839627D01*
X000000886141D02*
X000000964921D01*
X000001006378D02*
X000001139842D01*
X000001258897D02*
X000001265039D01*
X000001287126D02*
X000001293267D01*
X000001344763D02*
X000001359641D01*
X000000738031Y-000000118543D02*
X000000752204D01*
X000000791535D02*
X000000837492D01*
X000000886141D02*
X000000964921D01*
X000001006378D02*
X000001139842D01*
X000001258897D02*
X000001265039D01*
X000001287126D02*
X000001293267D01*
X000001345246D02*
X000001360335D01*
X000000738031Y-000000116771D02*
X000000752204D01*
X000000791535D02*
X000000835357D01*
X000000886141D02*
X000000964921D01*
X000001006378D02*
X000001139842D01*
X000001258897D02*
X000001265400D01*
X000001286764D02*
X000001293267D01*
X000001345729D02*
X000001360963D01*
X000000738031Y-000000115000D02*
X000000752204D01*
X000000791535D02*
X000000833222D01*
X000000886141D02*
X000000964921D01*
X000001006378D02*
X000001139842D01*
X000001259442D02*
X000001266078D01*
X000001286087D02*
X000001292695D01*
X000001346212D02*
X000001363862D01*
X000000738031Y-000000113228D02*
X000000752204D01*
X000000827881D02*
X000000831087D01*
X000000886141D02*
X000000964921D01*
X000001006378D02*
X000001139842D01*
X000001260124D02*
X000001267047D01*
X000001285118D02*
X000001291979D01*
X000001346696D02*
X000001365635D01*
X000000738031Y-000000111456D02*
X000000752204D01*
X000000886141D02*
X000000964921D01*
X000001260805D02*
X000001268818D01*
X000001283346D02*
X000001291264D01*
X000001347179D02*
X000001364853D01*
X000000738031Y-000000109685D02*
X000000752204D01*
X000001261850D02*
X000001272044D01*
X000001280048D02*
X000001290224D01*
X000001347662D02*
X000001360940D01*
X000000738031Y-000000107913D02*
X000000752204D01*
X000001263622D02*
X000001288537D01*
X000001348146D02*
X000001356681D01*
X000000738031Y-000000106141D02*
X000000754739D01*
X000001265476D02*
X000001286689D01*
X000001348629D02*
X000001352422D01*
X000000738031Y-000000104370D02*
X000000754763D01*
X000001268852D02*
X000001283261D01*
G54D11*
X000000600000Y000000121259D02*
Y000000278740D01*
X000000521259Y000000200000D02*
X000000678740D01*
X000006469291Y000005610629D02*
Y000005689370D01*
X000006429921Y000005650000D02*
X000006508661D01*
X000000600000Y000005571259D02*
Y000005728740D01*
X000000521259Y000005650000D02*
X000000678740D01*
X000000800000Y000005490944D02*
Y000005609055D01*
X000000740944Y000005550000D02*
X000000859055D01*
X000006469291Y000000160629D02*
Y000000239370D01*
X000006429921Y000000200000D02*
X000006508661D01*
G75*
G01X000000678740Y000000200000D02*
G03I-000000078740J000000000000D01*
G74*
G75*
G01X000006508661Y000005650000D02*
G03I-000000039370J000000000000D01*
G74*
G75*
G01X000000678740Y000005650000D02*
G03I-000000078740J000000000000D01*
G74*
G75*
G01X000000859055Y000005550000D02*
G03I-000000059055J000000000000D01*
G74*
G75*
G01X000006508661Y000000200000D02*
G03I-000000039370J000000000000D01*
G74*
G54D12*
X000000150000Y000000589370D02*
X000000800000D01*
X000000150000Y000000689370D02*
X000000800000D01*
X000000150000Y000005289370D02*
X000000800000D01*
X000000150000Y000000489370D02*
X000000800000D01*
X000000150000Y000002589370D02*
X000000800000D01*
X000000150000Y000003589370D02*
X000000800000D01*
X000000150000Y000002789370D02*
X000000800000D01*
X000000150000Y000002889370D02*
X000000800000D01*
X000000150000Y000002989370D02*
X000000800000D01*
X000000150000Y000003089370D02*
X000000800000D01*
X000000150000Y000004889370D02*
X000000800000D01*
X000000150000Y000004789370D02*
X000000800000D01*
X000000150000Y000000789370D02*
X000000800000D01*
X000000150000Y000000889370D02*
X000000800000D01*
X000000150000Y000000989370D02*
X000000800000D01*
X000000150000Y000001089370D02*
X000000800000D01*
X000000150000Y000001189370D02*
X000000800000D01*
X000000150000Y000001289370D02*
X000000800000D01*
X000000150000Y000001389370D02*
X000000800000D01*
X000000150000Y000001589370D02*
X000000800000D01*
X000000150000Y000001689370D02*
X000000800000D01*
X000000150000Y000001789370D02*
X000000800000D01*
X000000150000Y000001889370D02*
X000000800000D01*
X000000150000Y000001989370D02*
X000000800000D01*
X000000150000Y000002089370D02*
X000000800000D01*
X000000150000Y000002189370D02*
X000000800000D01*
X000000150000Y000002289370D02*
X000000800000D01*
X000000150000Y000002389370D02*
X000000800000D01*
X000000150000Y000004089370D02*
X000000800000D01*
X000000150000Y000004189370D02*
X000000800000D01*
X000000150000Y000003189370D02*
X000000800000D01*
X000000150000Y000003289370D02*
X000000800000D01*
X000000150000Y000003389370D02*
X000000800000D01*
X000000150000Y000004289370D02*
X000000800000D01*
X000000150000Y000003889370D02*
X000000800000D01*
X000000150000Y000003989370D02*
X000000800000D01*
X000000150000Y000004689370D02*
X000000800000D01*
X000000150000Y000003789370D02*
X000000800000D01*
X000000150000Y000004589370D02*
X000000800000D01*
X000000150000Y000004989370D02*
X000000800000D01*
X000000150000Y000004389370D02*
X000000800000D01*
X000000150000Y000005089370D02*
X000000800000D01*
X000000150000Y000005189370D02*
X000000800000D01*
G54D13*
X000000034448Y000000489370D02*
X000000230118D01*
X000000034448Y000000589370D02*
X000000230118D01*
X000000034448Y000000689370D02*
X000000230118D01*
X000000034448Y000000789370D02*
X000000230118D01*
X000000034448Y000000889370D02*
X000000230118D01*
X000000034448Y000000989370D02*
X000000230118D01*
X000000034448Y000001089370D02*
X000000230118D01*
X000000034448Y000001189370D02*
X000000230118D01*
X000000034448Y000001289370D02*
X000000230118D01*
X000000034448Y000001389370D02*
X000000230118D01*
X000000034448Y000001489370D02*
X000000230118D01*
X000000034448Y000001589370D02*
X000000230118D01*
X000000034448Y000001689370D02*
X000000230118D01*
X000000034448Y000001789370D02*
X000000230118D01*
X000000034448Y000001889370D02*
X000000230118D01*
X000000034448Y000001989370D02*
X000000230118D01*
X000000034448Y000002089370D02*
X000000230118D01*
X000000034448Y000002189370D02*
X000000230118D01*
X000000034448Y000002289370D02*
X000000230118D01*
X000000034448Y000002389370D02*
X000000230118D01*
X000000034448Y000002489370D02*
X000000230118D01*
X000000034448Y000002589370D02*
X000000230118D01*
X000000034448Y000002689370D02*
X000000230118D01*
X000000034448Y000002789370D02*
X000000230118D01*
X000000034448Y000002889370D02*
X000000230118D01*
X000000034448Y000002989370D02*
X000000230118D01*
X000000034448Y000003089370D02*
X000000230118D01*
X000000034448Y000003189370D02*
X000000230118D01*
X000000034448Y000003289370D02*
X000000230118D01*
X000000034448Y000003389370D02*
X000000230118D01*
X000000034448Y000003489370D02*
X000000230118D01*
X000000034448Y000003589370D02*
X000000230118D01*
X000000034448Y000003689370D02*
X000000230118D01*
X000000034448Y000003789370D02*
X000000230118D01*
X000000034448Y000003889370D02*
X000000230118D01*
X000000034448Y000003989370D02*
X000000230118D01*
X000000034448Y000004089370D02*
X000000230118D01*
X000000034448Y000004189370D02*
X000000230118D01*
X000000034448Y000004289370D02*
X000000230118D01*
X000000034448Y000004389370D02*
X000000230118D01*
X000000034448Y000004489370D02*
X000000230118D01*
X000000034448Y000004589370D02*
X000000230118D01*
X000000034448Y000004689370D02*
X000000230118D01*
X000000034448Y000004789370D02*
X000000230118D01*
X000000034448Y000004889370D02*
X000000230118D01*
X000000034448Y000004989370D02*
X000000230118D01*
X000000034448Y000005089370D02*
X000000230118D01*
X000000034448Y000005189370D02*
X000000230118D01*
X000000034448Y000005289370D02*
X000000230118D01*
X000000034448Y000005389370D02*
X000000230118D01*
G54D14*
X000000800000Y000005289370D03*
X000000900000Y000005189370D03*
Y000005089370D03*
Y000004989370D03*
Y000003789370D03*
Y000003689370D03*
Y000003589369D03*
Y000003389370D03*
Y000003289370D03*
Y000003189370D03*
Y000003089369D03*
Y000002989370D03*
Y000002889370D03*
Y000002789370D03*
Y000002689370D03*
Y000002589369D03*
Y000002389370D03*
Y000002289370D03*
Y000002189370D03*
Y000002089369D03*
Y000001989369D03*
Y000001889370D03*
Y000001789370D03*
Y000001689369D03*
Y000001589370D03*
Y000001389370D03*
Y000001289370D03*
Y000001189369D03*
Y000001089370D03*
Y000000989370D03*
Y000000889370D03*
Y000000789370D03*
X000000800000Y000003589369D03*
Y000002589369D03*
Y000000689370D03*
Y000000589370D03*
Y000000489370D03*
Y000000789370D03*
Y000000889370D03*
Y000000989370D03*
Y000001089370D03*
Y000001189369D03*
Y000001289370D03*
Y000001389370D03*
Y000001589370D03*
Y000001689369D03*
Y000001789370D03*
Y000001889370D03*
Y000001989369D03*
Y000002089369D03*
Y000002189370D03*
Y000002289370D03*
Y000002389370D03*
Y000002789370D03*
Y000002889370D03*
Y000002989370D03*
Y000003089369D03*
Y000003189370D03*
Y000003289370D03*
Y000003389370D03*
X000000900000Y000003889370D03*
Y000003989370D03*
Y000004189370D03*
Y000004089369D03*
Y000004389370D03*
Y000004289370D03*
Y000004589370D03*
Y000004689370D03*
Y000004889370D03*
Y000004789370D03*
X000000800000Y000003789370D03*
Y000003889370D03*
Y000003989370D03*
Y000004089369D03*
Y000004189370D03*
Y000004289370D03*
Y000004389370D03*
Y000004589370D03*
Y000004689370D03*
Y000004789370D03*
Y000004889370D03*
Y000004989370D03*
Y000005089370D03*
Y000005189370D03*
M02*
