G04 WinPCB Gerber Out *
G70*
G90*
G04 CSI RS-274X *
G04 Date: 2019/03/05 *
G04 Time: 11:11:36 *
%FSDAX66Y66*%
%MOIN*%
%IPPOS*%
%ADD10C,0.005906*%
%ADD11C,0.005315*%
%ADD12C,0.006890*%
%ADD13C,0.005512*%
%ADD14C,0.055118*%
%C:\Users\user_EDA1\Documents\PC-98_C-BUS_Board\6.プリント基板\01\1-3部品面レジスト層-L1004.gbr*%
G01X000000000000Y000000000000D02*
G54D10*
X000000811850Y-000000213031D02*
X000000821653D01*
D02*
X000000825905D01*
D02*
X000000829330Y-000000205944D01*
D02*
X000000828503Y-000000198858D01*
D02*
X000000827204Y-000000190236D01*
D02*
X000000819527Y-000000175236D01*
D02*
X000000813031Y-000000168740D01*
D02*
X000000824133Y-000000127519D01*
D02*
X000000803818D01*
D02*
Y-000000246811D01*
D02*
X000000791535D01*
D02*
Y-000000115826D01*
D02*
X000000827795D01*
D02*
X000000829094Y-000000114055D01*
D02*
X000000840196Y-000000123267D01*
D02*
X000000837716Y-000000125039D01*
D02*
X000000824133Y-000000166259D01*
D02*
X000000833346Y-000000176417D01*
D02*
X000000842204Y-000000194606D01*
D02*
X000000841968Y-000000202519D01*
D02*
X000000841614Y-000000214566D01*
D02*
X000000833346Y-000000226496D01*
D02*
X000000825433D01*
D02*
X000000814330D01*
D02*
X000000811850Y-000000213031D01*
X000000773700Y-000000184094D02*
Y-000000240078D01*
D02*
X000000761417D01*
D02*
Y-000000233346D01*
D02*
X000000727637D01*
D02*
Y-000000243149D01*
D02*
X000000715354D01*
D02*
Y-000000184094D01*
D02*
X000000773700D01*
X000000727637Y-000000221653D02*
X000000761417D01*
D02*
Y-000000195787D01*
D02*
X000000727637D01*
D02*
Y-000000221653D01*
X000000751614Y-000000105433D02*
X000000754684Y-000000106023D01*
D02*
X000000754921Y-000000108503D01*
D02*
X000000752204Y-000000110275D01*
D02*
Y-000000123858D01*
D02*
X000000781141D01*
D02*
Y-000000135551D01*
D02*
X000000772519D01*
D02*
X000000763897Y-000000161299D01*
D02*
X000000787283D01*
D02*
Y-000000172992D01*
D02*
X000000702952D01*
D02*
Y-000000161299D01*
D02*
X000000726338D01*
D02*
X000000719015Y-000000135551D01*
D02*
X000000710984D01*
D02*
Y-000000123858D01*
D02*
X000000738031D01*
D02*
Y-000000105433D01*
D02*
X000000751614D01*
X000000733189Y-000000135551D02*
X000000739330Y-000000161299D01*
D02*
X000000751023D01*
D02*
X000000758346Y-000000135551D01*
D02*
X000000733189D01*
X000000898425Y-000000165078D02*
Y-000000169330D01*
D02*
X000000886141D01*
D02*
Y-000000112165D01*
D02*
X000000964921D01*
D02*
Y-000000168149D01*
D02*
X000000952637D01*
D02*
Y-000000165078D01*
D02*
X000000898425D01*
X000000952637Y-000000153385D02*
Y-000000123858D01*
D02*
X000000898425D01*
D02*
Y-000000153385D01*
D02*
X000000952637D01*
X000000947086Y-000000234527D02*
Y-000000245629D01*
D02*
X000000934803D01*
D02*
Y-000000180433D01*
D02*
X000000988897D01*
D02*
Y-000000243740D01*
D02*
X000000976614D01*
D02*
Y-000000234527D01*
D02*
X000000947086D01*
Y-000000222834D02*
X000000976614D01*
D02*
Y-000000192126D01*
D02*
X000000947086D01*
D02*
Y-000000222834D01*
X000000876929D02*
X000000906456D01*
D02*
Y-000000192126D01*
D02*
X000000876929D01*
D02*
Y-000000222834D01*
Y-000000234527D02*
Y-000000245629D01*
D02*
X000000864645D01*
D02*
Y-000000180433D01*
D02*
X000000918740D01*
D02*
Y-000000243740D01*
D02*
X000000906456D01*
D02*
Y-000000234527D01*
D02*
X000000876929D01*
X000001120236Y-000000241968D02*
Y-000000235826D01*
D02*
X000001026102D01*
D02*
Y-000000244330D01*
D02*
X000001013818D01*
D02*
Y-000000147244D01*
D02*
X000001064252D01*
D02*
X000001069212Y-000000126929D01*
D02*
X000001006378D01*
D02*
Y-000000115236D01*
D02*
X000001139842D01*
D02*
Y-000000126929D01*
D02*
X000001083267D01*
D02*
X000001076535Y-000000147244D01*
D02*
X000001132519D01*
D02*
Y-000000241968D01*
D02*
X000001120236D01*
X000001047598Y-000000158937D02*
X000001026102D01*
D02*
Y-000000224133D01*
D02*
X000001047598D01*
D02*
Y-000000158937D01*
X000001086338Y-000000208661D02*
X000001059881D01*
D02*
Y-000000224133D01*
D02*
X000001086338D01*
D02*
Y-000000208661D01*
Y-000000184685D02*
X000001059881D01*
D02*
Y-000000198858D01*
D02*
X000001086338D01*
D02*
Y-000000184685D01*
X000001059881Y-000000158937D02*
Y-000000174881D01*
D02*
X000001086338D01*
D02*
Y-000000158937D01*
D02*
X000001059881D01*
X000001098622D02*
Y-000000224133D01*
D02*
X000001120236D01*
D02*
Y-000000158937D01*
D02*
X000001098622D01*
X000001178228Y-000000218582D02*
X000001206574Y-000000213385D01*
D02*
X000001247795Y-000000184685D01*
D02*
X000001260669Y-000000161299D01*
D02*
X000001271181Y-000000171811D01*
D02*
X000001256417Y-000000197677D01*
D02*
X000001207165Y-000000229330D01*
D02*
X000001172795Y-000000235118D01*
D02*
X000001162874Y-000000227795D01*
D02*
X000001164173Y-000000224133D01*
D02*
Y-000000121968D01*
D02*
X000001177637D01*
D02*
X000001180354Y-000000122322D01*
D02*
X000001180708Y-000000124448D01*
D02*
X000001178228Y-000000126338D01*
D02*
Y-000000218582D01*
X000001409842Y-000000164488D02*
X000001394133Y-000000189645D01*
D02*
X000001345590Y-000000225315D01*
D02*
X000001312755Y-000000235826D01*
D02*
X000001311810Y-000000239488D01*
D02*
X000001308622Y-000000239724D01*
D02*
X000001306496Y-000000236417D01*
D02*
X000001297992Y-000000222834D01*
D02*
X000001331417Y-000000215511D01*
D02*
X000001381850Y-000000180787D01*
D02*
X000001398858Y-000000153385D01*
D02*
X000001409842Y-000000164488D01*
X000001315118Y-000000181023D02*
X000001305905Y-000000174291D01*
D02*
X000001290551Y-000000164488D01*
D02*
X000001284409Y-000000161299D01*
D02*
X000001293622Y-000000148425D01*
D02*
X000001301299Y-000000152440D01*
D02*
X000001317007Y-000000162362D01*
D02*
X000001325039Y-000000168149D01*
D02*
X000001315118Y-000000181023D01*
X000001333661Y-000000144763D02*
X000001325275Y-000000138976D01*
D02*
X000001309921Y-000000129055D01*
D02*
X000001302834Y-000000125039D01*
D02*
X000001310866Y-000000112165D01*
D02*
X000001319133Y-000000116771D01*
D02*
X000001334724Y-000000126692D01*
D02*
X000001342165Y-000000131889D01*
D02*
X000001333661Y-000000144763D01*
X000001384685Y-000000102952D02*
X000001389881Y-000000106968D01*
D02*
X000001400275Y-000000116417D01*
D02*
X000001405590Y-000000121968D01*
D02*
X000001397559Y-000000130000D01*
D02*
X000001392007Y-000000123858D01*
D02*
X000001381496Y-000000114055D01*
D02*
X000001376653Y-000000110275D01*
D02*
X000001384685Y-000000102952D01*
X000001369921Y-000000113346D02*
X000001375118Y-000000117716D01*
D02*
X000001385511Y-000000127519D01*
D02*
X000001390826Y-000000133070D01*
D02*
X000001382795Y-000000140393D01*
D02*
X000001377598Y-000000134960D01*
D02*
X000001366850Y-000000124803D01*
D02*
X000001361299Y-000000120196D01*
D02*
X000001369921Y-000000113346D01*
X000001498070Y-000000176771D02*
X000001511299Y-000000186929D01*
D02*
X000001537401Y-000000210196D01*
D02*
X000001550393Y-000000223425D01*
D02*
X000001538110Y-000000233937D01*
D02*
X000001525118Y-000000220472D01*
D02*
X000001500196Y-000000197677D01*
D02*
X000001488267Y-000000188464D01*
D02*
X000001476220Y-000000201338D01*
D02*
X000001448937Y-000000224370D01*
D02*
X000001433582Y-000000234527D01*
D02*
X000001421889Y-000000224133D01*
D02*
X000001454488Y-000000202874D01*
D02*
X000001496299Y-000000160472D01*
D02*
X000001505511Y-000000139212D01*
D02*
X000001438425Y-000000143464D01*
D02*
X000001436653Y-000000128818D01*
D02*
X000001507992Y-000000125629D01*
D02*
X000001515315Y-000000123858D01*
D02*
X000001525118Y-000000133661D01*
D02*
X000001527244Y-000000135905D01*
D02*
X000001526063Y-000000138622D01*
D02*
X000001522755Y-000000139212D01*
D02*
X000001516850Y-000000149370D01*
D02*
X000001504566Y-000000168149D01*
D02*
X000001498070Y-000000176771D01*
X000001590078Y-000000158937D02*
X000001605078Y-000000163307D01*
D02*
X000001635551Y-000000175000D01*
D02*
X000001650905Y-000000182322D01*
D02*
X000001643582Y-000000196378D01*
D02*
X000001627283Y-000000188110D01*
D02*
X000001600472Y-000000177126D01*
D02*
X000001590078Y-000000174291D01*
D02*
Y-000000238188D01*
D02*
X000001575905D01*
D02*
Y-000000115236D01*
D02*
X000001588189D01*
D02*
X000001591850Y-000000115590D01*
D02*
X000001592795Y-000000118070D01*
D02*
X000001590078Y-000000120196D01*
D02*
Y-000000158937D01*
G54D11*
X000000791535Y-000000246811D02*
X000000803818D01*
X000000791535Y-000000245039D02*
X000000803818D01*
X000000864645D02*
X000000876929D01*
X000000934803D02*
X000000947086D01*
X000000791535Y-000000243267D02*
X000000803818D01*
X000000864645D02*
X000000876929D01*
X000000906456D02*
X000000918740D01*
X000000934803D02*
X000000947086D01*
X000000976614D02*
X000000988897D01*
X000001013818D02*
X000001026102D01*
X000000715354Y-000000241496D02*
X000000727637D01*
X000000791535D02*
X000000803818D01*
X000000864645D02*
X000000876929D01*
X000000906456D02*
X000000918740D01*
X000000934803D02*
X000000947086D01*
X000000976614D02*
X000000988897D01*
X000001013818D02*
X000001026102D01*
X000001120236D02*
X000001132519D01*
X000000715354Y-000000239724D02*
X000000727637D01*
X000000761417D02*
X000000773700D01*
X000000791535D02*
X000000803818D01*
X000000864645D02*
X000000876929D01*
X000000906456D02*
X000000918740D01*
X000000934803D02*
X000000947086D01*
X000000976614D02*
X000000988897D01*
X000001013818D02*
X000001026102D01*
X000001120236D02*
X000001132519D01*
X000000715354Y-000000237952D02*
X000000727637D01*
X000000761417D02*
X000000773700D01*
X000000791535D02*
X000000803818D01*
X000000864645D02*
X000000876929D01*
X000000906456D02*
X000000918740D01*
X000000934803D02*
X000000947086D01*
X000000976614D02*
X000000988897D01*
X000001013818D02*
X000001026102D01*
X000001120236D02*
X000001132519D01*
X000001307483D02*
X000001312207D01*
X000001575905D02*
X000001590078D01*
X000000715354Y-000000236181D02*
X000000727637D01*
X000000761417D02*
X000000773700D01*
X000000791535D02*
X000000803818D01*
X000000864645D02*
X000000876929D01*
X000000906456D02*
X000000918740D01*
X000000934803D02*
X000000947086D01*
X000000976614D02*
X000000988897D01*
X000001013818D02*
X000001026102D01*
X000001120236D02*
X000001132519D01*
X000001306348D02*
X000001312664D01*
X000001575905D02*
X000001590078D01*
X000000715354Y-000000234409D02*
X000000727637D01*
X000000761417D02*
X000000773700D01*
X000000791535D02*
X000000803818D01*
X000000864645D02*
X000000918740D01*
X000000934803D02*
X000000988897D01*
X000001013818D02*
X000001132519D01*
X000001171835D02*
X000001177003D01*
X000001305238D02*
X000001317183D01*
X000001575905D02*
X000001590078D01*
X000000715354Y-000000232637D02*
X000000773700D01*
X000000791535D02*
X000000803818D01*
X000000864645D02*
X000000918740D01*
X000000934803D02*
X000000988897D01*
X000001013818D02*
X000001132519D01*
X000001169434D02*
X000001187525D01*
X000001304129D02*
X000001322716D01*
X000001431456D02*
X000001436439D01*
X000001536856D02*
X000001539628D01*
X000001575905D02*
X000001590078D01*
X000000715354Y-000000230866D02*
X000000773700D01*
X000000791535D02*
X000000803818D01*
X000000864645D02*
X000000918740D01*
X000000934803D02*
X000000988897D01*
X000001013818D02*
X000001132519D01*
X000001167034D02*
X000001198046D01*
X000001303020D02*
X000001328251D01*
X000001429463D02*
X000001439116D01*
X000001535147D02*
X000001541698D01*
X000001575905D02*
X000001590078D01*
X000000715354Y-000000229094D02*
X000000773700D01*
X000000791535D02*
X000000803818D01*
X000000864645D02*
X000000918740D01*
X000000934803D02*
X000000988897D01*
X000001013818D02*
X000001132519D01*
X000001164633D02*
X000001207532D01*
X000001301911D02*
X000001333784D01*
X000001427470D02*
X000001441795D01*
X000001533437D02*
X000001543768D01*
X000001575905D02*
X000001590078D01*
X000000715354Y-000000227322D02*
X000000773700D01*
X000000791535D02*
X000000803818D01*
X000000864645D02*
X000000918740D01*
X000000934803D02*
X000000988897D01*
X000001013818D02*
X000001132519D01*
X000001163041D02*
X000001210289D01*
X000001300802D02*
X000001339318D01*
X000001425477D02*
X000001444473D01*
X000001531728D02*
X000001545839D01*
X000001575905D02*
X000001590078D01*
X000000715354Y-000000225551D02*
X000000773700D01*
X000000791535D02*
X000000803818D01*
X000000814156D02*
X000000834001D01*
X000000864645D02*
X000000918740D01*
X000000934803D02*
X000000988897D01*
X000001013818D02*
X000001132519D01*
X000001163670D02*
X000001213046D01*
X000001299692D02*
X000001344852D01*
X000001423484D02*
X000001447151D01*
X000001530018D02*
X000001547909D01*
X000001575905D02*
X000001590078D01*
X000000715354Y-000000223779D02*
X000000773700D01*
X000000791535D02*
X000000803818D01*
X000000813830D02*
X000000835229D01*
X000000864645D02*
X000000918740D01*
X000000934803D02*
X000000988897D01*
X000001013818D02*
X000001026102D01*
X000001047598D02*
X000001059881D01*
X000001086338D02*
X000001098622D01*
X000001120236D02*
X000001132519D01*
X000001164173D02*
X000001215802D01*
X000001298583D02*
X000001347680D01*
X000001422432D02*
X000001449636D01*
X000001528309D02*
X000001549979D01*
X000001575905D02*
X000001590078D01*
X000000715354Y-000000222007D02*
X000000773700D01*
X000000791535D02*
X000000803818D01*
X000000813503D02*
X000000836456D01*
X000000864645D02*
X000000876929D01*
X000000906456D02*
X000000918740D01*
X000000934803D02*
X000000947086D01*
X000000976614D02*
X000000988897D01*
X000001013818D02*
X000001026102D01*
X000001047598D02*
X000001059881D01*
X000001086338D02*
X000001098622D01*
X000001120236D02*
X000001132519D01*
X000001164173D02*
X000001218559D01*
X000001301766D02*
X000001350091D01*
X000001425149D02*
X000001451735D01*
X000001526599D02*
X000001549001D01*
X000001575905D02*
X000001590078D01*
X000000715354Y-000000220236D02*
X000000727637D01*
X000000761417D02*
X000000773700D01*
X000000791535D02*
X000000803818D01*
X000000813177D02*
X000000837684D01*
X000000864645D02*
X000000876929D01*
X000000906456D02*
X000000918740D01*
X000000934803D02*
X000000947086D01*
X000000976614D02*
X000000988897D01*
X000001013818D02*
X000001026102D01*
X000001047598D02*
X000001059881D01*
X000001086338D02*
X000001098622D01*
X000001120236D02*
X000001132519D01*
X000001164173D02*
X000001221315D01*
X000001309852D02*
X000001352502D01*
X000001427865D02*
X000001453833D01*
X000001524859D02*
X000001547261D01*
X000001575905D02*
X000001590078D01*
X000000715354Y-000000218464D02*
X000000727637D01*
X000000761417D02*
X000000773700D01*
X000000791535D02*
X000000803818D01*
X000000812851D02*
X000000838913D01*
X000000864645D02*
X000000876929D01*
X000000906456D02*
X000000918740D01*
X000000934803D02*
X000000947086D01*
X000000976614D02*
X000000988897D01*
X000001013818D02*
X000001026102D01*
X000001047598D02*
X000001059881D01*
X000001086338D02*
X000001098622D01*
X000001120236D02*
X000001132519D01*
X000001164173D02*
X000001178228D01*
X000001178872D02*
X000001224072D01*
X000001317939D02*
X000001354913D01*
X000001430582D02*
X000001455932D01*
X000001522922D02*
X000001545521D01*
X000001575905D02*
X000001590078D01*
X000000715354Y-000000216692D02*
X000000727637D01*
X000000761417D02*
X000000773700D01*
X000000791535D02*
X000000803818D01*
X000000812524D02*
X000000840140D01*
X000000864645D02*
X000000876929D01*
X000000906456D02*
X000000918740D01*
X000000934803D02*
X000000947086D01*
X000000976614D02*
X000000988897D01*
X000001013818D02*
X000001026102D01*
X000001047598D02*
X000001059881D01*
X000001086338D02*
X000001098622D01*
X000001120236D02*
X000001132519D01*
X000001164173D02*
X000001178228D01*
X000001188535D02*
X000001226829D01*
X000001326026D02*
X000001357324D01*
X000001433298D02*
X000001458031D01*
X000001520986D02*
X000001543781D01*
X000001575905D02*
X000001590078D01*
X000000715354Y-000000214921D02*
X000000727637D01*
X000000761417D02*
X000000773700D01*
X000000791535D02*
X000000803818D01*
X000000812198D02*
X000000841368D01*
X000000864645D02*
X000000876929D01*
X000000906456D02*
X000000918740D01*
X000000934803D02*
X000000947086D01*
X000000976614D02*
X000000988897D01*
X000001013818D02*
X000001026102D01*
X000001047598D02*
X000001059881D01*
X000001086338D02*
X000001098622D01*
X000001120236D02*
X000001132519D01*
X000001164173D02*
X000001178228D01*
X000001198199D02*
X000001229585D01*
X000001332274D02*
X000001359735D01*
X000001436015D02*
X000001460129D01*
X000001519048D02*
X000001542041D01*
X000001575905D02*
X000001590078D01*
X000000715354Y-000000213149D02*
X000000727637D01*
X000000761417D02*
X000000773700D01*
X000000791535D02*
X000000803818D01*
X000000811871D02*
X000000841655D01*
X000000864645D02*
X000000876929D01*
X000000906456D02*
X000000918740D01*
X000000934803D02*
X000000947086D01*
X000000976614D02*
X000000988897D01*
X000001013818D02*
X000001026102D01*
X000001047598D02*
X000001059881D01*
X000001086338D02*
X000001098622D01*
X000001120236D02*
X000001132519D01*
X000001164173D02*
X000001178228D01*
X000001206913D02*
X000001232342D01*
X000001334848D02*
X000001362146D01*
X000001438731D02*
X000001462229D01*
X000001517112D02*
X000001540301D01*
X000001575905D02*
X000001590078D01*
X000000715354Y-000000211377D02*
X000000727637D01*
X000000761417D02*
X000000773700D01*
X000000791535D02*
X000000803818D01*
X000000826704D02*
X000000841707D01*
X000000864645D02*
X000000876929D01*
X000000906456D02*
X000000918740D01*
X000000934803D02*
X000000947086D01*
X000000976614D02*
X000000988897D01*
X000001013818D02*
X000001026102D01*
X000001047598D02*
X000001059881D01*
X000001086338D02*
X000001098622D01*
X000001120236D02*
X000001132519D01*
X000001164173D02*
X000001178228D01*
X000001209458D02*
X000001235099D01*
X000001337421D02*
X000001364557D01*
X000001441448D02*
X000001464327D01*
X000001515175D02*
X000001538561D01*
X000001575905D02*
X000001590078D01*
X000000715354Y-000000209606D02*
X000000727637D01*
X000000761417D02*
X000000773700D01*
X000000791535D02*
X000000803818D01*
X000000827561D02*
X000000841760D01*
X000000864645D02*
X000000876929D01*
X000000906456D02*
X000000918740D01*
X000000934803D02*
X000000947086D01*
X000000976614D02*
X000000988897D01*
X000001013818D02*
X000001026102D01*
X000001047598D02*
X000001059881D01*
X000001086338D02*
X000001098622D01*
X000001120236D02*
X000001132519D01*
X000001164173D02*
X000001178228D01*
X000001212002D02*
X000001237855D01*
X000001339994D02*
X000001366968D01*
X000001444165D02*
X000001466426D01*
X000001513238D02*
X000001536739D01*
X000001575905D02*
X000001590078D01*
X000000715354Y-000000207834D02*
X000000727637D01*
X000000761417D02*
X000000773700D01*
X000000791535D02*
X000000803818D01*
X000000828417D02*
X000000841812D01*
X000000864645D02*
X000000876929D01*
X000000906456D02*
X000000918740D01*
X000000934803D02*
X000000947086D01*
X000000976614D02*
X000000988897D01*
X000001013818D02*
X000001026102D01*
X000001047598D02*
X000001098622D01*
X000001120236D02*
X000001132519D01*
X000001164173D02*
X000001178228D01*
X000001214547D02*
X000001240612D01*
X000001342567D02*
X000001369379D01*
X000001446881D02*
X000001468525D01*
X000001511301D02*
X000001534751D01*
X000001575905D02*
X000001590078D01*
X000000715354Y-000000206063D02*
X000000727637D01*
X000000761417D02*
X000000773700D01*
X000000791535D02*
X000000803818D01*
X000000829273D02*
X000000841864D01*
X000000864645D02*
X000000876929D01*
X000000906456D02*
X000000918740D01*
X000000934803D02*
X000000947086D01*
X000000976614D02*
X000000988897D01*
X000001013818D02*
X000001026102D01*
X000001047598D02*
X000001098622D01*
X000001120236D02*
X000001132519D01*
X000001164173D02*
X000001178228D01*
X000001217091D02*
X000001243369D01*
X000001345140D02*
X000001371790D01*
X000001449598D02*
X000001470623D01*
X000001509364D02*
X000001532764D01*
X000001575905D02*
X000001590078D01*
X000000715354Y-000000204291D02*
X000000727637D01*
X000000761417D02*
X000000773700D01*
X000000791535D02*
X000000803818D01*
X000000829137D02*
X000000841916D01*
X000000864645D02*
X000000876929D01*
X000000906456D02*
X000000918740D01*
X000000934803D02*
X000000947086D01*
X000000976614D02*
X000000988897D01*
X000001013818D02*
X000001026102D01*
X000001047598D02*
X000001098622D01*
X000001120236D02*
X000001132519D01*
X000001164173D02*
X000001178228D01*
X000001219636D02*
X000001246126D01*
X000001347713D02*
X000001374202D01*
X000001452314D02*
X000001472722D01*
X000001507427D02*
X000001530776D01*
X000001575905D02*
X000001590078D01*
X000000715354Y-000000202519D02*
X000000727637D01*
X000000761417D02*
X000000773700D01*
X000000791535D02*
X000000803818D01*
X000000828930D02*
X000000841968D01*
X000000864645D02*
X000000876929D01*
X000000906456D02*
X000000918740D01*
X000000934803D02*
X000000947086D01*
X000000976614D02*
X000000988897D01*
X000001013818D02*
X000001026102D01*
X000001047598D02*
X000001098622D01*
X000001120236D02*
X000001132519D01*
X000001164173D02*
X000001178228D01*
X000001222180D02*
X000001248882D01*
X000001350286D02*
X000001376613D01*
X000001454837D02*
X000001474821D01*
X000001505490D02*
X000001528789D01*
X000001575905D02*
X000001590078D01*
X000000715354Y-000000200747D02*
X000000727637D01*
X000000761417D02*
X000000773700D01*
X000000791535D02*
X000000803818D01*
X000000828724D02*
X000000842021D01*
X000000864645D02*
X000000876929D01*
X000000906456D02*
X000000918740D01*
X000000934803D02*
X000000947086D01*
X000000976614D02*
X000000988897D01*
X000001013818D02*
X000001026102D01*
X000001047598D02*
X000001098622D01*
X000001120236D02*
X000001132519D01*
X000001164173D02*
X000001178228D01*
X000001224725D02*
X000001251639D01*
X000001352859D02*
X000001379023D01*
X000001456584D02*
X000001476772D01*
X000001503553D02*
X000001526801D01*
X000001575905D02*
X000001590078D01*
X000000715354Y-000000198976D02*
X000000727637D01*
X000000761417D02*
X000000773700D01*
X000000791535D02*
X000000803818D01*
X000000828517D02*
X000000842074D01*
X000000864645D02*
X000000876929D01*
X000000906456D02*
X000000918740D01*
X000000934803D02*
X000000947086D01*
X000000976614D02*
X000000988897D01*
X000001013818D02*
X000001026102D01*
X000001047598D02*
X000001098622D01*
X000001120236D02*
X000001132519D01*
X000001164173D02*
X000001178228D01*
X000001227269D02*
X000001254396D01*
X000001355433D02*
X000001381435D01*
X000001458331D02*
X000001478431D01*
X000001501616D02*
X000001524813D01*
X000001575905D02*
X000001590078D01*
X000000715354Y-000000197204D02*
X000000727637D01*
X000000761417D02*
X000000773700D01*
X000000791535D02*
X000000803818D01*
X000000828254D02*
X000000842127D01*
X000000864645D02*
X000000876929D01*
X000000906456D02*
X000000918740D01*
X000000934803D02*
X000000947086D01*
X000000976614D02*
X000000988897D01*
X000001013818D02*
X000001026102D01*
X000001047598D02*
X000001059881D01*
X000001086338D02*
X000001098622D01*
X000001120236D02*
X000001132519D01*
X000001164173D02*
X000001178228D01*
X000001229814D02*
X000001256687D01*
X000001358005D02*
X000001383846D01*
X000001460078D02*
X000001480088D01*
X000001499584D02*
X000001522826D01*
X000001575905D02*
X000001590078D01*
X000000715354Y-000000195433D02*
X000000773700D01*
X000000791535D02*
X000000803818D01*
X000000827987D02*
X000000842179D01*
X000000864645D02*
X000000876929D01*
X000000906456D02*
X000000918740D01*
X000000934803D02*
X000000947086D01*
X000000976614D02*
X000000988897D01*
X000001013818D02*
X000001026102D01*
X000001047598D02*
X000001059881D01*
X000001086338D02*
X000001098622D01*
X000001120236D02*
X000001132519D01*
X000001164173D02*
X000001178228D01*
X000001232358D02*
X000001257698D01*
X000001360579D02*
X000001386257D01*
X000001461825D02*
X000001481746D01*
X000001497290D02*
X000001520839D01*
X000001575905D02*
X000001590078D01*
X000001641719D02*
X000001644075D01*
X000000715354Y-000000193661D02*
X000000773700D01*
X000000791535D02*
X000000803818D01*
X000000827720D02*
X000000841744D01*
X000000864645D02*
X000000876929D01*
X000000906456D02*
X000000918740D01*
X000000934803D02*
X000000947086D01*
X000000976614D02*
X000000988897D01*
X000001013818D02*
X000001026102D01*
X000001047598D02*
X000001059881D01*
X000001086338D02*
X000001098622D01*
X000001120236D02*
X000001132519D01*
X000001164173D02*
X000001178228D01*
X000001234903D02*
X000001258709D01*
X000001363152D02*
X000001388668D01*
X000001463572D02*
X000001483404D01*
X000001494996D02*
X000001518851D01*
X000001575905D02*
X000001590078D01*
X000001638227D02*
X000001644998D01*
X000000715354Y-000000191889D02*
X000000773700D01*
X000000791535D02*
X000000803818D01*
X000000827453D02*
X000000840881D01*
X000000864645D02*
X000000918740D01*
X000000934803D02*
X000000988897D01*
X000001013818D02*
X000001026102D01*
X000001047598D02*
X000001059881D01*
X000001086338D02*
X000001098622D01*
X000001120236D02*
X000001132519D01*
X000001164173D02*
X000001178228D01*
X000001237447D02*
X000001259720D01*
X000001365725D02*
X000001391079D01*
X000001465319D02*
X000001485062D01*
X000001492702D02*
X000001516863D01*
X000001575905D02*
X000001590078D01*
X000001634734D02*
X000001645921D01*
X000000715354Y-000000190118D02*
X000000773700D01*
X000000791535D02*
X000000803818D01*
X000000827144D02*
X000000840018D01*
X000000864645D02*
X000000918740D01*
X000000934803D02*
X000000988897D01*
X000001013818D02*
X000001026102D01*
X000001047598D02*
X000001059881D01*
X000001086338D02*
X000001098622D01*
X000001120236D02*
X000001132519D01*
X000001164173D02*
X000001178228D01*
X000001239992D02*
X000001260731D01*
X000001368298D02*
X000001393490D01*
X000001467066D02*
X000001486720D01*
X000001490409D02*
X000001514876D01*
X000001575905D02*
X000001590078D01*
X000001631242D02*
X000001646844D01*
X000000715354Y-000000188346D02*
X000000773700D01*
X000000791535D02*
X000000803818D01*
X000000826237D02*
X000000839155D01*
X000000864645D02*
X000000918740D01*
X000000934803D02*
X000000988897D01*
X000001013818D02*
X000001026102D01*
X000001047598D02*
X000001059881D01*
X000001086338D02*
X000001098622D01*
X000001120236D02*
X000001132519D01*
X000001164173D02*
X000001178228D01*
X000001242536D02*
X000001261742D01*
X000001370871D02*
X000001394944D01*
X000001468813D02*
X000001512889D01*
X000001575905D02*
X000001590078D01*
X000001627748D02*
X000001647767D01*
X000000715354Y-000000186574D02*
X000000773700D01*
X000000791535D02*
X000000803818D01*
X000000825330D02*
X000000838292D01*
X000000864645D02*
X000000918740D01*
X000000934803D02*
X000000988897D01*
X000001013818D02*
X000001026102D01*
X000001047598D02*
X000001059881D01*
X000001086338D02*
X000001098622D01*
X000001120236D02*
X000001132519D01*
X000001164173D02*
X000001178228D01*
X000001245081D02*
X000001262754D01*
X000001373444D02*
X000001396051D01*
X000001470560D02*
X000001510837D01*
X000001575905D02*
X000001590078D01*
X000001623535D02*
X000001648690D01*
X000000715354Y-000000184803D02*
X000000773700D01*
X000000791535D02*
X000000803818D01*
X000000824423D02*
X000000837430D01*
X000000864645D02*
X000000918740D01*
X000000934803D02*
X000000988897D01*
X000001013818D02*
X000001026102D01*
X000001047598D02*
X000001059881D01*
X000001086338D02*
X000001098622D01*
X000001120236D02*
X000001132519D01*
X000001164173D02*
X000001178228D01*
X000001247625D02*
X000001263765D01*
X000001376017D02*
X000001397157D01*
X000001472307D02*
X000001508530D01*
X000001575905D02*
X000001590078D01*
X000001619211D02*
X000001649613D01*
X000000791535Y-000000183031D02*
X000000803818D01*
X000000823517D02*
X000000836567D01*
X000000864645D02*
X000000918740D01*
X000000934803D02*
X000000988897D01*
X000001013818D02*
X000001026102D01*
X000001047598D02*
X000001098622D01*
X000001120236D02*
X000001132519D01*
X000001164173D02*
X000001178228D01*
X000001248705D02*
X000001264776D01*
X000001378590D02*
X000001398263D01*
X000001474054D02*
X000001506223D01*
X000001575905D02*
X000001590078D01*
X000001614887D02*
X000001650536D01*
X000000791535Y-000000181259D02*
X000000803818D01*
X000000822610D02*
X000000835704D01*
X000000864645D02*
X000000918740D01*
X000000934803D02*
X000000988897D01*
X000001013818D02*
X000001026102D01*
X000001047598D02*
X000001098622D01*
X000001120236D02*
X000001132519D01*
X000001164173D02*
X000001178228D01*
X000001249680D02*
X000001265787D01*
X000001381164D02*
X000001399370D01*
X000001475801D02*
X000001503915D01*
X000001575905D02*
X000001590078D01*
X000001610562D02*
X000001648676D01*
X000000791535Y-000000179488D02*
X000000803818D01*
X000000821703D02*
X000000834841D01*
X000001013818D02*
X000001026102D01*
X000001047598D02*
X000001098622D01*
X000001120236D02*
X000001132519D01*
X000001164173D02*
X000001178228D01*
X000001250655D02*
X000001266798D01*
X000001313016D02*
X000001316301D01*
X000001382656D02*
X000001400476D01*
X000001477548D02*
X000001501608D01*
X000001575905D02*
X000001590078D01*
X000001606238D02*
X000001644961D01*
X000000791535Y-000000177716D02*
X000000803818D01*
X000000820796D02*
X000000833979D01*
X000001013818D02*
X000001026102D01*
X000001047598D02*
X000001098622D01*
X000001120236D02*
X000001132519D01*
X000001164173D02*
X000001178228D01*
X000001251631D02*
X000001267810D01*
X000001310592D02*
X000001317666D01*
X000001383756D02*
X000001401582D01*
X000001479294D02*
X000001499301D01*
X000001575905D02*
X000001590078D01*
X000001601913D02*
X000001641246D01*
X000000791535Y-000000175944D02*
X000000803818D01*
X000000819890D02*
X000000832917D01*
X000001013818D02*
X000001026102D01*
X000001047598D02*
X000001098622D01*
X000001120236D02*
X000001132519D01*
X000001164173D02*
X000001178228D01*
X000001252606D02*
X000001268821D01*
X000001308168D02*
X000001319031D01*
X000001384855D02*
X000001402688D01*
X000001481042D02*
X000001498693D01*
X000001575905D02*
X000001590078D01*
X000001596141D02*
X000001637532D01*
X000000791535Y-000000174173D02*
X000000803818D01*
X000000818464D02*
X000000831311D01*
X000001013818D02*
X000001026102D01*
X000001047598D02*
X000001059881D01*
X000001086338D02*
X000001098622D01*
X000001120236D02*
X000001132519D01*
X000001164173D02*
X000001178228D01*
X000001253581D02*
X000001269832D01*
X000001305720D02*
X000001320397D01*
X000001385955D02*
X000001403795D01*
X000001482789D02*
X000001500028D01*
X000001575905D02*
X000001633396D01*
X000000702952Y-000000172401D02*
X000000787283D01*
X000000791535D02*
X000000803818D01*
X000000816692D02*
X000000829703D01*
X000001013818D02*
X000001026102D01*
X000001047598D02*
X000001059881D01*
X000001086338D02*
X000001098622D01*
X000001120236D02*
X000001132519D01*
X000001164173D02*
X000001178228D01*
X000001254557D02*
X000001270844D01*
X000001302945D02*
X000001321762D01*
X000001387055D02*
X000001404901D01*
X000001484535D02*
X000001501363D01*
X000001575905D02*
X000001628779D01*
X000000702952Y-000000170629D02*
X000000787283D01*
X000000791535D02*
X000000803818D01*
X000000814921D02*
X000000828097D01*
X000001013818D02*
X000001026102D01*
X000001047598D02*
X000001059881D01*
X000001086338D02*
X000001098622D01*
X000001120236D02*
X000001132519D01*
X000001164173D02*
X000001178228D01*
X000001255532D02*
X000001270000D01*
X000001300170D02*
X000001323127D01*
X000001388154D02*
X000001406007D01*
X000001486283D02*
X000001502698D01*
X000001575905D02*
X000001624162D01*
X000000702952Y-000000168858D02*
X000000787283D01*
X000000791535D02*
X000000803818D01*
X000000813149D02*
X000000826490D01*
X000000886141D02*
X000000898425D01*
X000001013818D02*
X000001026102D01*
X000001047598D02*
X000001059881D01*
X000001086338D02*
X000001098622D01*
X000001120236D02*
X000001132519D01*
X000001164173D02*
X000001178228D01*
X000001256507D02*
X000001268228D01*
X000001297396D02*
X000001324493D01*
X000001389254D02*
X000001407113D01*
X000001488029D02*
X000001504033D01*
X000001575905D02*
X000001619545D01*
X000000702952Y-000000167086D02*
X000000787283D01*
X000000791535D02*
X000000803818D01*
X000000813476D02*
X000000824883D01*
X000000886141D02*
X000000898425D01*
X000000952637D02*
X000000964921D01*
X000001013818D02*
X000001026102D01*
X000001047598D02*
X000001059881D01*
X000001086338D02*
X000001098622D01*
X000001120236D02*
X000001132519D01*
X000001164173D02*
X000001178228D01*
X000001257483D02*
X000001266456D01*
X000001294620D02*
X000001323564D01*
X000001390354D02*
X000001408220D01*
X000001489777D02*
X000001505262D01*
X000001575905D02*
X000001614928D01*
X000000702952Y-000000165315D02*
X000000787283D01*
X000000791535D02*
X000000803818D01*
X000000813953D02*
X000000824445D01*
X000000886141D02*
X000000898425D01*
X000000952637D02*
X000000964921D01*
X000001013818D02*
X000001026102D01*
X000001047598D02*
X000001059881D01*
X000001086338D02*
X000001098622D01*
X000001120236D02*
X000001132519D01*
X000001164173D02*
X000001178228D01*
X000001258458D02*
X000001264684D01*
X000001291846D02*
X000001321105D01*
X000001391453D02*
X000001409326D01*
X000001491523D02*
X000001506420D01*
X000001575905D02*
X000001610311D01*
X000000702952Y-000000163543D02*
X000000787283D01*
X000000791535D02*
X000000803818D01*
X000000814431D02*
X000000825028D01*
X000000886141D02*
X000000964921D01*
X000001013818D02*
X000001026102D01*
X000001047598D02*
X000001059881D01*
X000001086338D02*
X000001098622D01*
X000001120236D02*
X000001132519D01*
X000001164173D02*
X000001178228D01*
X000001259433D02*
X000001262913D01*
X000001288731D02*
X000001318646D01*
X000001392553D02*
X000001408907D01*
X000001493270D02*
X000001507579D01*
X000001575905D02*
X000001605694D01*
X000000702952Y-000000161771D02*
X000000787283D01*
X000000791535D02*
X000000803818D01*
X000000814908D02*
X000000825612D01*
X000000886141D02*
X000000964921D01*
X000001013818D02*
X000001026102D01*
X000001047598D02*
X000001059881D01*
X000001086338D02*
X000001098622D01*
X000001120236D02*
X000001132519D01*
X000001164173D02*
X000001178228D01*
X000001285319D02*
X000001316072D01*
X000001393653D02*
X000001407154D01*
X000001495018D02*
X000001508738D01*
X000001575905D02*
X000001599808D01*
X000000725968Y-000000160000D02*
X000000739020D01*
X000000751393D02*
X000000764332D01*
X000000791535D02*
X000000803818D01*
X000000815385D02*
X000000826196D01*
X000000886141D02*
X000000964921D01*
X000001013818D02*
X000001026102D01*
X000001047598D02*
X000001059881D01*
X000001086338D02*
X000001098622D01*
X000001120236D02*
X000001132519D01*
X000001164173D02*
X000001178228D01*
X000001285339D02*
X000001313267D01*
X000001394752D02*
X000001405402D01*
X000001496503D02*
X000001509897D01*
X000001575905D02*
X000001593727D01*
X000000725465Y-000000158228D02*
X000000738598D01*
X000000751896D02*
X000000764925D01*
X000000791535D02*
X000000803818D01*
X000000815863D02*
X000000826779D01*
X000000886141D02*
X000000964921D01*
X000001013818D02*
X000001132519D01*
X000001164173D02*
X000001178228D01*
X000001286607D02*
X000001310462D01*
X000001395852D02*
X000001403649D01*
X000001497271D02*
X000001511056D01*
X000001575905D02*
X000001590078D01*
X000000724961Y-000000156456D02*
X000000738175D01*
X000000752400D02*
X000000765518D01*
X000000791535D02*
X000000803818D01*
X000000816339D02*
X000000827364D01*
X000000886141D02*
X000000964921D01*
X000001013818D02*
X000001132519D01*
X000001164173D02*
X000001178228D01*
X000001287874D02*
X000001307657D01*
X000001396952D02*
X000001401896D01*
X000001498039D02*
X000001512215D01*
X000001575905D02*
X000001590078D01*
X000000724457Y-000000154685D02*
X000000737752D01*
X000000752904D02*
X000000766112D01*
X000000791535D02*
X000000803818D01*
X000000816816D02*
X000000827947D01*
X000000886141D02*
X000000964921D01*
X000001013818D02*
X000001132519D01*
X000001164173D02*
X000001178228D01*
X000001289142D02*
X000001304852D01*
X000001398051D02*
X000001400143D01*
X000001498807D02*
X000001513374D01*
X000001575905D02*
X000001590078D01*
X000000723953Y-000000152913D02*
X000000737330D01*
X000000753408D02*
X000000766705D01*
X000000791535D02*
X000000803818D01*
X000000817294D02*
X000000828531D01*
X000000886141D02*
X000000898425D01*
X000000952637D02*
X000000964921D01*
X000001013818D02*
X000001132519D01*
X000001164173D02*
X000001178228D01*
X000001290410D02*
X000001302047D01*
X000001499574D02*
X000001514532D01*
X000001575905D02*
X000001590078D01*
X000000723449Y-000000151141D02*
X000000736907D01*
X000000753912D02*
X000000767299D01*
X000000791535D02*
X000000803818D01*
X000000817771D02*
X000000829115D01*
X000000886141D02*
X000000898425D01*
X000000952637D02*
X000000964921D01*
X000001013818D02*
X000001132519D01*
X000001164173D02*
X000001178228D01*
X000001291678D02*
X000001298815D01*
X000001500342D02*
X000001515691D01*
X000001575905D02*
X000001590078D01*
X000000722945Y-000000149370D02*
X000000736485D01*
X000000754416D02*
X000000767892D01*
X000000791535D02*
X000000803818D01*
X000000818248D02*
X000000829698D01*
X000000886141D02*
X000000898425D01*
X000000952637D02*
X000000964921D01*
X000001013818D02*
X000001132519D01*
X000001164173D02*
X000001178228D01*
X000001292945D02*
X000001295428D01*
X000001501110D02*
X000001516850D01*
X000001575905D02*
X000001590078D01*
X000000722441Y-000000147598D02*
X000000736062D01*
X000000754919D02*
X000000768485D01*
X000000791535D02*
X000000803818D01*
X000000818726D02*
X000000830283D01*
X000000886141D02*
X000000898425D01*
X000000952637D02*
X000000964921D01*
X000001013818D02*
X000001132519D01*
X000001164173D02*
X000001178228D01*
X000001501877D02*
X000001517880D01*
X000001575905D02*
X000001590078D01*
X000000721938Y-000000145826D02*
X000000735639D01*
X000000755424D02*
X000000769078D01*
X000000791535D02*
X000000803818D01*
X000000819202D02*
X000000830866D01*
X000000886141D02*
X000000898425D01*
X000000952637D02*
X000000964921D01*
X000001064598D02*
X000001077005D01*
X000001164173D02*
X000001178228D01*
X000001502645D02*
X000001518910D01*
X000001575905D02*
X000001590078D01*
X000000721434Y-000000144055D02*
X000000735217D01*
X000000755928D02*
X000000769672D01*
X000000791535D02*
X000000803818D01*
X000000819679D02*
X000000831450D01*
X000000886141D02*
X000000898425D01*
X000000952637D02*
X000000964921D01*
X000001065030D02*
X000001077592D01*
X000001164173D02*
X000001178228D01*
X000001332634D02*
X000001334129D01*
X000001503413D02*
X000001519940D01*
X000001575905D02*
X000001590078D01*
X000000720930Y-000000142283D02*
X000000734794D01*
X000000756431D02*
X000000770265D01*
X000000791535D02*
X000000803818D01*
X000000820157D02*
X000000832034D01*
X000000886141D02*
X000000898425D01*
X000000952637D02*
X000000964921D01*
X000001065463D02*
X000001078179D01*
X000001164173D02*
X000001178228D01*
X000001330067D02*
X000001335299D01*
X000001438282D02*
X000001457059D01*
X000001504181D02*
X000001520970D01*
X000001575905D02*
X000001590078D01*
X000000720426Y-000000140511D02*
X000000734372D01*
X000000756935D02*
X000000770858D01*
X000000791535D02*
X000000803818D01*
X000000820634D02*
X000000832618D01*
X000000886141D02*
X000000898425D01*
X000000952637D02*
X000000964921D01*
X000001065895D02*
X000001078766D01*
X000001164173D02*
X000001178228D01*
X000001327500D02*
X000001336470D01*
X000001438068D02*
X000001485013D01*
X000001504948D02*
X000001522000D01*
X000001575905D02*
X000001590078D01*
X000000719922Y-000000138740D02*
X000000733949D01*
X000000757439D02*
X000000771451D01*
X000000791535D02*
X000000803818D01*
X000000821111D02*
X000000833201D01*
X000000886141D02*
X000000898425D01*
X000000952637D02*
X000000964921D01*
X000001066328D02*
X000001079353D01*
X000001164173D02*
X000001178228D01*
X000001324909D02*
X000001337640D01*
X000001381213D02*
X000001384608D01*
X000001437853D02*
X000001525401D01*
X000001575905D02*
X000001590078D01*
X000000719418Y-000000136968D02*
X000000733526D01*
X000000757943D02*
X000000772044D01*
X000000791535D02*
X000000803818D01*
X000000821589D02*
X000000833785D01*
X000000886141D02*
X000000898425D01*
X000000952637D02*
X000000964921D01*
X000001066761D02*
X000001079940D01*
X000001164173D02*
X000001178228D01*
X000001322168D02*
X000001338810D01*
X000001379518D02*
X000001386552D01*
X000001437639D02*
X000001526781D01*
X000001575905D02*
X000001590078D01*
X000000710984Y-000000135196D02*
X000000781141D01*
X000000791535D02*
X000000803818D01*
X000000822065D02*
X000000834369D01*
X000000886141D02*
X000000898425D01*
X000000952637D02*
X000000964921D01*
X000001067193D02*
X000001080528D01*
X000001164173D02*
X000001178228D01*
X000001319426D02*
X000001339980D01*
X000001377824D02*
X000001388495D01*
X000001437424D02*
X000001526572D01*
X000001575905D02*
X000001590078D01*
X000000710984Y-000000133425D02*
X000000781141D01*
X000000791535D02*
X000000803818D01*
X000000822542D02*
X000000834952D01*
X000000886141D02*
X000000898425D01*
X000000952637D02*
X000000964921D01*
X000001067626D02*
X000001081114D01*
X000001164173D02*
X000001178228D01*
X000001316684D02*
X000001341151D01*
X000001375973D02*
X000001390437D01*
X000001437210D02*
X000001524881D01*
X000001575905D02*
X000001590078D01*
X000000710984Y-000000131653D02*
X000000781141D01*
X000000791535D02*
X000000803818D01*
X000000823020D02*
X000000835537D01*
X000000886141D02*
X000000898425D01*
X000000952637D02*
X000000964921D01*
X000001068058D02*
X000001081702D01*
X000001164173D02*
X000001178228D01*
X000001313942D02*
X000001341827D01*
X000001374098D02*
X000001389469D01*
X000001436996D02*
X000001523110D01*
X000001575905D02*
X000001590078D01*
X000000710984Y-000000129881D02*
X000000781141D01*
X000000791535D02*
X000000803818D01*
X000000823497D02*
X000000836120D01*
X000000886141D02*
X000000898425D01*
X000000952637D02*
X000000964921D01*
X000001068491D02*
X000001082289D01*
X000001164173D02*
X000001178228D01*
X000001311200D02*
X000001339290D01*
X000001372224D02*
X000001387773D01*
X000001436781D02*
X000001521338D01*
X000001575905D02*
X000001590078D01*
X000000710984Y-000000128110D02*
X000000781141D01*
X000000791535D02*
X000000803818D01*
X000000823974D02*
X000000836704D01*
X000000886141D02*
X000000898425D01*
X000000952637D02*
X000000964921D01*
X000001068924D02*
X000001082876D01*
X000001164173D02*
X000001178228D01*
X000001308253D02*
X000001336753D01*
X000001370349D02*
X000001386077D01*
X000001395851D02*
X000001399448D01*
X000001452506D02*
X000001519566D01*
X000001575905D02*
X000001590078D01*
X000000710984Y-000000126338D02*
X000000781141D01*
X000000791535D02*
X000000837288D01*
X000000886141D02*
X000000898425D01*
X000000952637D02*
X000000964921D01*
X000001006378D02*
X000001139842D01*
X000001164173D02*
X000001178228D01*
X000001305127D02*
X000001334167D01*
X000001368475D02*
X000001384259D01*
X000001394249D02*
X000001401220D01*
X000001492138D02*
X000001517795D01*
X000001575905D02*
X000001590078D01*
X000000710984Y-000000124566D02*
X000000781141D01*
X000000791535D02*
X000000838377D01*
X000000886141D02*
X000000898425D01*
X000000952637D02*
X000000964921D01*
X000001006378D02*
X000001139842D01*
X000001164173D02*
X000001180553D01*
X000001303129D02*
X000001331383D01*
X000001366565D02*
X000001382380D01*
X000001392648D02*
X000001402992D01*
X000001512385D02*
X000001516023D01*
X000001575905D02*
X000001590078D01*
X000000738031Y-000000122795D02*
X000000752204D01*
X000000791535D02*
X000000839627D01*
X000000886141D02*
X000000964921D01*
X000001006378D02*
X000001139842D01*
X000001164173D02*
X000001180432D01*
X000001304234D02*
X000001328599D01*
X000001364430D02*
X000001380502D01*
X000001390868D02*
X000001404763D01*
X000001575905D02*
X000001590078D01*
X000000738031Y-000000121023D02*
X000000752204D01*
X000000791535D02*
X000000837492D01*
X000000886141D02*
X000000964921D01*
X000001006378D02*
X000001139842D01*
X000001305340D02*
X000001325815D01*
X000001362295D02*
X000001378624D01*
X000001388968D02*
X000001404685D01*
X000001575905D02*
X000001590078D01*
X000000738031Y-000000119252D02*
X000000752204D01*
X000000791535D02*
X000000835357D01*
X000000886141D02*
X000000964921D01*
X000001006378D02*
X000001139842D01*
X000001306444D02*
X000001323031D01*
X000001362488D02*
X000001376746D01*
X000001387068D02*
X000001402989D01*
X000001575905D02*
X000001591285D01*
X000000738031Y-000000117480D02*
X000000752204D01*
X000000791535D02*
X000000833222D01*
X000000886141D02*
X000000964921D01*
X000001006378D02*
X000001139842D01*
X000001307550D02*
X000001320247D01*
X000001364718D02*
X000001374837D01*
X000001385168D02*
X000001401293D01*
X000001575905D02*
X000001592570D01*
X000000738031Y-000000115708D02*
X000000752204D01*
X000000827881D02*
X000000831087D01*
X000000886141D02*
X000000964921D01*
X000001006378D02*
X000001139842D01*
X000001308655D02*
X000001317226D01*
X000001366948D02*
X000001372730D01*
X000001383268D02*
X000001399496D01*
X000001575905D02*
X000001591895D01*
X000000738031Y-000000113937D02*
X000000752204D01*
X000000886141D02*
X000000964921D01*
X000001309760D02*
X000001314045D01*
X000001369177D02*
X000001370623D01*
X000001381344D02*
X000001397547D01*
X000000738031Y-000000112165D02*
X000000752204D01*
X000001379074D02*
X000001395598D01*
X000000738031Y-000000110393D02*
X000000752204D01*
X000001376804D02*
X000001393649D01*
X000000738031Y-000000108622D02*
X000000754739D01*
X000001378466D02*
X000001391700D01*
X000000738031Y-000000106850D02*
X000000754763D01*
X000001380410D02*
X000001389728D01*
X000001382353Y-000000105078D02*
X000001387436D01*
G54D12*
X000000003444Y000000520374D02*
X000000265551D01*
D02*
X000000267173Y000000520331D01*
D02*
X000000268792Y000000520204D01*
D02*
X000000270401Y000000519992D01*
D02*
X000000271997Y000000519696D01*
D02*
X000000273575Y000000519317D01*
D02*
X000000275131Y000000518856D01*
D02*
X000000276661Y000000518314D01*
D02*
X000000278161Y000000517693D01*
D02*
X000000279626Y000000516994D01*
D02*
X000000281053Y000000516220D01*
D02*
X000000282437Y000000515371D01*
D02*
X000000283774Y000000514452D01*
D02*
X000000285062Y000000513464D01*
D02*
X000000286296Y000000512410D01*
D02*
X000000287474Y000000511293D01*
D02*
X000000288591Y000000510115D01*
D02*
X000000289645Y000000508881D01*
D02*
X000000290633Y000000507593D01*
D02*
X000000291553Y000000506255D01*
D02*
X000000292401Y000000504872D01*
D02*
X000000293176Y000000503445D01*
D02*
X000000293874Y000000501980D01*
D02*
X000000294495Y000000500480D01*
D02*
X000000295037Y000000498950D01*
D02*
X000000295498Y000000497394D01*
D02*
X000000295877Y000000495816D01*
D02*
X000000296173Y000000494220D01*
D02*
X000000296385Y000000492610D01*
D02*
X000000296512Y000000490992D01*
D02*
X000000296555Y000000489370D01*
D02*
X000000296512Y000000487747D01*
D02*
X000000296385Y000000486129D01*
D02*
X000000296173Y000000484520D01*
D02*
X000000295877Y000000482923D01*
D02*
X000000295498Y000000481345D01*
D02*
X000000295037Y000000479789D01*
D02*
X000000294495Y000000478259D01*
D02*
X000000293874Y000000476759D01*
D02*
X000000293176Y000000475294D01*
D02*
X000000292401Y000000473868D01*
D02*
X000000291553Y000000472484D01*
D02*
X000000290633Y000000471146D01*
D02*
X000000289645Y000000469858D01*
D02*
X000000288591Y000000468624D01*
D02*
X000000287474Y000000467446D01*
D02*
X000000286296Y000000466329D01*
D02*
X000000285062Y000000465275D01*
D02*
X000000283774Y000000464287D01*
D02*
X000000282437Y000000463368D01*
D02*
X000000281053Y000000462519D01*
D02*
X000000279626Y000000461745D01*
D02*
X000000278161Y000000461046D01*
D02*
X000000276661Y000000460425D01*
D02*
X000000275131Y000000459883D01*
D02*
X000000273575Y000000459422D01*
D02*
X000000271997Y000000459043D01*
D02*
X000000270401Y000000458748D01*
D02*
X000000268792Y000000458535D01*
D02*
X000000267173Y000000458408D01*
D02*
X000000265551Y000000458366D01*
D02*
X000000003444D01*
D02*
Y000000520374D01*
Y000000620374D02*
X000000265551D01*
D02*
X000000267173Y000000620331D01*
D02*
X000000268792Y000000620204D01*
D02*
X000000270401Y000000619992D01*
D02*
X000000271997Y000000619696D01*
D02*
X000000273575Y000000619317D01*
D02*
X000000275131Y000000618856D01*
D02*
X000000276661Y000000618314D01*
D02*
X000000278161Y000000617693D01*
D02*
X000000279626Y000000616994D01*
D02*
X000000281053Y000000616220D01*
D02*
X000000282437Y000000615371D01*
D02*
X000000283774Y000000614452D01*
D02*
X000000285062Y000000613464D01*
D02*
X000000286296Y000000612410D01*
D02*
X000000287474Y000000611293D01*
D02*
X000000288591Y000000610115D01*
D02*
X000000289645Y000000608881D01*
D02*
X000000290633Y000000607593D01*
D02*
X000000291553Y000000606255D01*
D02*
X000000292401Y000000604872D01*
D02*
X000000293176Y000000603445D01*
D02*
X000000293874Y000000601980D01*
D02*
X000000294495Y000000600480D01*
D02*
X000000295037Y000000598950D01*
D02*
X000000295498Y000000597394D01*
D02*
X000000295877Y000000595816D01*
D02*
X000000296173Y000000594220D01*
D02*
X000000296385Y000000592611D01*
D02*
X000000296512Y000000590992D01*
D02*
X000000296555Y000000589370D01*
D02*
X000000296512Y000000587747D01*
D02*
X000000296385Y000000586129D01*
D02*
X000000296173Y000000584520D01*
D02*
X000000295877Y000000582924D01*
D02*
X000000295498Y000000581345D01*
D02*
X000000295037Y000000579789D01*
D02*
X000000294495Y000000578259D01*
D02*
X000000293874Y000000576759D01*
D02*
X000000293176Y000000575294D01*
D02*
X000000292401Y000000573868D01*
D02*
X000000291553Y000000572484D01*
D02*
X000000290633Y000000571146D01*
D02*
X000000289645Y000000569858D01*
D02*
X000000288591Y000000568624D01*
D02*
X000000287474Y000000567446D01*
D02*
X000000286296Y000000566329D01*
D02*
X000000285062Y000000565275D01*
D02*
X000000283774Y000000564287D01*
D02*
X000000282437Y000000563368D01*
D02*
X000000281053Y000000562519D01*
D02*
X000000279626Y000000561745D01*
D02*
X000000278161Y000000561046D01*
D02*
X000000276661Y000000560425D01*
D02*
X000000275131Y000000559883D01*
D02*
X000000273575Y000000559422D01*
D02*
X000000271997Y000000559043D01*
D02*
X000000270401Y000000558748D01*
D02*
X000000268792Y000000558535D01*
D02*
X000000267173Y000000558408D01*
D02*
X000000265551Y000000558366D01*
D02*
X000000003444D01*
D02*
Y000000620374D01*
Y000000720374D02*
X000000265551D01*
D02*
X000000267173Y000000720331D01*
D02*
X000000268792Y000000720204D01*
D02*
X000000270401Y000000719992D01*
D02*
X000000271997Y000000719696D01*
D02*
X000000273575Y000000719317D01*
D02*
X000000275131Y000000718856D01*
D02*
X000000276661Y000000718314D01*
D02*
X000000278161Y000000717693D01*
D02*
X000000279626Y000000716994D01*
D02*
X000000281053Y000000716220D01*
D02*
X000000282437Y000000715372D01*
D02*
X000000283774Y000000714452D01*
D02*
X000000285062Y000000713464D01*
D02*
X000000286296Y000000712410D01*
D02*
X000000287474Y000000711293D01*
D02*
X000000288591Y000000710115D01*
D02*
X000000289645Y000000708881D01*
D02*
X000000290633Y000000707593D01*
D02*
X000000291553Y000000706255D01*
D02*
X000000292401Y000000704872D01*
D02*
X000000293176Y000000703445D01*
D02*
X000000293874Y000000701980D01*
D02*
X000000294495Y000000700480D01*
D02*
X000000295037Y000000698950D01*
D02*
X000000295498Y000000697394D01*
D02*
X000000295877Y000000695816D01*
D02*
X000000296173Y000000694220D01*
D02*
X000000296385Y000000692611D01*
D02*
X000000296512Y000000690992D01*
D02*
X000000296555Y000000689370D01*
D02*
X000000296512Y000000687747D01*
D02*
X000000296385Y000000686129D01*
D02*
X000000296173Y000000684520D01*
D02*
X000000295877Y000000682924D01*
D02*
X000000295498Y000000681345D01*
D02*
X000000295037Y000000679789D01*
D02*
X000000294495Y000000678259D01*
D02*
X000000293874Y000000676759D01*
D02*
X000000293176Y000000675294D01*
D02*
X000000292401Y000000673868D01*
D02*
X000000291553Y000000672484D01*
D02*
X000000290633Y000000671146D01*
D02*
X000000289645Y000000669858D01*
D02*
X000000288591Y000000668624D01*
D02*
X000000287474Y000000667446D01*
D02*
X000000286296Y000000666329D01*
D02*
X000000285062Y000000665275D01*
D02*
X000000283774Y000000664287D01*
D02*
X000000282437Y000000663368D01*
D02*
X000000281053Y000000662519D01*
D02*
X000000279626Y000000661745D01*
D02*
X000000278161Y000000661046D01*
D02*
X000000276661Y000000660425D01*
D02*
X000000275131Y000000659883D01*
D02*
X000000273575Y000000659422D01*
D02*
X000000271997Y000000659043D01*
D02*
X000000270401Y000000658748D01*
D02*
X000000268792Y000000658535D01*
D02*
X000000267173Y000000658408D01*
D02*
X000000265551Y000000658366D01*
D02*
X000000003444D01*
D02*
Y000000720374D01*
Y000000820374D02*
X000000265551D01*
D02*
X000000267173Y000000820331D01*
D02*
X000000268792Y000000820204D01*
D02*
X000000270401Y000000819992D01*
D02*
X000000271997Y000000819696D01*
D02*
X000000273575Y000000819317D01*
D02*
X000000275131Y000000818856D01*
D02*
X000000276661Y000000818314D01*
D02*
X000000278161Y000000817693D01*
D02*
X000000279626Y000000816994D01*
D02*
X000000281053Y000000816220D01*
D02*
X000000282437Y000000815372D01*
D02*
X000000283774Y000000814452D01*
D02*
X000000285062Y000000813464D01*
D02*
X000000286296Y000000812410D01*
D02*
X000000287474Y000000811293D01*
D02*
X000000288591Y000000810115D01*
D02*
X000000289645Y000000808881D01*
D02*
X000000290633Y000000807593D01*
D02*
X000000291553Y000000806255D01*
D02*
X000000292401Y000000804871D01*
D02*
X000000293176Y000000803445D01*
D02*
X000000293874Y000000801980D01*
D02*
X000000294495Y000000800480D01*
D02*
X000000295037Y000000798950D01*
D02*
X000000295498Y000000797394D01*
D02*
X000000295877Y000000795816D01*
D02*
X000000296173Y000000794220D01*
D02*
X000000296385Y000000792611D01*
D02*
X000000296512Y000000790992D01*
D02*
X000000296555Y000000789370D01*
D02*
X000000296512Y000000787747D01*
D02*
X000000296385Y000000786129D01*
D02*
X000000296173Y000000784520D01*
D02*
X000000295877Y000000782924D01*
D02*
X000000295498Y000000781345D01*
D02*
X000000295037Y000000779789D01*
D02*
X000000294495Y000000778259D01*
D02*
X000000293874Y000000776759D01*
D02*
X000000293176Y000000775294D01*
D02*
X000000292401Y000000773868D01*
D02*
X000000291553Y000000772484D01*
D02*
X000000290633Y000000771146D01*
D02*
X000000289645Y000000769858D01*
D02*
X000000288591Y000000768624D01*
D02*
X000000287474Y000000767446D01*
D02*
X000000286296Y000000766329D01*
D02*
X000000285062Y000000765275D01*
D02*
X000000283774Y000000764287D01*
D02*
X000000282437Y000000763368D01*
D02*
X000000281053Y000000762519D01*
D02*
X000000279626Y000000761745D01*
D02*
X000000278161Y000000761046D01*
D02*
X000000276661Y000000760425D01*
D02*
X000000275131Y000000759883D01*
D02*
X000000273575Y000000759422D01*
D02*
X000000271997Y000000759043D01*
D02*
X000000270401Y000000758748D01*
D02*
X000000268792Y000000758535D01*
D02*
X000000267173Y000000758408D01*
D02*
X000000265551Y000000758366D01*
D02*
X000000003444D01*
D02*
Y000000820374D01*
Y000000920374D02*
X000000265551D01*
D02*
X000000267173Y000000920331D01*
D02*
X000000268792Y000000920204D01*
D02*
X000000270401Y000000919992D01*
D02*
X000000271997Y000000919696D01*
D02*
X000000273575Y000000919317D01*
D02*
X000000275131Y000000918856D01*
D02*
X000000276661Y000000918314D01*
D02*
X000000278161Y000000917693D01*
D02*
X000000279626Y000000916994D01*
D02*
X000000281053Y000000916220D01*
D02*
X000000282437Y000000915372D01*
D02*
X000000283774Y000000914452D01*
D02*
X000000285062Y000000913464D01*
D02*
X000000286296Y000000912410D01*
D02*
X000000287474Y000000911293D01*
D02*
X000000288591Y000000910115D01*
D02*
X000000289645Y000000908881D01*
D02*
X000000290633Y000000907593D01*
D02*
X000000291553Y000000906255D01*
D02*
X000000292401Y000000904872D01*
D02*
X000000293176Y000000903445D01*
D02*
X000000293874Y000000901980D01*
D02*
X000000294495Y000000900480D01*
D02*
X000000295037Y000000898950D01*
D02*
X000000295498Y000000897394D01*
D02*
X000000295877Y000000895816D01*
D02*
X000000296173Y000000894220D01*
D02*
X000000296385Y000000892611D01*
D02*
X000000296512Y000000890992D01*
D02*
X000000296555Y000000889370D01*
D02*
X000000296512Y000000887747D01*
D02*
X000000296385Y000000886129D01*
D02*
X000000296173Y000000884520D01*
D02*
X000000295877Y000000882923D01*
D02*
X000000295498Y000000881345D01*
D02*
X000000295037Y000000879789D01*
D02*
X000000294495Y000000878259D01*
D02*
X000000293874Y000000876759D01*
D02*
X000000293176Y000000875294D01*
D02*
X000000292401Y000000873868D01*
D02*
X000000291553Y000000872484D01*
D02*
X000000290633Y000000871146D01*
D02*
X000000289645Y000000869858D01*
D02*
X000000288591Y000000868624D01*
D02*
X000000287474Y000000867446D01*
D02*
X000000286296Y000000866329D01*
D02*
X000000285062Y000000865275D01*
D02*
X000000283774Y000000864287D01*
D02*
X000000282437Y000000863368D01*
D02*
X000000281053Y000000862519D01*
D02*
X000000279626Y000000861745D01*
D02*
X000000278161Y000000861046D01*
D02*
X000000276661Y000000860425D01*
D02*
X000000275131Y000000859883D01*
D02*
X000000273575Y000000859422D01*
D02*
X000000271997Y000000859043D01*
D02*
X000000270401Y000000858748D01*
D02*
X000000268792Y000000858535D01*
D02*
X000000267173Y000000858408D01*
D02*
X000000265551Y000000858366D01*
D02*
X000000003444D01*
D02*
Y000000920374D01*
Y000001020374D02*
X000000265551D01*
D02*
X000000267173Y000001020331D01*
D02*
X000000268792Y000001020204D01*
D02*
X000000270401Y000001019992D01*
D02*
X000000271997Y000001019696D01*
D02*
X000000273575Y000001019317D01*
D02*
X000000275131Y000001018856D01*
D02*
X000000276661Y000001018314D01*
D02*
X000000278161Y000001017693D01*
D02*
X000000279626Y000001016994D01*
D02*
X000000281053Y000001016220D01*
D02*
X000000282437Y000001015371D01*
D02*
X000000283774Y000001014452D01*
D02*
X000000285062Y000001013464D01*
D02*
X000000286296Y000001012410D01*
D02*
X000000287474Y000001011293D01*
D02*
X000000288591Y000001010115D01*
D02*
X000000289645Y000001008881D01*
D02*
X000000290633Y000001007593D01*
D02*
X000000291553Y000001006255D01*
D02*
X000000292401Y000001004872D01*
D02*
X000000293176Y000001003445D01*
D02*
X000000293874Y000001001980D01*
D02*
X000000294495Y000001000480D01*
D02*
X000000295037Y000000998950D01*
D02*
X000000295498Y000000997394D01*
D02*
X000000295877Y000000995816D01*
D02*
X000000296173Y000000994220D01*
D02*
X000000296385Y000000992611D01*
D02*
X000000296512Y000000990992D01*
D02*
X000000296555Y000000989370D01*
D02*
X000000296512Y000000987747D01*
D02*
X000000296385Y000000986129D01*
D02*
X000000296173Y000000984520D01*
D02*
X000000295877Y000000982924D01*
D02*
X000000295498Y000000981345D01*
D02*
X000000295037Y000000979789D01*
D02*
X000000294495Y000000978259D01*
D02*
X000000293874Y000000976759D01*
D02*
X000000293176Y000000975294D01*
D02*
X000000292401Y000000973868D01*
D02*
X000000291553Y000000972484D01*
D02*
X000000290633Y000000971146D01*
D02*
X000000289645Y000000969858D01*
D02*
X000000288591Y000000968624D01*
D02*
X000000287474Y000000967446D01*
D02*
X000000286296Y000000966329D01*
D02*
X000000285062Y000000965275D01*
D02*
X000000283774Y000000964287D01*
D02*
X000000282437Y000000963368D01*
D02*
X000000281053Y000000962519D01*
D02*
X000000279626Y000000961745D01*
D02*
X000000278161Y000000961046D01*
D02*
X000000276661Y000000960425D01*
D02*
X000000275131Y000000959883D01*
D02*
X000000273575Y000000959422D01*
D02*
X000000271997Y000000959043D01*
D02*
X000000270401Y000000958748D01*
D02*
X000000268792Y000000958535D01*
D02*
X000000267173Y000000958408D01*
D02*
X000000265551Y000000958366D01*
D02*
X000000003444D01*
D02*
Y000001020374D01*
Y000001120374D02*
X000000265551D01*
D02*
X000000267173Y000001120331D01*
D02*
X000000268792Y000001120204D01*
D02*
X000000270401Y000001119992D01*
D02*
X000000271997Y000001119696D01*
D02*
X000000273575Y000001119317D01*
D02*
X000000275131Y000001118856D01*
D02*
X000000276661Y000001118314D01*
D02*
X000000278161Y000001117693D01*
D02*
X000000279626Y000001116994D01*
D02*
X000000281053Y000001116220D01*
D02*
X000000282437Y000001115372D01*
D02*
X000000283774Y000001114452D01*
D02*
X000000285062Y000001113464D01*
D02*
X000000286296Y000001112410D01*
D02*
X000000287474Y000001111293D01*
D02*
X000000288591Y000001110115D01*
D02*
X000000289645Y000001108881D01*
D02*
X000000290633Y000001107593D01*
D02*
X000000291553Y000001106255D01*
D02*
X000000292401Y000001104872D01*
D02*
X000000293176Y000001103445D01*
D02*
X000000293874Y000001101980D01*
D02*
X000000294495Y000001100480D01*
D02*
X000000295037Y000001098950D01*
D02*
X000000295498Y000001097394D01*
D02*
X000000295877Y000001095816D01*
D02*
X000000296173Y000001094220D01*
D02*
X000000296385Y000001092611D01*
D02*
X000000296512Y000001090992D01*
D02*
X000000296555Y000001089370D01*
D02*
X000000296512Y000001087747D01*
D02*
X000000296385Y000001086129D01*
D02*
X000000296173Y000001084520D01*
D02*
X000000295877Y000001082924D01*
D02*
X000000295498Y000001081345D01*
D02*
X000000295037Y000001079789D01*
D02*
X000000294495Y000001078259D01*
D02*
X000000293874Y000001076759D01*
D02*
X000000293176Y000001075294D01*
D02*
X000000292401Y000001073868D01*
D02*
X000000291553Y000001072484D01*
D02*
X000000290633Y000001071146D01*
D02*
X000000289645Y000001069858D01*
D02*
X000000288591Y000001068624D01*
D02*
X000000287474Y000001067446D01*
D02*
X000000286296Y000001066329D01*
D02*
X000000285062Y000001065275D01*
D02*
X000000283774Y000001064287D01*
D02*
X000000282437Y000001063368D01*
D02*
X000000281053Y000001062519D01*
D02*
X000000279626Y000001061745D01*
D02*
X000000278161Y000001061046D01*
D02*
X000000276661Y000001060425D01*
D02*
X000000275131Y000001059883D01*
D02*
X000000273575Y000001059422D01*
D02*
X000000271997Y000001059043D01*
D02*
X000000270401Y000001058748D01*
D02*
X000000268792Y000001058535D01*
D02*
X000000267173Y000001058408D01*
D02*
X000000265551Y000001058366D01*
D02*
X000000003444D01*
D02*
Y000001120374D01*
Y000001220374D02*
X000000265551D01*
D02*
X000000267173Y000001220331D01*
D02*
X000000268792Y000001220204D01*
D02*
X000000270401Y000001219992D01*
D02*
X000000271997Y000001219696D01*
D02*
X000000273575Y000001219317D01*
D02*
X000000275131Y000001218856D01*
D02*
X000000276661Y000001218314D01*
D02*
X000000278161Y000001217693D01*
D02*
X000000279626Y000001216994D01*
D02*
X000000281053Y000001216220D01*
D02*
X000000282437Y000001215372D01*
D02*
X000000283774Y000001214452D01*
D02*
X000000285062Y000001213464D01*
D02*
X000000286296Y000001212410D01*
D02*
X000000287474Y000001211293D01*
D02*
X000000288591Y000001210115D01*
D02*
X000000289645Y000001208881D01*
D02*
X000000290633Y000001207593D01*
D02*
X000000291553Y000001206255D01*
D02*
X000000292401Y000001204872D01*
D02*
X000000293176Y000001203445D01*
D02*
X000000293874Y000001201980D01*
D02*
X000000294495Y000001200480D01*
D02*
X000000295037Y000001198950D01*
D02*
X000000295498Y000001197394D01*
D02*
X000000295877Y000001195816D01*
D02*
X000000296173Y000001194220D01*
D02*
X000000296385Y000001192611D01*
D02*
X000000296512Y000001190992D01*
D02*
X000000296555Y000001189370D01*
D02*
X000000296512Y000001187747D01*
D02*
X000000296385Y000001186129D01*
D02*
X000000296173Y000001184520D01*
D02*
X000000295877Y000001182924D01*
D02*
X000000295498Y000001181345D01*
D02*
X000000295037Y000001179789D01*
D02*
X000000294495Y000001178259D01*
D02*
X000000293874Y000001176759D01*
D02*
X000000293176Y000001175294D01*
D02*
X000000292401Y000001173868D01*
D02*
X000000291553Y000001172484D01*
D02*
X000000290633Y000001171146D01*
D02*
X000000289645Y000001169858D01*
D02*
X000000288591Y000001168624D01*
D02*
X000000287474Y000001167446D01*
D02*
X000000286296Y000001166329D01*
D02*
X000000285062Y000001165275D01*
D02*
X000000283774Y000001164287D01*
D02*
X000000282437Y000001163368D01*
D02*
X000000281053Y000001162519D01*
D02*
X000000279626Y000001161745D01*
D02*
X000000278161Y000001161046D01*
D02*
X000000276661Y000001160425D01*
D02*
X000000275131Y000001159883D01*
D02*
X000000273575Y000001159422D01*
D02*
X000000271997Y000001159043D01*
D02*
X000000270401Y000001158748D01*
D02*
X000000268792Y000001158535D01*
D02*
X000000267173Y000001158408D01*
D02*
X000000265551Y000001158366D01*
D02*
X000000003444D01*
D02*
Y000001220374D01*
Y000001320374D02*
X000000265551D01*
D02*
X000000267173Y000001320331D01*
D02*
X000000268792Y000001320204D01*
D02*
X000000270401Y000001319992D01*
D02*
X000000271997Y000001319696D01*
D02*
X000000273575Y000001319317D01*
D02*
X000000275131Y000001318856D01*
D02*
X000000276661Y000001318314D01*
D02*
X000000278161Y000001317693D01*
D02*
X000000279626Y000001316994D01*
D02*
X000000281053Y000001316220D01*
D02*
X000000282437Y000001315372D01*
D02*
X000000283774Y000001314452D01*
D02*
X000000285062Y000001313464D01*
D02*
X000000286296Y000001312410D01*
D02*
X000000287474Y000001311293D01*
D02*
X000000288591Y000001310115D01*
D02*
X000000289645Y000001308881D01*
D02*
X000000290633Y000001307593D01*
D02*
X000000291553Y000001306255D01*
D02*
X000000292401Y000001304872D01*
D02*
X000000293176Y000001303445D01*
D02*
X000000293874Y000001301980D01*
D02*
X000000294495Y000001300480D01*
D02*
X000000295037Y000001298950D01*
D02*
X000000295498Y000001297394D01*
D02*
X000000295877Y000001295816D01*
D02*
X000000296173Y000001294220D01*
D02*
X000000296385Y000001292611D01*
D02*
X000000296512Y000001290992D01*
D02*
X000000296555Y000001289370D01*
D02*
X000000296512Y000001287747D01*
D02*
X000000296385Y000001286129D01*
D02*
X000000296173Y000001284520D01*
D02*
X000000295877Y000001282924D01*
D02*
X000000295498Y000001281345D01*
D02*
X000000295037Y000001279789D01*
D02*
X000000294495Y000001278259D01*
D02*
X000000293874Y000001276759D01*
D02*
X000000293176Y000001275294D01*
D02*
X000000292401Y000001273868D01*
D02*
X000000291553Y000001272484D01*
D02*
X000000290633Y000001271146D01*
D02*
X000000289645Y000001269858D01*
D02*
X000000288591Y000001268624D01*
D02*
X000000287474Y000001267446D01*
D02*
X000000286296Y000001266329D01*
D02*
X000000285062Y000001265275D01*
D02*
X000000283774Y000001264287D01*
D02*
X000000282437Y000001263368D01*
D02*
X000000281053Y000001262519D01*
D02*
X000000279626Y000001261745D01*
D02*
X000000278161Y000001261046D01*
D02*
X000000276661Y000001260425D01*
D02*
X000000275131Y000001259883D01*
D02*
X000000273575Y000001259422D01*
D02*
X000000271997Y000001259043D01*
D02*
X000000270401Y000001258748D01*
D02*
X000000268792Y000001258535D01*
D02*
X000000267173Y000001258408D01*
D02*
X000000265551Y000001258366D01*
D02*
X000000003444D01*
D02*
Y000001320374D01*
Y000001420374D02*
X000000265551D01*
D02*
X000000267173Y000001420331D01*
D02*
X000000268792Y000001420204D01*
D02*
X000000270401Y000001419992D01*
D02*
X000000271997Y000001419696D01*
D02*
X000000273575Y000001419317D01*
D02*
X000000275131Y000001418856D01*
D02*
X000000276661Y000001418314D01*
D02*
X000000278161Y000001417693D01*
D02*
X000000279626Y000001416994D01*
D02*
X000000281053Y000001416220D01*
D02*
X000000282437Y000001415372D01*
D02*
X000000283774Y000001414452D01*
D02*
X000000285062Y000001413464D01*
D02*
X000000286296Y000001412410D01*
D02*
X000000287474Y000001411293D01*
D02*
X000000288591Y000001410115D01*
D02*
X000000289645Y000001408881D01*
D02*
X000000290633Y000001407593D01*
D02*
X000000291553Y000001406255D01*
D02*
X000000292401Y000001404872D01*
D02*
X000000293176Y000001403445D01*
D02*
X000000293874Y000001401980D01*
D02*
X000000294495Y000001400480D01*
D02*
X000000295037Y000001398950D01*
D02*
X000000295498Y000001397394D01*
D02*
X000000295877Y000001395816D01*
D02*
X000000296173Y000001394220D01*
D02*
X000000296385Y000001392611D01*
D02*
X000000296512Y000001390992D01*
D02*
X000000296555Y000001389370D01*
D02*
X000000296512Y000001387747D01*
D02*
X000000296385Y000001386129D01*
D02*
X000000296173Y000001384520D01*
D02*
X000000295877Y000001382924D01*
D02*
X000000295498Y000001381345D01*
D02*
X000000295037Y000001379789D01*
D02*
X000000294495Y000001378259D01*
D02*
X000000293874Y000001376759D01*
D02*
X000000293176Y000001375294D01*
D02*
X000000292401Y000001373868D01*
D02*
X000000291553Y000001372484D01*
D02*
X000000290633Y000001371146D01*
D02*
X000000289645Y000001369858D01*
D02*
X000000288591Y000001368624D01*
D02*
X000000287474Y000001367446D01*
D02*
X000000286296Y000001366329D01*
D02*
X000000285062Y000001365275D01*
D02*
X000000283774Y000001364287D01*
D02*
X000000282437Y000001363368D01*
D02*
X000000281053Y000001362519D01*
D02*
X000000279626Y000001361745D01*
D02*
X000000278161Y000001361046D01*
D02*
X000000276661Y000001360425D01*
D02*
X000000275131Y000001359883D01*
D02*
X000000273575Y000001359422D01*
D02*
X000000271997Y000001359043D01*
D02*
X000000270401Y000001358748D01*
D02*
X000000268792Y000001358535D01*
D02*
X000000267173Y000001358408D01*
D02*
X000000265551Y000001358366D01*
D02*
X000000003444D01*
D02*
Y000001420374D01*
Y000001520374D02*
X000000265551D01*
D02*
X000000267173Y000001520331D01*
D02*
X000000268792Y000001520204D01*
D02*
X000000270401Y000001519992D01*
D02*
X000000271997Y000001519696D01*
D02*
X000000273575Y000001519317D01*
D02*
X000000275131Y000001518856D01*
D02*
X000000276661Y000001518314D01*
D02*
X000000278161Y000001517693D01*
D02*
X000000279626Y000001516994D01*
D02*
X000000281053Y000001516220D01*
D02*
X000000282437Y000001515372D01*
D02*
X000000283774Y000001514452D01*
D02*
X000000285062Y000001513464D01*
D02*
X000000286296Y000001512410D01*
D02*
X000000287474Y000001511293D01*
D02*
X000000288591Y000001510115D01*
D02*
X000000289645Y000001508881D01*
D02*
X000000290633Y000001507593D01*
D02*
X000000291553Y000001506255D01*
D02*
X000000292401Y000001504872D01*
D02*
X000000293176Y000001503445D01*
D02*
X000000293874Y000001501980D01*
D02*
X000000294495Y000001500480D01*
D02*
X000000295037Y000001498950D01*
D02*
X000000295498Y000001497394D01*
D02*
X000000295877Y000001495816D01*
D02*
X000000296173Y000001494220D01*
D02*
X000000296385Y000001492611D01*
D02*
X000000296512Y000001490992D01*
D02*
X000000296555Y000001489370D01*
D02*
X000000296512Y000001487747D01*
D02*
X000000296385Y000001486129D01*
D02*
X000000296173Y000001484520D01*
D02*
X000000295877Y000001482924D01*
D02*
X000000295498Y000001481345D01*
D02*
X000000295037Y000001479789D01*
D02*
X000000294495Y000001478259D01*
D02*
X000000293874Y000001476759D01*
D02*
X000000293176Y000001475294D01*
D02*
X000000292401Y000001473868D01*
D02*
X000000291553Y000001472484D01*
D02*
X000000290633Y000001471146D01*
D02*
X000000289645Y000001469858D01*
D02*
X000000288591Y000001468624D01*
D02*
X000000287474Y000001467446D01*
D02*
X000000286296Y000001466329D01*
D02*
X000000285062Y000001465275D01*
D02*
X000000283774Y000001464287D01*
D02*
X000000282437Y000001463368D01*
D02*
X000000281053Y000001462519D01*
D02*
X000000279626Y000001461745D01*
D02*
X000000278161Y000001461046D01*
D02*
X000000276661Y000001460425D01*
D02*
X000000275131Y000001459883D01*
D02*
X000000273575Y000001459422D01*
D02*
X000000271997Y000001459043D01*
D02*
X000000270401Y000001458748D01*
D02*
X000000268792Y000001458535D01*
D02*
X000000267173Y000001458408D01*
D02*
X000000265551Y000001458366D01*
D02*
X000000003444D01*
D02*
Y000001520374D01*
Y000001620374D02*
X000000265551D01*
D02*
X000000267173Y000001620331D01*
D02*
X000000268792Y000001620204D01*
D02*
X000000270401Y000001619992D01*
D02*
X000000271997Y000001619696D01*
D02*
X000000273575Y000001619317D01*
D02*
X000000275131Y000001618856D01*
D02*
X000000276661Y000001618314D01*
D02*
X000000278161Y000001617693D01*
D02*
X000000279626Y000001616994D01*
D02*
X000000281053Y000001616220D01*
D02*
X000000282437Y000001615372D01*
D02*
X000000283774Y000001614452D01*
D02*
X000000285062Y000001613464D01*
D02*
X000000286296Y000001612410D01*
D02*
X000000287474Y000001611293D01*
D02*
X000000288591Y000001610115D01*
D02*
X000000289645Y000001608881D01*
D02*
X000000290633Y000001607593D01*
D02*
X000000291553Y000001606255D01*
D02*
X000000292401Y000001604872D01*
D02*
X000000293176Y000001603445D01*
D02*
X000000293874Y000001601980D01*
D02*
X000000294495Y000001600480D01*
D02*
X000000295037Y000001598950D01*
D02*
X000000295498Y000001597394D01*
D02*
X000000295877Y000001595816D01*
D02*
X000000296173Y000001594220D01*
D02*
X000000296385Y000001592611D01*
D02*
X000000296512Y000001590992D01*
D02*
X000000296555Y000001589370D01*
D02*
X000000296512Y000001587747D01*
D02*
X000000296385Y000001586129D01*
D02*
X000000296173Y000001584520D01*
D02*
X000000295877Y000001582924D01*
D02*
X000000295498Y000001581345D01*
D02*
X000000295037Y000001579789D01*
D02*
X000000294495Y000001578259D01*
D02*
X000000293874Y000001576759D01*
D02*
X000000293176Y000001575294D01*
D02*
X000000292401Y000001573868D01*
D02*
X000000291553Y000001572484D01*
D02*
X000000290633Y000001571146D01*
D02*
X000000289645Y000001569858D01*
D02*
X000000288591Y000001568624D01*
D02*
X000000287474Y000001567446D01*
D02*
X000000286296Y000001566329D01*
D02*
X000000285062Y000001565275D01*
D02*
X000000283774Y000001564287D01*
D02*
X000000282437Y000001563368D01*
D02*
X000000281053Y000001562519D01*
D02*
X000000279626Y000001561745D01*
D02*
X000000278161Y000001561046D01*
D02*
X000000276661Y000001560425D01*
D02*
X000000275131Y000001559883D01*
D02*
X000000273575Y000001559422D01*
D02*
X000000271997Y000001559043D01*
D02*
X000000270401Y000001558748D01*
D02*
X000000268792Y000001558535D01*
D02*
X000000267173Y000001558408D01*
D02*
X000000265551Y000001558366D01*
D02*
X000000003444D01*
D02*
Y000001620374D01*
Y000001720374D02*
X000000265551D01*
D02*
X000000267173Y000001720331D01*
D02*
X000000268792Y000001720204D01*
D02*
X000000270401Y000001719992D01*
D02*
X000000271997Y000001719696D01*
D02*
X000000273575Y000001719317D01*
D02*
X000000275131Y000001718856D01*
D02*
X000000276661Y000001718314D01*
D02*
X000000278161Y000001717693D01*
D02*
X000000279626Y000001716994D01*
D02*
X000000281053Y000001716220D01*
D02*
X000000282437Y000001715372D01*
D02*
X000000283774Y000001714452D01*
D02*
X000000285062Y000001713464D01*
D02*
X000000286296Y000001712410D01*
D02*
X000000287474Y000001711293D01*
D02*
X000000288591Y000001710115D01*
D02*
X000000289645Y000001708881D01*
D02*
X000000290633Y000001707593D01*
D02*
X000000291553Y000001706255D01*
D02*
X000000292401Y000001704872D01*
D02*
X000000293176Y000001703445D01*
D02*
X000000293874Y000001701980D01*
D02*
X000000294495Y000001700480D01*
D02*
X000000295037Y000001698950D01*
D02*
X000000295498Y000001697394D01*
D02*
X000000295877Y000001695816D01*
D02*
X000000296173Y000001694220D01*
D02*
X000000296385Y000001692611D01*
D02*
X000000296512Y000001690992D01*
D02*
X000000296555Y000001689370D01*
D02*
X000000296512Y000001687747D01*
D02*
X000000296385Y000001686129D01*
D02*
X000000296173Y000001684520D01*
D02*
X000000295877Y000001682924D01*
D02*
X000000295498Y000001681345D01*
D02*
X000000295037Y000001679789D01*
D02*
X000000294495Y000001678259D01*
D02*
X000000293874Y000001676759D01*
D02*
X000000293176Y000001675294D01*
D02*
X000000292401Y000001673868D01*
D02*
X000000291553Y000001672484D01*
D02*
X000000290633Y000001671146D01*
D02*
X000000289645Y000001669858D01*
D02*
X000000288591Y000001668624D01*
D02*
X000000287474Y000001667446D01*
D02*
X000000286296Y000001666329D01*
D02*
X000000285062Y000001665275D01*
D02*
X000000283774Y000001664287D01*
D02*
X000000282437Y000001663368D01*
D02*
X000000281053Y000001662519D01*
D02*
X000000279626Y000001661745D01*
D02*
X000000278161Y000001661046D01*
D02*
X000000276661Y000001660425D01*
D02*
X000000275131Y000001659883D01*
D02*
X000000273575Y000001659422D01*
D02*
X000000271997Y000001659043D01*
D02*
X000000270401Y000001658748D01*
D02*
X000000268792Y000001658535D01*
D02*
X000000267173Y000001658408D01*
D02*
X000000265551Y000001658366D01*
D02*
X000000003444D01*
D02*
Y000001720374D01*
Y000001820374D02*
X000000265551D01*
D02*
X000000267173Y000001820331D01*
D02*
X000000268792Y000001820204D01*
D02*
X000000270401Y000001819992D01*
D02*
X000000271997Y000001819696D01*
D02*
X000000273575Y000001819317D01*
D02*
X000000275131Y000001818856D01*
D02*
X000000276661Y000001818314D01*
D02*
X000000278161Y000001817693D01*
D02*
X000000279626Y000001816994D01*
D02*
X000000281053Y000001816220D01*
D02*
X000000282437Y000001815372D01*
D02*
X000000283774Y000001814452D01*
D02*
X000000285062Y000001813464D01*
D02*
X000000286296Y000001812410D01*
D02*
X000000287474Y000001811293D01*
D02*
X000000288591Y000001810115D01*
D02*
X000000289645Y000001808881D01*
D02*
X000000290633Y000001807593D01*
D02*
X000000291553Y000001806255D01*
D02*
X000000292401Y000001804872D01*
D02*
X000000293176Y000001803445D01*
D02*
X000000293874Y000001801980D01*
D02*
X000000294495Y000001800480D01*
D02*
X000000295037Y000001798950D01*
D02*
X000000295498Y000001797394D01*
D02*
X000000295877Y000001795816D01*
D02*
X000000296173Y000001794220D01*
D02*
X000000296385Y000001792611D01*
D02*
X000000296512Y000001790992D01*
D02*
X000000296555Y000001789370D01*
D02*
X000000296512Y000001787747D01*
D02*
X000000296385Y000001786129D01*
D02*
X000000296173Y000001784520D01*
D02*
X000000295877Y000001782924D01*
D02*
X000000295498Y000001781345D01*
D02*
X000000295037Y000001779789D01*
D02*
X000000294495Y000001778259D01*
D02*
X000000293874Y000001776759D01*
D02*
X000000293176Y000001775294D01*
D02*
X000000292401Y000001773868D01*
D02*
X000000291553Y000001772484D01*
D02*
X000000290633Y000001771146D01*
D02*
X000000289645Y000001769858D01*
D02*
X000000288591Y000001768624D01*
D02*
X000000287474Y000001767446D01*
D02*
X000000286296Y000001766329D01*
D02*
X000000285062Y000001765275D01*
D02*
X000000283774Y000001764287D01*
D02*
X000000282437Y000001763368D01*
D02*
X000000281053Y000001762519D01*
D02*
X000000279626Y000001761745D01*
D02*
X000000278161Y000001761046D01*
D02*
X000000276661Y000001760425D01*
D02*
X000000275131Y000001759883D01*
D02*
X000000273575Y000001759422D01*
D02*
X000000271997Y000001759043D01*
D02*
X000000270401Y000001758748D01*
D02*
X000000268792Y000001758535D01*
D02*
X000000267173Y000001758408D01*
D02*
X000000265551Y000001758366D01*
D02*
X000000003444D01*
D02*
Y000001820374D01*
Y000001920374D02*
X000000265551D01*
D02*
X000000267173Y000001920331D01*
D02*
X000000268792Y000001920204D01*
D02*
X000000270401Y000001919992D01*
D02*
X000000271997Y000001919696D01*
D02*
X000000273575Y000001919317D01*
D02*
X000000275131Y000001918856D01*
D02*
X000000276661Y000001918314D01*
D02*
X000000278161Y000001917693D01*
D02*
X000000279626Y000001916994D01*
D02*
X000000281053Y000001916220D01*
D02*
X000000282437Y000001915372D01*
D02*
X000000283774Y000001914452D01*
D02*
X000000285062Y000001913464D01*
D02*
X000000286296Y000001912410D01*
D02*
X000000287474Y000001911293D01*
D02*
X000000288591Y000001910115D01*
D02*
X000000289645Y000001908881D01*
D02*
X000000290633Y000001907593D01*
D02*
X000000291553Y000001906255D01*
D02*
X000000292401Y000001904872D01*
D02*
X000000293176Y000001903445D01*
D02*
X000000293874Y000001901980D01*
D02*
X000000294495Y000001900480D01*
D02*
X000000295037Y000001898950D01*
D02*
X000000295498Y000001897394D01*
D02*
X000000295877Y000001895816D01*
D02*
X000000296173Y000001894220D01*
D02*
X000000296385Y000001892611D01*
D02*
X000000296512Y000001890992D01*
D02*
X000000296555Y000001889370D01*
D02*
X000000296512Y000001887747D01*
D02*
X000000296385Y000001886129D01*
D02*
X000000296173Y000001884520D01*
D02*
X000000295877Y000001882924D01*
D02*
X000000295498Y000001881345D01*
D02*
X000000295037Y000001879789D01*
D02*
X000000294495Y000001878259D01*
D02*
X000000293874Y000001876759D01*
D02*
X000000293176Y000001875294D01*
D02*
X000000292401Y000001873868D01*
D02*
X000000291553Y000001872484D01*
D02*
X000000290633Y000001871146D01*
D02*
X000000289645Y000001869858D01*
D02*
X000000288591Y000001868624D01*
D02*
X000000287474Y000001867446D01*
D02*
X000000286296Y000001866329D01*
D02*
X000000285062Y000001865275D01*
D02*
X000000283774Y000001864287D01*
D02*
X000000282437Y000001863368D01*
D02*
X000000281053Y000001862519D01*
D02*
X000000279626Y000001861745D01*
D02*
X000000278161Y000001861046D01*
D02*
X000000276661Y000001860425D01*
D02*
X000000275131Y000001859883D01*
D02*
X000000273575Y000001859422D01*
D02*
X000000271997Y000001859043D01*
D02*
X000000270401Y000001858748D01*
D02*
X000000268792Y000001858535D01*
D02*
X000000267173Y000001858408D01*
D02*
X000000265551Y000001858366D01*
D02*
X000000003444D01*
D02*
Y000001920374D01*
Y000002020374D02*
X000000265551D01*
D02*
X000000267173Y000002020331D01*
D02*
X000000268792Y000002020204D01*
D02*
X000000270401Y000002019992D01*
D02*
X000000271997Y000002019696D01*
D02*
X000000273575Y000002019317D01*
D02*
X000000275131Y000002018856D01*
D02*
X000000276661Y000002018314D01*
D02*
X000000278161Y000002017693D01*
D02*
X000000279626Y000002016994D01*
D02*
X000000281053Y000002016220D01*
D02*
X000000282437Y000002015372D01*
D02*
X000000283774Y000002014452D01*
D02*
X000000285062Y000002013464D01*
D02*
X000000286296Y000002012410D01*
D02*
X000000287474Y000002011293D01*
D02*
X000000288591Y000002010115D01*
D02*
X000000289645Y000002008881D01*
D02*
X000000290633Y000002007593D01*
D02*
X000000291553Y000002006255D01*
D02*
X000000292401Y000002004872D01*
D02*
X000000293176Y000002003445D01*
D02*
X000000293874Y000002001980D01*
D02*
X000000294495Y000002000480D01*
D02*
X000000295037Y000001998950D01*
D02*
X000000295498Y000001997394D01*
D02*
X000000295877Y000001995816D01*
D02*
X000000296173Y000001994220D01*
D02*
X000000296385Y000001992611D01*
D02*
X000000296512Y000001990992D01*
D02*
X000000296555Y000001989370D01*
D02*
X000000296512Y000001987747D01*
D02*
X000000296385Y000001986129D01*
D02*
X000000296173Y000001984520D01*
D02*
X000000295877Y000001982924D01*
D02*
X000000295498Y000001981345D01*
D02*
X000000295037Y000001979789D01*
D02*
X000000294495Y000001978259D01*
D02*
X000000293874Y000001976759D01*
D02*
X000000293176Y000001975294D01*
D02*
X000000292401Y000001973868D01*
D02*
X000000291553Y000001972484D01*
D02*
X000000290633Y000001971146D01*
D02*
X000000289645Y000001969858D01*
D02*
X000000288591Y000001968624D01*
D02*
X000000287474Y000001967446D01*
D02*
X000000286296Y000001966329D01*
D02*
X000000285062Y000001965275D01*
D02*
X000000283774Y000001964287D01*
D02*
X000000282437Y000001963368D01*
D02*
X000000281053Y000001962519D01*
D02*
X000000279626Y000001961745D01*
D02*
X000000278161Y000001961046D01*
D02*
X000000276661Y000001960425D01*
D02*
X000000275131Y000001959883D01*
D02*
X000000273575Y000001959422D01*
D02*
X000000271997Y000001959043D01*
D02*
X000000270401Y000001958748D01*
D02*
X000000268792Y000001958535D01*
D02*
X000000267173Y000001958408D01*
D02*
X000000265551Y000001958366D01*
D02*
X000000003444D01*
D02*
Y000002020374D01*
Y000002120374D02*
X000000265551D01*
D02*
X000000267173Y000002120331D01*
D02*
X000000268792Y000002120204D01*
D02*
X000000270401Y000002119992D01*
D02*
X000000271997Y000002119696D01*
D02*
X000000273575Y000002119317D01*
D02*
X000000275131Y000002118856D01*
D02*
X000000276661Y000002118314D01*
D02*
X000000278161Y000002117693D01*
D02*
X000000279626Y000002116994D01*
D02*
X000000281053Y000002116220D01*
D02*
X000000282437Y000002115372D01*
D02*
X000000283774Y000002114452D01*
D02*
X000000285062Y000002113464D01*
D02*
X000000286296Y000002112410D01*
D02*
X000000287474Y000002111293D01*
D02*
X000000288591Y000002110115D01*
D02*
X000000289645Y000002108881D01*
D02*
X000000290633Y000002107593D01*
D02*
X000000291553Y000002106255D01*
D02*
X000000292401Y000002104872D01*
D02*
X000000293176Y000002103445D01*
D02*
X000000293874Y000002101980D01*
D02*
X000000294495Y000002100480D01*
D02*
X000000295037Y000002098950D01*
D02*
X000000295498Y000002097394D01*
D02*
X000000295877Y000002095816D01*
D02*
X000000296173Y000002094220D01*
D02*
X000000296385Y000002092610D01*
D02*
X000000296512Y000002090992D01*
D02*
X000000296555Y000002089370D01*
D02*
X000000296512Y000002087747D01*
D02*
X000000296385Y000002086129D01*
D02*
X000000296173Y000002084520D01*
D02*
X000000295877Y000002082923D01*
D02*
X000000295498Y000002081345D01*
D02*
X000000295037Y000002079789D01*
D02*
X000000294495Y000002078259D01*
D02*
X000000293874Y000002076759D01*
D02*
X000000293176Y000002075294D01*
D02*
X000000292401Y000002073868D01*
D02*
X000000291553Y000002072484D01*
D02*
X000000290633Y000002071146D01*
D02*
X000000289645Y000002069858D01*
D02*
X000000288591Y000002068624D01*
D02*
X000000287474Y000002067446D01*
D02*
X000000286296Y000002066329D01*
D02*
X000000285062Y000002065275D01*
D02*
X000000283774Y000002064287D01*
D02*
X000000282437Y000002063368D01*
D02*
X000000281053Y000002062519D01*
D02*
X000000279626Y000002061745D01*
D02*
X000000278161Y000002061046D01*
D02*
X000000276661Y000002060425D01*
D02*
X000000275131Y000002059883D01*
D02*
X000000273575Y000002059422D01*
D02*
X000000271997Y000002059043D01*
D02*
X000000270401Y000002058748D01*
D02*
X000000268792Y000002058535D01*
D02*
X000000267173Y000002058408D01*
D02*
X000000265551Y000002058366D01*
D02*
X000000003444D01*
D02*
Y000002120374D01*
Y000002220373D02*
X000000265551D01*
D02*
X000000267173Y000002220331D01*
D02*
X000000268792Y000002220204D01*
D02*
X000000270401Y000002219992D01*
D02*
X000000271997Y000002219696D01*
D02*
X000000273575Y000002219317D01*
D02*
X000000275131Y000002218856D01*
D02*
X000000276661Y000002218314D01*
D02*
X000000278161Y000002217693D01*
D02*
X000000279626Y000002216994D01*
D02*
X000000281053Y000002216220D01*
D02*
X000000282437Y000002215372D01*
D02*
X000000283774Y000002214452D01*
D02*
X000000285062Y000002213464D01*
D02*
X000000286296Y000002212410D01*
D02*
X000000287474Y000002211293D01*
D02*
X000000288591Y000002210115D01*
D02*
X000000289645Y000002208881D01*
D02*
X000000290633Y000002207593D01*
D02*
X000000291553Y000002206255D01*
D02*
X000000292401Y000002204872D01*
D02*
X000000293176Y000002203445D01*
D02*
X000000293874Y000002201980D01*
D02*
X000000294495Y000002200480D01*
D02*
X000000295037Y000002198950D01*
D02*
X000000295498Y000002197394D01*
D02*
X000000295877Y000002195816D01*
D02*
X000000296173Y000002194220D01*
D02*
X000000296385Y000002192611D01*
D02*
X000000296512Y000002190992D01*
D02*
X000000296555Y000002189370D01*
D02*
X000000296512Y000002187747D01*
D02*
X000000296385Y000002186129D01*
D02*
X000000296173Y000002184520D01*
D02*
X000000295877Y000002182924D01*
D02*
X000000295498Y000002181345D01*
D02*
X000000295037Y000002179789D01*
D02*
X000000294495Y000002178259D01*
D02*
X000000293874Y000002176759D01*
D02*
X000000293176Y000002175294D01*
D02*
X000000292401Y000002173868D01*
D02*
X000000291553Y000002172484D01*
D02*
X000000290633Y000002171146D01*
D02*
X000000289645Y000002169858D01*
D02*
X000000288591Y000002168624D01*
D02*
X000000287474Y000002167446D01*
D02*
X000000286296Y000002166329D01*
D02*
X000000285062Y000002165275D01*
D02*
X000000283774Y000002164287D01*
D02*
X000000282437Y000002163368D01*
D02*
X000000281053Y000002162519D01*
D02*
X000000279626Y000002161745D01*
D02*
X000000278161Y000002161046D01*
D02*
X000000276661Y000002160425D01*
D02*
X000000275131Y000002159883D01*
D02*
X000000273575Y000002159422D01*
D02*
X000000271997Y000002159043D01*
D02*
X000000270401Y000002158748D01*
D02*
X000000268792Y000002158535D01*
D02*
X000000267173Y000002158408D01*
D02*
X000000265551Y000002158366D01*
D02*
X000000003444D01*
D02*
Y000002220373D01*
Y000002320373D02*
X000000265551D01*
D02*
X000000267173Y000002320331D01*
D02*
X000000268792Y000002320204D01*
D02*
X000000270401Y000002319992D01*
D02*
X000000271997Y000002319696D01*
D02*
X000000273575Y000002319317D01*
D02*
X000000275131Y000002318856D01*
D02*
X000000276661Y000002318314D01*
D02*
X000000278161Y000002317693D01*
D02*
X000000279626Y000002316994D01*
D02*
X000000281053Y000002316220D01*
D02*
X000000282437Y000002315372D01*
D02*
X000000283774Y000002314452D01*
D02*
X000000285062Y000002313464D01*
D02*
X000000286296Y000002312410D01*
D02*
X000000287474Y000002311293D01*
D02*
X000000288591Y000002310115D01*
D02*
X000000289645Y000002308881D01*
D02*
X000000290633Y000002307593D01*
D02*
X000000291553Y000002306255D01*
D02*
X000000292401Y000002304872D01*
D02*
X000000293176Y000002303445D01*
D02*
X000000293874Y000002301980D01*
D02*
X000000294495Y000002300480D01*
D02*
X000000295037Y000002298950D01*
D02*
X000000295498Y000002297394D01*
D02*
X000000295877Y000002295816D01*
D02*
X000000296173Y000002294220D01*
D02*
X000000296385Y000002292611D01*
D02*
X000000296512Y000002290992D01*
D02*
X000000296555Y000002289370D01*
D02*
X000000296512Y000002287747D01*
D02*
X000000296385Y000002286129D01*
D02*
X000000296173Y000002284520D01*
D02*
X000000295877Y000002282924D01*
D02*
X000000295498Y000002281345D01*
D02*
X000000295037Y000002279789D01*
D02*
X000000294495Y000002278259D01*
D02*
X000000293874Y000002276759D01*
D02*
X000000293176Y000002275294D01*
D02*
X000000292401Y000002273868D01*
D02*
X000000291553Y000002272484D01*
D02*
X000000290633Y000002271146D01*
D02*
X000000289645Y000002269858D01*
D02*
X000000288591Y000002268624D01*
D02*
X000000287474Y000002267446D01*
D02*
X000000286296Y000002266329D01*
D02*
X000000285062Y000002265275D01*
D02*
X000000283774Y000002264287D01*
D02*
X000000282437Y000002263368D01*
D02*
X000000281053Y000002262519D01*
D02*
X000000279626Y000002261745D01*
D02*
X000000278161Y000002261046D01*
D02*
X000000276661Y000002260425D01*
D02*
X000000275131Y000002259883D01*
D02*
X000000273575Y000002259422D01*
D02*
X000000271997Y000002259043D01*
D02*
X000000270401Y000002258748D01*
D02*
X000000268792Y000002258535D01*
D02*
X000000267173Y000002258408D01*
D02*
X000000265551Y000002258366D01*
D02*
X000000003444D01*
D02*
Y000002320373D01*
Y000002420374D02*
X000000265551D01*
D02*
X000000267173Y000002420331D01*
D02*
X000000268792Y000002420204D01*
D02*
X000000270401Y000002419992D01*
D02*
X000000271997Y000002419696D01*
D02*
X000000273575Y000002419317D01*
D02*
X000000275131Y000002418856D01*
D02*
X000000276661Y000002418314D01*
D02*
X000000278161Y000002417693D01*
D02*
X000000279626Y000002416994D01*
D02*
X000000281053Y000002416220D01*
D02*
X000000282437Y000002415371D01*
D02*
X000000283774Y000002414452D01*
D02*
X000000285062Y000002413464D01*
D02*
X000000286296Y000002412410D01*
D02*
X000000287474Y000002411293D01*
D02*
X000000288591Y000002410115D01*
D02*
X000000289645Y000002408881D01*
D02*
X000000290633Y000002407593D01*
D02*
X000000291553Y000002406255D01*
D02*
X000000292401Y000002404871D01*
D02*
X000000293176Y000002403445D01*
D02*
X000000293874Y000002401980D01*
D02*
X000000294495Y000002400480D01*
D02*
X000000295037Y000002398950D01*
D02*
X000000295498Y000002397394D01*
D02*
X000000295877Y000002395816D01*
D02*
X000000296173Y000002394220D01*
D02*
X000000296385Y000002392611D01*
D02*
X000000296512Y000002390992D01*
D02*
X000000296555Y000002389370D01*
D02*
X000000296512Y000002387747D01*
D02*
X000000296385Y000002386129D01*
D02*
X000000296173Y000002384520D01*
D02*
X000000295877Y000002382924D01*
D02*
X000000295498Y000002381345D01*
D02*
X000000295037Y000002379789D01*
D02*
X000000294495Y000002378259D01*
D02*
X000000293874Y000002376759D01*
D02*
X000000293176Y000002375294D01*
D02*
X000000292401Y000002373868D01*
D02*
X000000291553Y000002372484D01*
D02*
X000000290633Y000002371146D01*
D02*
X000000289645Y000002369858D01*
D02*
X000000288591Y000002368624D01*
D02*
X000000287474Y000002367446D01*
D02*
X000000286296Y000002366329D01*
D02*
X000000285062Y000002365275D01*
D02*
X000000283774Y000002364287D01*
D02*
X000000282437Y000002363368D01*
D02*
X000000281053Y000002362519D01*
D02*
X000000279626Y000002361745D01*
D02*
X000000278161Y000002361046D01*
D02*
X000000276661Y000002360425D01*
D02*
X000000275131Y000002359883D01*
D02*
X000000273575Y000002359422D01*
D02*
X000000271997Y000002359043D01*
D02*
X000000270401Y000002358748D01*
D02*
X000000268792Y000002358535D01*
D02*
X000000267173Y000002358408D01*
D02*
X000000265551Y000002358366D01*
D02*
X000000003444D01*
D02*
Y000002420374D01*
Y000002520374D02*
X000000265551D01*
D02*
X000000267173Y000002520331D01*
D02*
X000000268792Y000002520204D01*
D02*
X000000270401Y000002519992D01*
D02*
X000000271997Y000002519696D01*
D02*
X000000273575Y000002519317D01*
D02*
X000000275131Y000002518856D01*
D02*
X000000276661Y000002518314D01*
D02*
X000000278161Y000002517693D01*
D02*
X000000279626Y000002516994D01*
D02*
X000000281053Y000002516220D01*
D02*
X000000282437Y000002515371D01*
D02*
X000000283774Y000002514452D01*
D02*
X000000285062Y000002513464D01*
D02*
X000000286296Y000002512410D01*
D02*
X000000287474Y000002511293D01*
D02*
X000000288591Y000002510115D01*
D02*
X000000289645Y000002508881D01*
D02*
X000000290633Y000002507593D01*
D02*
X000000291553Y000002506255D01*
D02*
X000000292401Y000002504871D01*
D02*
X000000293176Y000002503445D01*
D02*
X000000293874Y000002501980D01*
D02*
X000000294495Y000002500480D01*
D02*
X000000295037Y000002498950D01*
D02*
X000000295498Y000002497394D01*
D02*
X000000295877Y000002495816D01*
D02*
X000000296173Y000002494220D01*
D02*
X000000296385Y000002492610D01*
D02*
X000000296512Y000002490992D01*
D02*
X000000296555Y000002489370D01*
D02*
X000000296512Y000002487747D01*
D02*
X000000296385Y000002486129D01*
D02*
X000000296173Y000002484520D01*
D02*
X000000295877Y000002482924D01*
D02*
X000000295498Y000002481345D01*
D02*
X000000295037Y000002479789D01*
D02*
X000000294495Y000002478259D01*
D02*
X000000293874Y000002476759D01*
D02*
X000000293176Y000002475294D01*
D02*
X000000292401Y000002473868D01*
D02*
X000000291553Y000002472484D01*
D02*
X000000290633Y000002471146D01*
D02*
X000000289645Y000002469858D01*
D02*
X000000288591Y000002468624D01*
D02*
X000000287474Y000002467446D01*
D02*
X000000286296Y000002466329D01*
D02*
X000000285062Y000002465275D01*
D02*
X000000283774Y000002464287D01*
D02*
X000000282437Y000002463368D01*
D02*
X000000281053Y000002462519D01*
D02*
X000000279626Y000002461745D01*
D02*
X000000278161Y000002461046D01*
D02*
X000000276661Y000002460425D01*
D02*
X000000275131Y000002459883D01*
D02*
X000000273575Y000002459422D01*
D02*
X000000271997Y000002459043D01*
D02*
X000000270401Y000002458748D01*
D02*
X000000268792Y000002458535D01*
D02*
X000000267173Y000002458408D01*
D02*
X000000265551Y000002458366D01*
D02*
X000000003444D01*
D02*
Y000002520374D01*
Y000002620374D02*
X000000265551D01*
D02*
X000000267173Y000002620331D01*
D02*
X000000268792Y000002620204D01*
D02*
X000000270401Y000002619992D01*
D02*
X000000271997Y000002619696D01*
D02*
X000000273575Y000002619317D01*
D02*
X000000275131Y000002618856D01*
D02*
X000000276661Y000002618314D01*
D02*
X000000278161Y000002617693D01*
D02*
X000000279626Y000002616994D01*
D02*
X000000281053Y000002616220D01*
D02*
X000000282437Y000002615372D01*
D02*
X000000283774Y000002614452D01*
D02*
X000000285062Y000002613464D01*
D02*
X000000286296Y000002612410D01*
D02*
X000000287474Y000002611293D01*
D02*
X000000288591Y000002610115D01*
D02*
X000000289645Y000002608881D01*
D02*
X000000290633Y000002607593D01*
D02*
X000000291553Y000002606255D01*
D02*
X000000292401Y000002604872D01*
D02*
X000000293176Y000002603445D01*
D02*
X000000293874Y000002601980D01*
D02*
X000000294495Y000002600480D01*
D02*
X000000295037Y000002598950D01*
D02*
X000000295498Y000002597394D01*
D02*
X000000295877Y000002595816D01*
D02*
X000000296173Y000002594220D01*
D02*
X000000296385Y000002592611D01*
D02*
X000000296512Y000002590992D01*
D02*
X000000296555Y000002589370D01*
D02*
X000000296512Y000002587747D01*
D02*
X000000296385Y000002586129D01*
D02*
X000000296173Y000002584520D01*
D02*
X000000295877Y000002582924D01*
D02*
X000000295498Y000002581345D01*
D02*
X000000295037Y000002579789D01*
D02*
X000000294495Y000002578259D01*
D02*
X000000293874Y000002576759D01*
D02*
X000000293176Y000002575294D01*
D02*
X000000292401Y000002573868D01*
D02*
X000000291553Y000002572484D01*
D02*
X000000290633Y000002571146D01*
D02*
X000000289645Y000002569858D01*
D02*
X000000288591Y000002568624D01*
D02*
X000000287474Y000002567446D01*
D02*
X000000286296Y000002566329D01*
D02*
X000000285062Y000002565275D01*
D02*
X000000283774Y000002564287D01*
D02*
X000000282437Y000002563368D01*
D02*
X000000281053Y000002562519D01*
D02*
X000000279626Y000002561745D01*
D02*
X000000278161Y000002561046D01*
D02*
X000000276661Y000002560425D01*
D02*
X000000275131Y000002559883D01*
D02*
X000000273575Y000002559422D01*
D02*
X000000271997Y000002559043D01*
D02*
X000000270401Y000002558748D01*
D02*
X000000268792Y000002558535D01*
D02*
X000000267173Y000002558408D01*
D02*
X000000265551Y000002558366D01*
D02*
X000000003444D01*
D02*
Y000002620374D01*
Y000002720373D02*
X000000265551D01*
D02*
X000000267173Y000002720331D01*
D02*
X000000268792Y000002720204D01*
D02*
X000000270401Y000002719992D01*
D02*
X000000271997Y000002719696D01*
D02*
X000000273575Y000002719317D01*
D02*
X000000275131Y000002718856D01*
D02*
X000000276661Y000002718314D01*
D02*
X000000278161Y000002717693D01*
D02*
X000000279626Y000002716994D01*
D02*
X000000281053Y000002716220D01*
D02*
X000000282437Y000002715372D01*
D02*
X000000283774Y000002714452D01*
D02*
X000000285062Y000002713464D01*
D02*
X000000286296Y000002712410D01*
D02*
X000000287474Y000002711293D01*
D02*
X000000288591Y000002710115D01*
D02*
X000000289645Y000002708881D01*
D02*
X000000290633Y000002707593D01*
D02*
X000000291553Y000002706255D01*
D02*
X000000292401Y000002704872D01*
D02*
X000000293176Y000002703445D01*
D02*
X000000293874Y000002701980D01*
D02*
X000000294495Y000002700480D01*
D02*
X000000295037Y000002698950D01*
D02*
X000000295498Y000002697394D01*
D02*
X000000295877Y000002695816D01*
D02*
X000000296173Y000002694220D01*
D02*
X000000296385Y000002692611D01*
D02*
X000000296512Y000002690992D01*
D02*
X000000296555Y000002689370D01*
D02*
X000000296512Y000002687747D01*
D02*
X000000296385Y000002686129D01*
D02*
X000000296173Y000002684520D01*
D02*
X000000295877Y000002682924D01*
D02*
X000000295498Y000002681345D01*
D02*
X000000295037Y000002679789D01*
D02*
X000000294495Y000002678259D01*
D02*
X000000293874Y000002676759D01*
D02*
X000000293176Y000002675294D01*
D02*
X000000292401Y000002673868D01*
D02*
X000000291553Y000002672484D01*
D02*
X000000290633Y000002671146D01*
D02*
X000000289645Y000002669858D01*
D02*
X000000288591Y000002668624D01*
D02*
X000000287474Y000002667446D01*
D02*
X000000286296Y000002666329D01*
D02*
X000000285062Y000002665275D01*
D02*
X000000283774Y000002664287D01*
D02*
X000000282437Y000002663368D01*
D02*
X000000281053Y000002662519D01*
D02*
X000000279626Y000002661745D01*
D02*
X000000278161Y000002661046D01*
D02*
X000000276661Y000002660425D01*
D02*
X000000275131Y000002659883D01*
D02*
X000000273575Y000002659422D01*
D02*
X000000271997Y000002659043D01*
D02*
X000000270401Y000002658748D01*
D02*
X000000268792Y000002658535D01*
D02*
X000000267173Y000002658408D01*
D02*
X000000265551Y000002658366D01*
D02*
X000000003444D01*
D02*
Y000002720373D01*
Y000002820373D02*
X000000265551D01*
D02*
X000000267173Y000002820331D01*
D02*
X000000268792Y000002820204D01*
D02*
X000000270401Y000002819992D01*
D02*
X000000271997Y000002819696D01*
D02*
X000000273575Y000002819317D01*
D02*
X000000275131Y000002818856D01*
D02*
X000000276661Y000002818314D01*
D02*
X000000278161Y000002817693D01*
D02*
X000000279626Y000002816994D01*
D02*
X000000281053Y000002816220D01*
D02*
X000000282437Y000002815372D01*
D02*
X000000283774Y000002814452D01*
D02*
X000000285062Y000002813464D01*
D02*
X000000286296Y000002812410D01*
D02*
X000000287474Y000002811293D01*
D02*
X000000288591Y000002810115D01*
D02*
X000000289645Y000002808881D01*
D02*
X000000290633Y000002807593D01*
D02*
X000000291553Y000002806255D01*
D02*
X000000292401Y000002804872D01*
D02*
X000000293176Y000002803445D01*
D02*
X000000293874Y000002801980D01*
D02*
X000000294495Y000002800480D01*
D02*
X000000295037Y000002798950D01*
D02*
X000000295498Y000002797394D01*
D02*
X000000295877Y000002795816D01*
D02*
X000000296173Y000002794220D01*
D02*
X000000296385Y000002792611D01*
D02*
X000000296512Y000002790992D01*
D02*
X000000296555Y000002789370D01*
D02*
X000000296512Y000002787747D01*
D02*
X000000296385Y000002786129D01*
D02*
X000000296173Y000002784520D01*
D02*
X000000295877Y000002782924D01*
D02*
X000000295498Y000002781345D01*
D02*
X000000295037Y000002779789D01*
D02*
X000000294495Y000002778259D01*
D02*
X000000293874Y000002776759D01*
D02*
X000000293176Y000002775294D01*
D02*
X000000292401Y000002773868D01*
D02*
X000000291553Y000002772484D01*
D02*
X000000290633Y000002771146D01*
D02*
X000000289645Y000002769858D01*
D02*
X000000288591Y000002768624D01*
D02*
X000000287474Y000002767446D01*
D02*
X000000286296Y000002766329D01*
D02*
X000000285062Y000002765275D01*
D02*
X000000283774Y000002764287D01*
D02*
X000000282437Y000002763368D01*
D02*
X000000281053Y000002762519D01*
D02*
X000000279626Y000002761745D01*
D02*
X000000278161Y000002761046D01*
D02*
X000000276661Y000002760425D01*
D02*
X000000275131Y000002759883D01*
D02*
X000000273575Y000002759422D01*
D02*
X000000271997Y000002759043D01*
D02*
X000000270401Y000002758748D01*
D02*
X000000268792Y000002758535D01*
D02*
X000000267173Y000002758408D01*
D02*
X000000265551Y000002758366D01*
D02*
X000000003444D01*
D02*
Y000002820373D01*
Y000002920374D02*
X000000265551D01*
D02*
X000000267173Y000002920331D01*
D02*
X000000268792Y000002920204D01*
D02*
X000000270401Y000002919992D01*
D02*
X000000271997Y000002919696D01*
D02*
X000000273575Y000002919317D01*
D02*
X000000275131Y000002918856D01*
D02*
X000000276661Y000002918314D01*
D02*
X000000278161Y000002917693D01*
D02*
X000000279626Y000002916994D01*
D02*
X000000281053Y000002916220D01*
D02*
X000000282437Y000002915371D01*
D02*
X000000283774Y000002914452D01*
D02*
X000000285062Y000002913464D01*
D02*
X000000286296Y000002912410D01*
D02*
X000000287474Y000002911293D01*
D02*
X000000288591Y000002910115D01*
D02*
X000000289645Y000002908881D01*
D02*
X000000290633Y000002907593D01*
D02*
X000000291553Y000002906255D01*
D02*
X000000292401Y000002904871D01*
D02*
X000000293176Y000002903445D01*
D02*
X000000293874Y000002901980D01*
D02*
X000000294495Y000002900480D01*
D02*
X000000295037Y000002898950D01*
D02*
X000000295498Y000002897394D01*
D02*
X000000295877Y000002895816D01*
D02*
X000000296173Y000002894220D01*
D02*
X000000296385Y000002892611D01*
D02*
X000000296512Y000002890992D01*
D02*
X000000296555Y000002889370D01*
D02*
X000000296512Y000002887747D01*
D02*
X000000296385Y000002886129D01*
D02*
X000000296173Y000002884520D01*
D02*
X000000295877Y000002882924D01*
D02*
X000000295498Y000002881345D01*
D02*
X000000295037Y000002879789D01*
D02*
X000000294495Y000002878259D01*
D02*
X000000293874Y000002876759D01*
D02*
X000000293176Y000002875294D01*
D02*
X000000292401Y000002873868D01*
D02*
X000000291553Y000002872484D01*
D02*
X000000290633Y000002871146D01*
D02*
X000000289645Y000002869858D01*
D02*
X000000288591Y000002868624D01*
D02*
X000000287474Y000002867446D01*
D02*
X000000286296Y000002866329D01*
D02*
X000000285062Y000002865275D01*
D02*
X000000283774Y000002864287D01*
D02*
X000000282437Y000002863368D01*
D02*
X000000281053Y000002862519D01*
D02*
X000000279626Y000002861745D01*
D02*
X000000278161Y000002861046D01*
D02*
X000000276661Y000002860425D01*
D02*
X000000275131Y000002859883D01*
D02*
X000000273575Y000002859422D01*
D02*
X000000271997Y000002859043D01*
D02*
X000000270401Y000002858748D01*
D02*
X000000268792Y000002858535D01*
D02*
X000000267173Y000002858408D01*
D02*
X000000265551Y000002858366D01*
D02*
X000000003444D01*
D02*
Y000002920374D01*
Y000003020374D02*
X000000265551D01*
D02*
X000000267173Y000003020331D01*
D02*
X000000268792Y000003020204D01*
D02*
X000000270401Y000003019992D01*
D02*
X000000271997Y000003019696D01*
D02*
X000000273575Y000003019317D01*
D02*
X000000275131Y000003018856D01*
D02*
X000000276661Y000003018314D01*
D02*
X000000278161Y000003017693D01*
D02*
X000000279626Y000003016994D01*
D02*
X000000281053Y000003016220D01*
D02*
X000000282437Y000003015371D01*
D02*
X000000283774Y000003014452D01*
D02*
X000000285062Y000003013464D01*
D02*
X000000286296Y000003012410D01*
D02*
X000000287474Y000003011293D01*
D02*
X000000288591Y000003010115D01*
D02*
X000000289645Y000003008881D01*
D02*
X000000290633Y000003007593D01*
D02*
X000000291553Y000003006255D01*
D02*
X000000292401Y000003004871D01*
D02*
X000000293176Y000003003445D01*
D02*
X000000293874Y000003001980D01*
D02*
X000000294495Y000003000480D01*
D02*
X000000295037Y000002998950D01*
D02*
X000000295498Y000002997394D01*
D02*
X000000295877Y000002995816D01*
D02*
X000000296173Y000002994220D01*
D02*
X000000296385Y000002992610D01*
D02*
X000000296512Y000002990992D01*
D02*
X000000296555Y000002989370D01*
D02*
X000000296512Y000002987747D01*
D02*
X000000296385Y000002986129D01*
D02*
X000000296173Y000002984520D01*
D02*
X000000295877Y000002982924D01*
D02*
X000000295498Y000002981345D01*
D02*
X000000295037Y000002979789D01*
D02*
X000000294495Y000002978259D01*
D02*
X000000293874Y000002976759D01*
D02*
X000000293176Y000002975294D01*
D02*
X000000292401Y000002973868D01*
D02*
X000000291553Y000002972484D01*
D02*
X000000290633Y000002971146D01*
D02*
X000000289645Y000002969858D01*
D02*
X000000288591Y000002968624D01*
D02*
X000000287474Y000002967446D01*
D02*
X000000286296Y000002966329D01*
D02*
X000000285062Y000002965275D01*
D02*
X000000283774Y000002964287D01*
D02*
X000000282437Y000002963368D01*
D02*
X000000281053Y000002962519D01*
D02*
X000000279626Y000002961745D01*
D02*
X000000278161Y000002961046D01*
D02*
X000000276661Y000002960425D01*
D02*
X000000275131Y000002959883D01*
D02*
X000000273575Y000002959422D01*
D02*
X000000271997Y000002959043D01*
D02*
X000000270401Y000002958748D01*
D02*
X000000268792Y000002958535D01*
D02*
X000000267173Y000002958408D01*
D02*
X000000265551Y000002958366D01*
D02*
X000000003444D01*
D02*
Y000003020374D01*
Y000003120374D02*
X000000265551D01*
D02*
X000000267173Y000003120331D01*
D02*
X000000268792Y000003120204D01*
D02*
X000000270401Y000003119992D01*
D02*
X000000271997Y000003119696D01*
D02*
X000000273575Y000003119317D01*
D02*
X000000275131Y000003118856D01*
D02*
X000000276661Y000003118314D01*
D02*
X000000278161Y000003117693D01*
D02*
X000000279626Y000003116994D01*
D02*
X000000281053Y000003116220D01*
D02*
X000000282437Y000003115372D01*
D02*
X000000283774Y000003114452D01*
D02*
X000000285062Y000003113464D01*
D02*
X000000286296Y000003112410D01*
D02*
X000000287474Y000003111293D01*
D02*
X000000288591Y000003110115D01*
D02*
X000000289645Y000003108881D01*
D02*
X000000290633Y000003107593D01*
D02*
X000000291553Y000003106255D01*
D02*
X000000292401Y000003104872D01*
D02*
X000000293176Y000003103445D01*
D02*
X000000293874Y000003101980D01*
D02*
X000000294495Y000003100480D01*
D02*
X000000295037Y000003098950D01*
D02*
X000000295498Y000003097394D01*
D02*
X000000295877Y000003095816D01*
D02*
X000000296173Y000003094220D01*
D02*
X000000296385Y000003092611D01*
D02*
X000000296512Y000003090992D01*
D02*
X000000296555Y000003089370D01*
D02*
X000000296512Y000003087747D01*
D02*
X000000296385Y000003086129D01*
D02*
X000000296173Y000003084520D01*
D02*
X000000295877Y000003082924D01*
D02*
X000000295498Y000003081345D01*
D02*
X000000295037Y000003079789D01*
D02*
X000000294495Y000003078259D01*
D02*
X000000293874Y000003076759D01*
D02*
X000000293176Y000003075294D01*
D02*
X000000292401Y000003073868D01*
D02*
X000000291553Y000003072484D01*
D02*
X000000290633Y000003071146D01*
D02*
X000000289645Y000003069858D01*
D02*
X000000288591Y000003068624D01*
D02*
X000000287474Y000003067446D01*
D02*
X000000286296Y000003066329D01*
D02*
X000000285062Y000003065275D01*
D02*
X000000283774Y000003064287D01*
D02*
X000000282437Y000003063368D01*
D02*
X000000281053Y000003062519D01*
D02*
X000000279626Y000003061745D01*
D02*
X000000278161Y000003061046D01*
D02*
X000000276661Y000003060425D01*
D02*
X000000275131Y000003059883D01*
D02*
X000000273575Y000003059422D01*
D02*
X000000271997Y000003059043D01*
D02*
X000000270401Y000003058748D01*
D02*
X000000268792Y000003058535D01*
D02*
X000000267173Y000003058408D01*
D02*
X000000265551Y000003058366D01*
D02*
X000000003444D01*
D02*
Y000003120374D01*
Y000003220373D02*
X000000265551D01*
D02*
X000000267173Y000003220331D01*
D02*
X000000268792Y000003220204D01*
D02*
X000000270401Y000003219992D01*
D02*
X000000271997Y000003219696D01*
D02*
X000000273575Y000003219317D01*
D02*
X000000275131Y000003218856D01*
D02*
X000000276661Y000003218314D01*
D02*
X000000278161Y000003217693D01*
D02*
X000000279626Y000003216994D01*
D02*
X000000281053Y000003216220D01*
D02*
X000000282437Y000003215372D01*
D02*
X000000283774Y000003214452D01*
D02*
X000000285062Y000003213464D01*
D02*
X000000286296Y000003212410D01*
D02*
X000000287474Y000003211293D01*
D02*
X000000288591Y000003210115D01*
D02*
X000000289645Y000003208881D01*
D02*
X000000290633Y000003207593D01*
D02*
X000000291553Y000003206255D01*
D02*
X000000292401Y000003204872D01*
D02*
X000000293176Y000003203445D01*
D02*
X000000293874Y000003201980D01*
D02*
X000000294495Y000003200480D01*
D02*
X000000295037Y000003198950D01*
D02*
X000000295498Y000003197394D01*
D02*
X000000295877Y000003195816D01*
D02*
X000000296173Y000003194220D01*
D02*
X000000296385Y000003192611D01*
D02*
X000000296512Y000003190992D01*
D02*
X000000296555Y000003189370D01*
D02*
X000000296512Y000003187747D01*
D02*
X000000296385Y000003186129D01*
D02*
X000000296173Y000003184520D01*
D02*
X000000295877Y000003182924D01*
D02*
X000000295498Y000003181345D01*
D02*
X000000295037Y000003179789D01*
D02*
X000000294495Y000003178259D01*
D02*
X000000293874Y000003176759D01*
D02*
X000000293176Y000003175294D01*
D02*
X000000292401Y000003173868D01*
D02*
X000000291553Y000003172484D01*
D02*
X000000290633Y000003171146D01*
D02*
X000000289645Y000003169858D01*
D02*
X000000288591Y000003168624D01*
D02*
X000000287474Y000003167446D01*
D02*
X000000286296Y000003166329D01*
D02*
X000000285062Y000003165275D01*
D02*
X000000283774Y000003164287D01*
D02*
X000000282437Y000003163368D01*
D02*
X000000281053Y000003162519D01*
D02*
X000000279626Y000003161745D01*
D02*
X000000278161Y000003161046D01*
D02*
X000000276661Y000003160425D01*
D02*
X000000275131Y000003159883D01*
D02*
X000000273575Y000003159422D01*
D02*
X000000271997Y000003159043D01*
D02*
X000000270401Y000003158748D01*
D02*
X000000268792Y000003158535D01*
D02*
X000000267173Y000003158408D01*
D02*
X000000265551Y000003158366D01*
D02*
X000000003444D01*
D02*
Y000003220373D01*
Y000003320373D02*
X000000265551D01*
D02*
X000000267173Y000003320331D01*
D02*
X000000268792Y000003320204D01*
D02*
X000000270401Y000003319992D01*
D02*
X000000271997Y000003319696D01*
D02*
X000000273575Y000003319317D01*
D02*
X000000275131Y000003318856D01*
D02*
X000000276661Y000003318314D01*
D02*
X000000278161Y000003317693D01*
D02*
X000000279626Y000003316994D01*
D02*
X000000281053Y000003316220D01*
D02*
X000000282437Y000003315372D01*
D02*
X000000283774Y000003314452D01*
D02*
X000000285062Y000003313464D01*
D02*
X000000286296Y000003312410D01*
D02*
X000000287474Y000003311293D01*
D02*
X000000288591Y000003310115D01*
D02*
X000000289645Y000003308881D01*
D02*
X000000290633Y000003307593D01*
D02*
X000000291553Y000003306255D01*
D02*
X000000292401Y000003304872D01*
D02*
X000000293176Y000003303445D01*
D02*
X000000293874Y000003301980D01*
D02*
X000000294495Y000003300480D01*
D02*
X000000295037Y000003298950D01*
D02*
X000000295498Y000003297394D01*
D02*
X000000295877Y000003295816D01*
D02*
X000000296173Y000003294220D01*
D02*
X000000296385Y000003292611D01*
D02*
X000000296512Y000003290992D01*
D02*
X000000296555Y000003289370D01*
D02*
X000000296512Y000003287747D01*
D02*
X000000296385Y000003286129D01*
D02*
X000000296173Y000003284520D01*
D02*
X000000295877Y000003282924D01*
D02*
X000000295498Y000003281345D01*
D02*
X000000295037Y000003279789D01*
D02*
X000000294495Y000003278259D01*
D02*
X000000293874Y000003276759D01*
D02*
X000000293176Y000003275294D01*
D02*
X000000292401Y000003273868D01*
D02*
X000000291553Y000003272484D01*
D02*
X000000290633Y000003271146D01*
D02*
X000000289645Y000003269858D01*
D02*
X000000288591Y000003268624D01*
D02*
X000000287474Y000003267446D01*
D02*
X000000286296Y000003266329D01*
D02*
X000000285062Y000003265275D01*
D02*
X000000283774Y000003264287D01*
D02*
X000000282437Y000003263368D01*
D02*
X000000281053Y000003262519D01*
D02*
X000000279626Y000003261745D01*
D02*
X000000278161Y000003261046D01*
D02*
X000000276661Y000003260425D01*
D02*
X000000275131Y000003259883D01*
D02*
X000000273575Y000003259422D01*
D02*
X000000271997Y000003259043D01*
D02*
X000000270401Y000003258748D01*
D02*
X000000268792Y000003258535D01*
D02*
X000000267173Y000003258408D01*
D02*
X000000265551Y000003258366D01*
D02*
X000000003444D01*
D02*
Y000003320373D01*
Y000003420374D02*
X000000265551D01*
D02*
X000000267173Y000003420331D01*
D02*
X000000268792Y000003420204D01*
D02*
X000000270401Y000003419992D01*
D02*
X000000271997Y000003419696D01*
D02*
X000000273575Y000003419317D01*
D02*
X000000275131Y000003418856D01*
D02*
X000000276661Y000003418314D01*
D02*
X000000278161Y000003417693D01*
D02*
X000000279626Y000003416994D01*
D02*
X000000281053Y000003416220D01*
D02*
X000000282437Y000003415371D01*
D02*
X000000283774Y000003414452D01*
D02*
X000000285062Y000003413464D01*
D02*
X000000286296Y000003412410D01*
D02*
X000000287474Y000003411293D01*
D02*
X000000288591Y000003410115D01*
D02*
X000000289645Y000003408881D01*
D02*
X000000290633Y000003407593D01*
D02*
X000000291553Y000003406255D01*
D02*
X000000292401Y000003404871D01*
D02*
X000000293176Y000003403445D01*
D02*
X000000293874Y000003401980D01*
D02*
X000000294495Y000003400480D01*
D02*
X000000295037Y000003398950D01*
D02*
X000000295498Y000003397394D01*
D02*
X000000295877Y000003395816D01*
D02*
X000000296173Y000003394220D01*
D02*
X000000296385Y000003392611D01*
D02*
X000000296512Y000003390992D01*
D02*
X000000296555Y000003389370D01*
D02*
X000000296512Y000003387747D01*
D02*
X000000296385Y000003386129D01*
D02*
X000000296173Y000003384520D01*
D02*
X000000295877Y000003382924D01*
D02*
X000000295498Y000003381345D01*
D02*
X000000295037Y000003379789D01*
D02*
X000000294495Y000003378259D01*
D02*
X000000293874Y000003376759D01*
D02*
X000000293176Y000003375294D01*
D02*
X000000292401Y000003373868D01*
D02*
X000000291553Y000003372484D01*
D02*
X000000290633Y000003371146D01*
D02*
X000000289645Y000003369858D01*
D02*
X000000288591Y000003368624D01*
D02*
X000000287474Y000003367446D01*
D02*
X000000286296Y000003366329D01*
D02*
X000000285062Y000003365275D01*
D02*
X000000283774Y000003364287D01*
D02*
X000000282437Y000003363368D01*
D02*
X000000281053Y000003362519D01*
D02*
X000000279626Y000003361745D01*
D02*
X000000278161Y000003361046D01*
D02*
X000000276661Y000003360425D01*
D02*
X000000275131Y000003359883D01*
D02*
X000000273575Y000003359422D01*
D02*
X000000271997Y000003359043D01*
D02*
X000000270401Y000003358748D01*
D02*
X000000268792Y000003358535D01*
D02*
X000000267173Y000003358408D01*
D02*
X000000265551Y000003358366D01*
D02*
X000000003444D01*
D02*
Y000003420374D01*
Y000003520374D02*
X000000265551D01*
D02*
X000000267173Y000003520331D01*
D02*
X000000268792Y000003520204D01*
D02*
X000000270401Y000003519992D01*
D02*
X000000271997Y000003519696D01*
D02*
X000000273575Y000003519317D01*
D02*
X000000275131Y000003518856D01*
D02*
X000000276661Y000003518314D01*
D02*
X000000278161Y000003517693D01*
D02*
X000000279626Y000003516994D01*
D02*
X000000281053Y000003516220D01*
D02*
X000000282437Y000003515371D01*
D02*
X000000283774Y000003514452D01*
D02*
X000000285062Y000003513464D01*
D02*
X000000286296Y000003512410D01*
D02*
X000000287474Y000003511293D01*
D02*
X000000288591Y000003510115D01*
D02*
X000000289645Y000003508881D01*
D02*
X000000290633Y000003507593D01*
D02*
X000000291553Y000003506255D01*
D02*
X000000292401Y000003504871D01*
D02*
X000000293176Y000003503445D01*
D02*
X000000293874Y000003501980D01*
D02*
X000000294495Y000003500480D01*
D02*
X000000295037Y000003498950D01*
D02*
X000000295498Y000003497394D01*
D02*
X000000295877Y000003495816D01*
D02*
X000000296173Y000003494220D01*
D02*
X000000296385Y000003492610D01*
D02*
X000000296512Y000003490992D01*
D02*
X000000296555Y000003489370D01*
D02*
X000000296512Y000003487747D01*
D02*
X000000296385Y000003486129D01*
D02*
X000000296173Y000003484520D01*
D02*
X000000295877Y000003482924D01*
D02*
X000000295498Y000003481345D01*
D02*
X000000295037Y000003479789D01*
D02*
X000000294495Y000003478259D01*
D02*
X000000293874Y000003476759D01*
D02*
X000000293176Y000003475294D01*
D02*
X000000292401Y000003473868D01*
D02*
X000000291553Y000003472484D01*
D02*
X000000290633Y000003471146D01*
D02*
X000000289645Y000003469858D01*
D02*
X000000288591Y000003468624D01*
D02*
X000000287474Y000003467446D01*
D02*
X000000286296Y000003466329D01*
D02*
X000000285062Y000003465275D01*
D02*
X000000283774Y000003464287D01*
D02*
X000000282437Y000003463368D01*
D02*
X000000281053Y000003462519D01*
D02*
X000000279626Y000003461745D01*
D02*
X000000278161Y000003461046D01*
D02*
X000000276661Y000003460425D01*
D02*
X000000275131Y000003459883D01*
D02*
X000000273575Y000003459422D01*
D02*
X000000271997Y000003459043D01*
D02*
X000000270401Y000003458748D01*
D02*
X000000268792Y000003458535D01*
D02*
X000000267173Y000003458408D01*
D02*
X000000265551Y000003458366D01*
D02*
X000000003444D01*
D02*
Y000003520374D01*
Y000003620374D02*
X000000265551D01*
D02*
X000000267173Y000003620331D01*
D02*
X000000268792Y000003620204D01*
D02*
X000000270401Y000003619992D01*
D02*
X000000271997Y000003619696D01*
D02*
X000000273575Y000003619317D01*
D02*
X000000275131Y000003618856D01*
D02*
X000000276661Y000003618314D01*
D02*
X000000278161Y000003617693D01*
D02*
X000000279626Y000003616994D01*
D02*
X000000281053Y000003616220D01*
D02*
X000000282437Y000003615372D01*
D02*
X000000283774Y000003614452D01*
D02*
X000000285062Y000003613464D01*
D02*
X000000286296Y000003612410D01*
D02*
X000000287474Y000003611293D01*
D02*
X000000288591Y000003610115D01*
D02*
X000000289645Y000003608881D01*
D02*
X000000290633Y000003607593D01*
D02*
X000000291553Y000003606255D01*
D02*
X000000292401Y000003604872D01*
D02*
X000000293176Y000003603445D01*
D02*
X000000293874Y000003601980D01*
D02*
X000000294495Y000003600480D01*
D02*
X000000295037Y000003598950D01*
D02*
X000000295498Y000003597394D01*
D02*
X000000295877Y000003595816D01*
D02*
X000000296173Y000003594220D01*
D02*
X000000296385Y000003592611D01*
D02*
X000000296512Y000003590992D01*
D02*
X000000296555Y000003589370D01*
D02*
X000000296512Y000003587747D01*
D02*
X000000296385Y000003586129D01*
D02*
X000000296173Y000003584520D01*
D02*
X000000295877Y000003582924D01*
D02*
X000000295498Y000003581345D01*
D02*
X000000295037Y000003579789D01*
D02*
X000000294495Y000003578259D01*
D02*
X000000293874Y000003576759D01*
D02*
X000000293176Y000003575294D01*
D02*
X000000292401Y000003573868D01*
D02*
X000000291553Y000003572484D01*
D02*
X000000290633Y000003571146D01*
D02*
X000000289645Y000003569858D01*
D02*
X000000288591Y000003568624D01*
D02*
X000000287474Y000003567446D01*
D02*
X000000286296Y000003566329D01*
D02*
X000000285062Y000003565275D01*
D02*
X000000283774Y000003564287D01*
D02*
X000000282437Y000003563368D01*
D02*
X000000281053Y000003562519D01*
D02*
X000000279626Y000003561745D01*
D02*
X000000278161Y000003561046D01*
D02*
X000000276661Y000003560425D01*
D02*
X000000275131Y000003559883D01*
D02*
X000000273575Y000003559422D01*
D02*
X000000271997Y000003559043D01*
D02*
X000000270401Y000003558748D01*
D02*
X000000268792Y000003558535D01*
D02*
X000000267173Y000003558408D01*
D02*
X000000265551Y000003558366D01*
D02*
X000000003444D01*
D02*
Y000003620374D01*
Y000003720373D02*
X000000265551D01*
D02*
X000000267173Y000003720331D01*
D02*
X000000268792Y000003720204D01*
D02*
X000000270401Y000003719992D01*
D02*
X000000271997Y000003719696D01*
D02*
X000000273575Y000003719317D01*
D02*
X000000275131Y000003718856D01*
D02*
X000000276661Y000003718314D01*
D02*
X000000278161Y000003717693D01*
D02*
X000000279626Y000003716994D01*
D02*
X000000281053Y000003716220D01*
D02*
X000000282437Y000003715372D01*
D02*
X000000283774Y000003714452D01*
D02*
X000000285062Y000003713464D01*
D02*
X000000286296Y000003712410D01*
D02*
X000000287474Y000003711293D01*
D02*
X000000288591Y000003710115D01*
D02*
X000000289645Y000003708881D01*
D02*
X000000290633Y000003707593D01*
D02*
X000000291553Y000003706255D01*
D02*
X000000292401Y000003704872D01*
D02*
X000000293176Y000003703445D01*
D02*
X000000293874Y000003701980D01*
D02*
X000000294495Y000003700480D01*
D02*
X000000295037Y000003698950D01*
D02*
X000000295498Y000003697394D01*
D02*
X000000295877Y000003695816D01*
D02*
X000000296173Y000003694220D01*
D02*
X000000296385Y000003692611D01*
D02*
X000000296512Y000003690992D01*
D02*
X000000296555Y000003689370D01*
D02*
X000000296512Y000003687747D01*
D02*
X000000296385Y000003686129D01*
D02*
X000000296173Y000003684520D01*
D02*
X000000295877Y000003682924D01*
D02*
X000000295498Y000003681345D01*
D02*
X000000295037Y000003679789D01*
D02*
X000000294495Y000003678259D01*
D02*
X000000293874Y000003676759D01*
D02*
X000000293176Y000003675294D01*
D02*
X000000292401Y000003673868D01*
D02*
X000000291553Y000003672484D01*
D02*
X000000290633Y000003671146D01*
D02*
X000000289645Y000003669858D01*
D02*
X000000288591Y000003668624D01*
D02*
X000000287474Y000003667446D01*
D02*
X000000286296Y000003666329D01*
D02*
X000000285062Y000003665275D01*
D02*
X000000283774Y000003664287D01*
D02*
X000000282437Y000003663368D01*
D02*
X000000281053Y000003662519D01*
D02*
X000000279626Y000003661745D01*
D02*
X000000278161Y000003661046D01*
D02*
X000000276661Y000003660425D01*
D02*
X000000275131Y000003659883D01*
D02*
X000000273575Y000003659422D01*
D02*
X000000271997Y000003659043D01*
D02*
X000000270401Y000003658748D01*
D02*
X000000268792Y000003658535D01*
D02*
X000000267173Y000003658408D01*
D02*
X000000265551Y000003658366D01*
D02*
X000000003444D01*
D02*
Y000003720373D01*
Y000003820373D02*
X000000265551D01*
D02*
X000000267173Y000003820331D01*
D02*
X000000268792Y000003820204D01*
D02*
X000000270401Y000003819992D01*
D02*
X000000271997Y000003819696D01*
D02*
X000000273575Y000003819317D01*
D02*
X000000275131Y000003818856D01*
D02*
X000000276661Y000003818314D01*
D02*
X000000278161Y000003817693D01*
D02*
X000000279626Y000003816994D01*
D02*
X000000281053Y000003816220D01*
D02*
X000000282437Y000003815372D01*
D02*
X000000283774Y000003814452D01*
D02*
X000000285062Y000003813464D01*
D02*
X000000286296Y000003812410D01*
D02*
X000000287474Y000003811293D01*
D02*
X000000288591Y000003810115D01*
D02*
X000000289645Y000003808881D01*
D02*
X000000290633Y000003807593D01*
D02*
X000000291553Y000003806255D01*
D02*
X000000292401Y000003804872D01*
D02*
X000000293176Y000003803445D01*
D02*
X000000293874Y000003801980D01*
D02*
X000000294495Y000003800480D01*
D02*
X000000295037Y000003798950D01*
D02*
X000000295498Y000003797394D01*
D02*
X000000295877Y000003795816D01*
D02*
X000000296173Y000003794220D01*
D02*
X000000296385Y000003792611D01*
D02*
X000000296512Y000003790992D01*
D02*
X000000296555Y000003789370D01*
D02*
X000000296512Y000003787747D01*
D02*
X000000296385Y000003786129D01*
D02*
X000000296173Y000003784520D01*
D02*
X000000295877Y000003782924D01*
D02*
X000000295498Y000003781345D01*
D02*
X000000295037Y000003779789D01*
D02*
X000000294495Y000003778259D01*
D02*
X000000293874Y000003776759D01*
D02*
X000000293176Y000003775294D01*
D02*
X000000292401Y000003773868D01*
D02*
X000000291553Y000003772484D01*
D02*
X000000290633Y000003771146D01*
D02*
X000000289645Y000003769858D01*
D02*
X000000288591Y000003768624D01*
D02*
X000000287474Y000003767446D01*
D02*
X000000286296Y000003766329D01*
D02*
X000000285062Y000003765275D01*
D02*
X000000283774Y000003764287D01*
D02*
X000000282437Y000003763368D01*
D02*
X000000281053Y000003762519D01*
D02*
X000000279626Y000003761745D01*
D02*
X000000278161Y000003761046D01*
D02*
X000000276661Y000003760425D01*
D02*
X000000275131Y000003759883D01*
D02*
X000000273575Y000003759422D01*
D02*
X000000271997Y000003759043D01*
D02*
X000000270401Y000003758748D01*
D02*
X000000268792Y000003758535D01*
D02*
X000000267173Y000003758408D01*
D02*
X000000265551Y000003758366D01*
D02*
X000000003444D01*
D02*
Y000003820373D01*
Y000003920374D02*
X000000265551D01*
D02*
X000000267173Y000003920331D01*
D02*
X000000268792Y000003920204D01*
D02*
X000000270401Y000003919992D01*
D02*
X000000271997Y000003919696D01*
D02*
X000000273575Y000003919317D01*
D02*
X000000275131Y000003918856D01*
D02*
X000000276661Y000003918314D01*
D02*
X000000278161Y000003917693D01*
D02*
X000000279626Y000003916994D01*
D02*
X000000281053Y000003916220D01*
D02*
X000000282437Y000003915371D01*
D02*
X000000283774Y000003914452D01*
D02*
X000000285062Y000003913464D01*
D02*
X000000286296Y000003912410D01*
D02*
X000000287474Y000003911293D01*
D02*
X000000288591Y000003910115D01*
D02*
X000000289645Y000003908881D01*
D02*
X000000290633Y000003907593D01*
D02*
X000000291553Y000003906255D01*
D02*
X000000292401Y000003904871D01*
D02*
X000000293176Y000003903445D01*
D02*
X000000293874Y000003901980D01*
D02*
X000000294495Y000003900480D01*
D02*
X000000295037Y000003898950D01*
D02*
X000000295498Y000003897394D01*
D02*
X000000295877Y000003895816D01*
D02*
X000000296173Y000003894220D01*
D02*
X000000296385Y000003892611D01*
D02*
X000000296512Y000003890992D01*
D02*
X000000296555Y000003889370D01*
D02*
X000000296512Y000003887747D01*
D02*
X000000296385Y000003886129D01*
D02*
X000000296173Y000003884520D01*
D02*
X000000295877Y000003882924D01*
D02*
X000000295498Y000003881345D01*
D02*
X000000295037Y000003879789D01*
D02*
X000000294495Y000003878259D01*
D02*
X000000293874Y000003876759D01*
D02*
X000000293176Y000003875294D01*
D02*
X000000292401Y000003873868D01*
D02*
X000000291553Y000003872484D01*
D02*
X000000290633Y000003871146D01*
D02*
X000000289645Y000003869858D01*
D02*
X000000288591Y000003868624D01*
D02*
X000000287474Y000003867446D01*
D02*
X000000286296Y000003866329D01*
D02*
X000000285062Y000003865275D01*
D02*
X000000283774Y000003864287D01*
D02*
X000000282437Y000003863368D01*
D02*
X000000281053Y000003862519D01*
D02*
X000000279626Y000003861745D01*
D02*
X000000278161Y000003861046D01*
D02*
X000000276661Y000003860425D01*
D02*
X000000275131Y000003859883D01*
D02*
X000000273575Y000003859422D01*
D02*
X000000271997Y000003859043D01*
D02*
X000000270401Y000003858748D01*
D02*
X000000268792Y000003858535D01*
D02*
X000000267173Y000003858408D01*
D02*
X000000265551Y000003858366D01*
D02*
X000000003444D01*
D02*
Y000003920374D01*
Y000004020373D02*
X000000265551D01*
D02*
X000000267173Y000004020331D01*
D02*
X000000268792Y000004020204D01*
D02*
X000000270401Y000004019992D01*
D02*
X000000271997Y000004019696D01*
D02*
X000000273575Y000004019317D01*
D02*
X000000275131Y000004018856D01*
D02*
X000000276661Y000004018314D01*
D02*
X000000278161Y000004017693D01*
D02*
X000000279626Y000004016994D01*
D02*
X000000281053Y000004016220D01*
D02*
X000000282437Y000004015372D01*
D02*
X000000283774Y000004014452D01*
D02*
X000000285062Y000004013464D01*
D02*
X000000286296Y000004012410D01*
D02*
X000000287474Y000004011293D01*
D02*
X000000288591Y000004010115D01*
D02*
X000000289645Y000004008881D01*
D02*
X000000290633Y000004007593D01*
D02*
X000000291553Y000004006255D01*
D02*
X000000292401Y000004004871D01*
D02*
X000000293176Y000004003445D01*
D02*
X000000293874Y000004001980D01*
D02*
X000000294495Y000004000480D01*
D02*
X000000295037Y000003998950D01*
D02*
X000000295498Y000003997394D01*
D02*
X000000295877Y000003995816D01*
D02*
X000000296173Y000003994220D01*
D02*
X000000296385Y000003992610D01*
D02*
X000000296512Y000003990992D01*
D02*
X000000296555Y000003989370D01*
D02*
X000000296512Y000003987747D01*
D02*
X000000296385Y000003986129D01*
D02*
X000000296173Y000003984520D01*
D02*
X000000295877Y000003982924D01*
D02*
X000000295498Y000003981345D01*
D02*
X000000295037Y000003979789D01*
D02*
X000000294495Y000003978259D01*
D02*
X000000293874Y000003976759D01*
D02*
X000000293176Y000003975294D01*
D02*
X000000292401Y000003973868D01*
D02*
X000000291553Y000003972484D01*
D02*
X000000290633Y000003971146D01*
D02*
X000000289645Y000003969858D01*
D02*
X000000288591Y000003968624D01*
D02*
X000000287474Y000003967446D01*
D02*
X000000286296Y000003966329D01*
D02*
X000000285062Y000003965275D01*
D02*
X000000283774Y000003964287D01*
D02*
X000000282437Y000003963368D01*
D02*
X000000281053Y000003962519D01*
D02*
X000000279626Y000003961745D01*
D02*
X000000278161Y000003961046D01*
D02*
X000000276661Y000003960425D01*
D02*
X000000275131Y000003959883D01*
D02*
X000000273575Y000003959422D01*
D02*
X000000271997Y000003959043D01*
D02*
X000000270401Y000003958748D01*
D02*
X000000268792Y000003958535D01*
D02*
X000000267173Y000003958408D01*
D02*
X000000265551Y000003958366D01*
D02*
X000000003444D01*
D02*
Y000004020373D01*
Y000004120374D02*
X000000265551D01*
D02*
X000000267173Y000004120331D01*
D02*
X000000268792Y000004120204D01*
D02*
X000000270401Y000004119992D01*
D02*
X000000271997Y000004119696D01*
D02*
X000000273575Y000004119317D01*
D02*
X000000275131Y000004118856D01*
D02*
X000000276661Y000004118314D01*
D02*
X000000278161Y000004117693D01*
D02*
X000000279626Y000004116994D01*
D02*
X000000281053Y000004116220D01*
D02*
X000000282437Y000004115372D01*
D02*
X000000283774Y000004114452D01*
D02*
X000000285062Y000004113464D01*
D02*
X000000286296Y000004112410D01*
D02*
X000000287474Y000004111293D01*
D02*
X000000288591Y000004110115D01*
D02*
X000000289645Y000004108881D01*
D02*
X000000290633Y000004107593D01*
D02*
X000000291553Y000004106255D01*
D02*
X000000292401Y000004104872D01*
D02*
X000000293176Y000004103445D01*
D02*
X000000293874Y000004101980D01*
D02*
X000000294495Y000004100480D01*
D02*
X000000295037Y000004098950D01*
D02*
X000000295498Y000004097394D01*
D02*
X000000295877Y000004095816D01*
D02*
X000000296173Y000004094220D01*
D02*
X000000296385Y000004092611D01*
D02*
X000000296512Y000004090992D01*
D02*
X000000296555Y000004089370D01*
D02*
X000000296512Y000004087747D01*
D02*
X000000296385Y000004086129D01*
D02*
X000000296173Y000004084520D01*
D02*
X000000295877Y000004082924D01*
D02*
X000000295498Y000004081345D01*
D02*
X000000295037Y000004079789D01*
D02*
X000000294495Y000004078259D01*
D02*
X000000293874Y000004076759D01*
D02*
X000000293176Y000004075294D01*
D02*
X000000292401Y000004073868D01*
D02*
X000000291553Y000004072484D01*
D02*
X000000290633Y000004071146D01*
D02*
X000000289645Y000004069858D01*
D02*
X000000288591Y000004068624D01*
D02*
X000000287474Y000004067446D01*
D02*
X000000286296Y000004066329D01*
D02*
X000000285062Y000004065275D01*
D02*
X000000283774Y000004064287D01*
D02*
X000000282437Y000004063368D01*
D02*
X000000281053Y000004062519D01*
D02*
X000000279626Y000004061745D01*
D02*
X000000278161Y000004061046D01*
D02*
X000000276661Y000004060425D01*
D02*
X000000275131Y000004059883D01*
D02*
X000000273575Y000004059422D01*
D02*
X000000271997Y000004059043D01*
D02*
X000000270401Y000004058748D01*
D02*
X000000268792Y000004058535D01*
D02*
X000000267173Y000004058408D01*
D02*
X000000265551Y000004058366D01*
D02*
X000000003444D01*
D02*
Y000004120374D01*
Y000004220374D02*
X000000265551D01*
D02*
X000000267173Y000004220331D01*
D02*
X000000268792Y000004220204D01*
D02*
X000000270401Y000004219992D01*
D02*
X000000271997Y000004219696D01*
D02*
X000000273575Y000004219317D01*
D02*
X000000275131Y000004218856D01*
D02*
X000000276661Y000004218314D01*
D02*
X000000278161Y000004217693D01*
D02*
X000000279626Y000004216994D01*
D02*
X000000281053Y000004216220D01*
D02*
X000000282437Y000004215372D01*
D02*
X000000283774Y000004214452D01*
D02*
X000000285062Y000004213464D01*
D02*
X000000286296Y000004212410D01*
D02*
X000000287474Y000004211293D01*
D02*
X000000288591Y000004210115D01*
D02*
X000000289645Y000004208881D01*
D02*
X000000290633Y000004207593D01*
D02*
X000000291553Y000004206255D01*
D02*
X000000292401Y000004204872D01*
D02*
X000000293176Y000004203445D01*
D02*
X000000293874Y000004201980D01*
D02*
X000000294495Y000004200480D01*
D02*
X000000295037Y000004198950D01*
D02*
X000000295498Y000004197394D01*
D02*
X000000295877Y000004195816D01*
D02*
X000000296173Y000004194220D01*
D02*
X000000296385Y000004192611D01*
D02*
X000000296512Y000004190992D01*
D02*
X000000296555Y000004189370D01*
D02*
X000000296512Y000004187747D01*
D02*
X000000296385Y000004186129D01*
D02*
X000000296173Y000004184520D01*
D02*
X000000295877Y000004182924D01*
D02*
X000000295498Y000004181345D01*
D02*
X000000295037Y000004179789D01*
D02*
X000000294495Y000004178259D01*
D02*
X000000293874Y000004176759D01*
D02*
X000000293176Y000004175294D01*
D02*
X000000292401Y000004173868D01*
D02*
X000000291553Y000004172484D01*
D02*
X000000290633Y000004171146D01*
D02*
X000000289645Y000004169858D01*
D02*
X000000288591Y000004168624D01*
D02*
X000000287474Y000004167446D01*
D02*
X000000286296Y000004166329D01*
D02*
X000000285062Y000004165275D01*
D02*
X000000283774Y000004164287D01*
D02*
X000000282437Y000004163368D01*
D02*
X000000281053Y000004162519D01*
D02*
X000000279626Y000004161745D01*
D02*
X000000278161Y000004161046D01*
D02*
X000000276661Y000004160425D01*
D02*
X000000275131Y000004159883D01*
D02*
X000000273575Y000004159422D01*
D02*
X000000271997Y000004159043D01*
D02*
X000000270401Y000004158747D01*
D02*
X000000268792Y000004158535D01*
D02*
X000000267173Y000004158408D01*
D02*
X000000265551Y000004158366D01*
D02*
X000000003444D01*
D02*
Y000004220374D01*
Y000004320374D02*
X000000265551D01*
D02*
X000000267173Y000004320331D01*
D02*
X000000268792Y000004320204D01*
D02*
X000000270401Y000004319992D01*
D02*
X000000271997Y000004319696D01*
D02*
X000000273575Y000004319317D01*
D02*
X000000275131Y000004318856D01*
D02*
X000000276661Y000004318314D01*
D02*
X000000278161Y000004317693D01*
D02*
X000000279626Y000004316994D01*
D02*
X000000281053Y000004316220D01*
D02*
X000000282437Y000004315372D01*
D02*
X000000283774Y000004314452D01*
D02*
X000000285062Y000004313464D01*
D02*
X000000286296Y000004312410D01*
D02*
X000000287474Y000004311293D01*
D02*
X000000288591Y000004310115D01*
D02*
X000000289645Y000004308881D01*
D02*
X000000290633Y000004307593D01*
D02*
X000000291553Y000004306255D01*
D02*
X000000292401Y000004304872D01*
D02*
X000000293176Y000004303445D01*
D02*
X000000293874Y000004301980D01*
D02*
X000000294495Y000004300480D01*
D02*
X000000295037Y000004298950D01*
D02*
X000000295498Y000004297394D01*
D02*
X000000295877Y000004295816D01*
D02*
X000000296173Y000004294220D01*
D02*
X000000296385Y000004292611D01*
D02*
X000000296512Y000004290992D01*
D02*
X000000296555Y000004289370D01*
D02*
X000000296512Y000004287747D01*
D02*
X000000296385Y000004286129D01*
D02*
X000000296173Y000004284520D01*
D02*
X000000295877Y000004282924D01*
D02*
X000000295498Y000004281345D01*
D02*
X000000295037Y000004279789D01*
D02*
X000000294495Y000004278259D01*
D02*
X000000293874Y000004276759D01*
D02*
X000000293176Y000004275294D01*
D02*
X000000292401Y000004273868D01*
D02*
X000000291553Y000004272484D01*
D02*
X000000290633Y000004271146D01*
D02*
X000000289645Y000004269858D01*
D02*
X000000288591Y000004268624D01*
D02*
X000000287474Y000004267446D01*
D02*
X000000286296Y000004266329D01*
D02*
X000000285062Y000004265275D01*
D02*
X000000283774Y000004264287D01*
D02*
X000000282437Y000004263368D01*
D02*
X000000281053Y000004262519D01*
D02*
X000000279626Y000004261745D01*
D02*
X000000278161Y000004261046D01*
D02*
X000000276661Y000004260425D01*
D02*
X000000275131Y000004259883D01*
D02*
X000000273575Y000004259422D01*
D02*
X000000271997Y000004259043D01*
D02*
X000000270401Y000004258748D01*
D02*
X000000268792Y000004258535D01*
D02*
X000000267173Y000004258408D01*
D02*
X000000265551Y000004258366D01*
D02*
X000000003444D01*
D02*
Y000004320374D01*
Y000004420374D02*
X000000265551D01*
D02*
X000000267173Y000004420331D01*
D02*
X000000268792Y000004420204D01*
D02*
X000000270401Y000004419992D01*
D02*
X000000271997Y000004419696D01*
D02*
X000000273575Y000004419317D01*
D02*
X000000275131Y000004418856D01*
D02*
X000000276661Y000004418314D01*
D02*
X000000278161Y000004417693D01*
D02*
X000000279626Y000004416994D01*
D02*
X000000281053Y000004416220D01*
D02*
X000000282437Y000004415372D01*
D02*
X000000283774Y000004414452D01*
D02*
X000000285062Y000004413464D01*
D02*
X000000286296Y000004412410D01*
D02*
X000000287474Y000004411293D01*
D02*
X000000288591Y000004410115D01*
D02*
X000000289645Y000004408881D01*
D02*
X000000290633Y000004407593D01*
D02*
X000000291553Y000004406255D01*
D02*
X000000292401Y000004404872D01*
D02*
X000000293176Y000004403445D01*
D02*
X000000293874Y000004401980D01*
D02*
X000000294495Y000004400480D01*
D02*
X000000295037Y000004398950D01*
D02*
X000000295498Y000004397394D01*
D02*
X000000295877Y000004395816D01*
D02*
X000000296173Y000004394220D01*
D02*
X000000296385Y000004392611D01*
D02*
X000000296512Y000004390992D01*
D02*
X000000296555Y000004389370D01*
D02*
X000000296512Y000004387747D01*
D02*
X000000296385Y000004386129D01*
D02*
X000000296173Y000004384520D01*
D02*
X000000295877Y000004382924D01*
D02*
X000000295498Y000004381345D01*
D02*
X000000295037Y000004379789D01*
D02*
X000000294495Y000004378259D01*
D02*
X000000293874Y000004376759D01*
D02*
X000000293176Y000004375294D01*
D02*
X000000292401Y000004373868D01*
D02*
X000000291553Y000004372484D01*
D02*
X000000290633Y000004371146D01*
D02*
X000000289645Y000004369858D01*
D02*
X000000288591Y000004368624D01*
D02*
X000000287474Y000004367446D01*
D02*
X000000286296Y000004366329D01*
D02*
X000000285062Y000004365275D01*
D02*
X000000283774Y000004364287D01*
D02*
X000000282437Y000004363368D01*
D02*
X000000281053Y000004362519D01*
D02*
X000000279626Y000004361745D01*
D02*
X000000278161Y000004361046D01*
D02*
X000000276661Y000004360425D01*
D02*
X000000275131Y000004359883D01*
D02*
X000000273575Y000004359422D01*
D02*
X000000271997Y000004359043D01*
D02*
X000000270401Y000004358747D01*
D02*
X000000268792Y000004358535D01*
D02*
X000000267173Y000004358408D01*
D02*
X000000265551Y000004358366D01*
D02*
X000000003444D01*
D02*
Y000004420374D01*
Y000004520373D02*
X000000265551D01*
D02*
X000000267173Y000004520331D01*
D02*
X000000268792Y000004520204D01*
D02*
X000000270401Y000004519992D01*
D02*
X000000271997Y000004519696D01*
D02*
X000000273575Y000004519317D01*
D02*
X000000275131Y000004518856D01*
D02*
X000000276661Y000004518314D01*
D02*
X000000278161Y000004517693D01*
D02*
X000000279626Y000004516994D01*
D02*
X000000281053Y000004516220D01*
D02*
X000000282437Y000004515372D01*
D02*
X000000283774Y000004514452D01*
D02*
X000000285062Y000004513464D01*
D02*
X000000286296Y000004512410D01*
D02*
X000000287474Y000004511293D01*
D02*
X000000288591Y000004510115D01*
D02*
X000000289645Y000004508881D01*
D02*
X000000290633Y000004507593D01*
D02*
X000000291553Y000004506255D01*
D02*
X000000292401Y000004504872D01*
D02*
X000000293176Y000004503445D01*
D02*
X000000293874Y000004501980D01*
D02*
X000000294495Y000004500480D01*
D02*
X000000295037Y000004498950D01*
D02*
X000000295498Y000004497394D01*
D02*
X000000295877Y000004495816D01*
D02*
X000000296173Y000004494220D01*
D02*
X000000296385Y000004492611D01*
D02*
X000000296512Y000004490992D01*
D02*
X000000296555Y000004489370D01*
D02*
X000000296512Y000004487747D01*
D02*
X000000296385Y000004486129D01*
D02*
X000000296173Y000004484520D01*
D02*
X000000295877Y000004482924D01*
D02*
X000000295498Y000004481345D01*
D02*
X000000295037Y000004479789D01*
D02*
X000000294495Y000004478259D01*
D02*
X000000293874Y000004476759D01*
D02*
X000000293176Y000004475294D01*
D02*
X000000292401Y000004473868D01*
D02*
X000000291553Y000004472484D01*
D02*
X000000290633Y000004471146D01*
D02*
X000000289645Y000004469858D01*
D02*
X000000288591Y000004468624D01*
D02*
X000000287474Y000004467446D01*
D02*
X000000286296Y000004466329D01*
D02*
X000000285062Y000004465275D01*
D02*
X000000283774Y000004464287D01*
D02*
X000000282437Y000004463368D01*
D02*
X000000281053Y000004462519D01*
D02*
X000000279626Y000004461745D01*
D02*
X000000278161Y000004461046D01*
D02*
X000000276661Y000004460425D01*
D02*
X000000275131Y000004459883D01*
D02*
X000000273575Y000004459422D01*
D02*
X000000271997Y000004459043D01*
D02*
X000000270401Y000004458748D01*
D02*
X000000268792Y000004458535D01*
D02*
X000000267173Y000004458408D01*
D02*
X000000265551Y000004458366D01*
D02*
X000000003444D01*
D02*
Y000004520373D01*
Y000004620374D02*
X000000265551D01*
D02*
X000000267173Y000004620331D01*
D02*
X000000268792Y000004620204D01*
D02*
X000000270401Y000004619992D01*
D02*
X000000271997Y000004619696D01*
D02*
X000000273575Y000004619317D01*
D02*
X000000275131Y000004618856D01*
D02*
X000000276661Y000004618314D01*
D02*
X000000278161Y000004617693D01*
D02*
X000000279626Y000004616994D01*
D02*
X000000281053Y000004616220D01*
D02*
X000000282437Y000004615372D01*
D02*
X000000283774Y000004614452D01*
D02*
X000000285062Y000004613464D01*
D02*
X000000286296Y000004612410D01*
D02*
X000000287474Y000004611293D01*
D02*
X000000288591Y000004610115D01*
D02*
X000000289645Y000004608881D01*
D02*
X000000290633Y000004607593D01*
D02*
X000000291553Y000004606255D01*
D02*
X000000292401Y000004604872D01*
D02*
X000000293176Y000004603445D01*
D02*
X000000293874Y000004601980D01*
D02*
X000000294495Y000004600480D01*
D02*
X000000295037Y000004598950D01*
D02*
X000000295498Y000004597394D01*
D02*
X000000295877Y000004595816D01*
D02*
X000000296173Y000004594220D01*
D02*
X000000296385Y000004592611D01*
D02*
X000000296512Y000004590992D01*
D02*
X000000296555Y000004589370D01*
D02*
X000000296512Y000004587747D01*
D02*
X000000296385Y000004586129D01*
D02*
X000000296173Y000004584520D01*
D02*
X000000295877Y000004582924D01*
D02*
X000000295498Y000004581345D01*
D02*
X000000295037Y000004579789D01*
D02*
X000000294495Y000004578259D01*
D02*
X000000293874Y000004576759D01*
D02*
X000000293176Y000004575294D01*
D02*
X000000292401Y000004573868D01*
D02*
X000000291553Y000004572484D01*
D02*
X000000290633Y000004571146D01*
D02*
X000000289645Y000004569858D01*
D02*
X000000288591Y000004568624D01*
D02*
X000000287474Y000004567446D01*
D02*
X000000286296Y000004566329D01*
D02*
X000000285062Y000004565275D01*
D02*
X000000283774Y000004564287D01*
D02*
X000000282437Y000004563368D01*
D02*
X000000281053Y000004562519D01*
D02*
X000000279626Y000004561745D01*
D02*
X000000278161Y000004561046D01*
D02*
X000000276661Y000004560425D01*
D02*
X000000275131Y000004559883D01*
D02*
X000000273575Y000004559422D01*
D02*
X000000271997Y000004559043D01*
D02*
X000000270401Y000004558748D01*
D02*
X000000268792Y000004558535D01*
D02*
X000000267173Y000004558408D01*
D02*
X000000265551Y000004558366D01*
D02*
X000000003444D01*
D02*
Y000004620374D01*
Y000004720374D02*
X000000265551D01*
D02*
X000000267173Y000004720331D01*
D02*
X000000268792Y000004720204D01*
D02*
X000000270401Y000004719992D01*
D02*
X000000271997Y000004719696D01*
D02*
X000000273575Y000004719317D01*
D02*
X000000275131Y000004718856D01*
D02*
X000000276661Y000004718314D01*
D02*
X000000278161Y000004717693D01*
D02*
X000000279626Y000004716994D01*
D02*
X000000281053Y000004716220D01*
D02*
X000000282437Y000004715372D01*
D02*
X000000283774Y000004714452D01*
D02*
X000000285062Y000004713464D01*
D02*
X000000286296Y000004712410D01*
D02*
X000000287474Y000004711293D01*
D02*
X000000288591Y000004710115D01*
D02*
X000000289645Y000004708881D01*
D02*
X000000290633Y000004707593D01*
D02*
X000000291553Y000004706255D01*
D02*
X000000292401Y000004704872D01*
D02*
X000000293176Y000004703445D01*
D02*
X000000293874Y000004701980D01*
D02*
X000000294495Y000004700480D01*
D02*
X000000295037Y000004698950D01*
D02*
X000000295498Y000004697394D01*
D02*
X000000295877Y000004695816D01*
D02*
X000000296173Y000004694220D01*
D02*
X000000296385Y000004692611D01*
D02*
X000000296512Y000004690992D01*
D02*
X000000296555Y000004689370D01*
D02*
X000000296512Y000004687747D01*
D02*
X000000296385Y000004686129D01*
D02*
X000000296173Y000004684520D01*
D02*
X000000295877Y000004682924D01*
D02*
X000000295498Y000004681345D01*
D02*
X000000295037Y000004679789D01*
D02*
X000000294495Y000004678259D01*
D02*
X000000293874Y000004676759D01*
D02*
X000000293176Y000004675294D01*
D02*
X000000292401Y000004673868D01*
D02*
X000000291553Y000004672484D01*
D02*
X000000290633Y000004671146D01*
D02*
X000000289645Y000004669858D01*
D02*
X000000288591Y000004668624D01*
D02*
X000000287474Y000004667446D01*
D02*
X000000286296Y000004666329D01*
D02*
X000000285062Y000004665275D01*
D02*
X000000283774Y000004664287D01*
D02*
X000000282437Y000004663368D01*
D02*
X000000281053Y000004662519D01*
D02*
X000000279626Y000004661745D01*
D02*
X000000278161Y000004661046D01*
D02*
X000000276661Y000004660425D01*
D02*
X000000275131Y000004659883D01*
D02*
X000000273575Y000004659422D01*
D02*
X000000271997Y000004659043D01*
D02*
X000000270401Y000004658747D01*
D02*
X000000268792Y000004658535D01*
D02*
X000000267173Y000004658408D01*
D02*
X000000265551Y000004658366D01*
D02*
X000000003444D01*
D02*
Y000004720374D01*
Y000004820374D02*
X000000265551D01*
D02*
X000000267173Y000004820331D01*
D02*
X000000268792Y000004820204D01*
D02*
X000000270401Y000004819992D01*
D02*
X000000271997Y000004819696D01*
D02*
X000000273575Y000004819317D01*
D02*
X000000275131Y000004818856D01*
D02*
X000000276661Y000004818314D01*
D02*
X000000278161Y000004817693D01*
D02*
X000000279626Y000004816994D01*
D02*
X000000281053Y000004816220D01*
D02*
X000000282437Y000004815372D01*
D02*
X000000283774Y000004814452D01*
D02*
X000000285062Y000004813464D01*
D02*
X000000286296Y000004812410D01*
D02*
X000000287474Y000004811293D01*
D02*
X000000288591Y000004810115D01*
D02*
X000000289645Y000004808881D01*
D02*
X000000290633Y000004807593D01*
D02*
X000000291553Y000004806255D01*
D02*
X000000292401Y000004804872D01*
D02*
X000000293176Y000004803445D01*
D02*
X000000293874Y000004801980D01*
D02*
X000000294495Y000004800480D01*
D02*
X000000295037Y000004798950D01*
D02*
X000000295498Y000004797394D01*
D02*
X000000295877Y000004795816D01*
D02*
X000000296173Y000004794220D01*
D02*
X000000296385Y000004792611D01*
D02*
X000000296512Y000004790992D01*
D02*
X000000296555Y000004789370D01*
D02*
X000000296512Y000004787747D01*
D02*
X000000296385Y000004786129D01*
D02*
X000000296173Y000004784520D01*
D02*
X000000295877Y000004782924D01*
D02*
X000000295498Y000004781345D01*
D02*
X000000295037Y000004779789D01*
D02*
X000000294495Y000004778259D01*
D02*
X000000293874Y000004776759D01*
D02*
X000000293176Y000004775294D01*
D02*
X000000292401Y000004773868D01*
D02*
X000000291553Y000004772484D01*
D02*
X000000290633Y000004771146D01*
D02*
X000000289645Y000004769858D01*
D02*
X000000288591Y000004768624D01*
D02*
X000000287474Y000004767446D01*
D02*
X000000286296Y000004766329D01*
D02*
X000000285062Y000004765275D01*
D02*
X000000283774Y000004764287D01*
D02*
X000000282437Y000004763368D01*
D02*
X000000281053Y000004762519D01*
D02*
X000000279626Y000004761745D01*
D02*
X000000278161Y000004761046D01*
D02*
X000000276661Y000004760425D01*
D02*
X000000275131Y000004759883D01*
D02*
X000000273575Y000004759422D01*
D02*
X000000271997Y000004759043D01*
D02*
X000000270401Y000004758748D01*
D02*
X000000268792Y000004758535D01*
D02*
X000000267173Y000004758408D01*
D02*
X000000265551Y000004758366D01*
D02*
X000000003444D01*
D02*
Y000004820374D01*
Y000004920374D02*
X000000265551D01*
D02*
X000000267173Y000004920331D01*
D02*
X000000268792Y000004920204D01*
D02*
X000000270401Y000004919992D01*
D02*
X000000271997Y000004919696D01*
D02*
X000000273575Y000004919317D01*
D02*
X000000275131Y000004918856D01*
D02*
X000000276661Y000004918314D01*
D02*
X000000278161Y000004917693D01*
D02*
X000000279626Y000004916994D01*
D02*
X000000281053Y000004916220D01*
D02*
X000000282437Y000004915372D01*
D02*
X000000283774Y000004914452D01*
D02*
X000000285062Y000004913464D01*
D02*
X000000286296Y000004912410D01*
D02*
X000000287474Y000004911293D01*
D02*
X000000288591Y000004910115D01*
D02*
X000000289645Y000004908881D01*
D02*
X000000290633Y000004907593D01*
D02*
X000000291553Y000004906255D01*
D02*
X000000292401Y000004904872D01*
D02*
X000000293176Y000004903445D01*
D02*
X000000293874Y000004901980D01*
D02*
X000000294495Y000004900480D01*
D02*
X000000295037Y000004898950D01*
D02*
X000000295498Y000004897394D01*
D02*
X000000295877Y000004895816D01*
D02*
X000000296173Y000004894220D01*
D02*
X000000296385Y000004892611D01*
D02*
X000000296512Y000004890992D01*
D02*
X000000296555Y000004889370D01*
D02*
X000000296512Y000004887747D01*
D02*
X000000296385Y000004886129D01*
D02*
X000000296173Y000004884520D01*
D02*
X000000295877Y000004882924D01*
D02*
X000000295498Y000004881345D01*
D02*
X000000295037Y000004879789D01*
D02*
X000000294495Y000004878259D01*
D02*
X000000293874Y000004876759D01*
D02*
X000000293176Y000004875294D01*
D02*
X000000292401Y000004873868D01*
D02*
X000000291553Y000004872484D01*
D02*
X000000290633Y000004871146D01*
D02*
X000000289645Y000004869858D01*
D02*
X000000288591Y000004868624D01*
D02*
X000000287474Y000004867446D01*
D02*
X000000286296Y000004866329D01*
D02*
X000000285062Y000004865275D01*
D02*
X000000283774Y000004864287D01*
D02*
X000000282437Y000004863368D01*
D02*
X000000281053Y000004862519D01*
D02*
X000000279626Y000004861745D01*
D02*
X000000278161Y000004861046D01*
D02*
X000000276661Y000004860425D01*
D02*
X000000275131Y000004859883D01*
D02*
X000000273575Y000004859422D01*
D02*
X000000271997Y000004859043D01*
D02*
X000000270401Y000004858747D01*
D02*
X000000268792Y000004858535D01*
D02*
X000000267173Y000004858408D01*
D02*
X000000265551Y000004858366D01*
D02*
X000000003444D01*
D02*
Y000004920374D01*
Y000005020373D02*
X000000265551D01*
D02*
X000000267173Y000005020331D01*
D02*
X000000268792Y000005020204D01*
D02*
X000000270401Y000005019992D01*
D02*
X000000271997Y000005019696D01*
D02*
X000000273575Y000005019317D01*
D02*
X000000275131Y000005018856D01*
D02*
X000000276661Y000005018314D01*
D02*
X000000278161Y000005017693D01*
D02*
X000000279626Y000005016994D01*
D02*
X000000281053Y000005016220D01*
D02*
X000000282437Y000005015372D01*
D02*
X000000283774Y000005014452D01*
D02*
X000000285062Y000005013464D01*
D02*
X000000286296Y000005012410D01*
D02*
X000000287474Y000005011293D01*
D02*
X000000288591Y000005010115D01*
D02*
X000000289645Y000005008881D01*
D02*
X000000290633Y000005007593D01*
D02*
X000000291553Y000005006255D01*
D02*
X000000292401Y000005004872D01*
D02*
X000000293176Y000005003445D01*
D02*
X000000293874Y000005001980D01*
D02*
X000000294495Y000005000480D01*
D02*
X000000295037Y000004998950D01*
D02*
X000000295498Y000004997394D01*
D02*
X000000295877Y000004995816D01*
D02*
X000000296173Y000004994220D01*
D02*
X000000296385Y000004992611D01*
D02*
X000000296512Y000004990992D01*
D02*
X000000296555Y000004989370D01*
D02*
X000000296512Y000004987747D01*
D02*
X000000296385Y000004986129D01*
D02*
X000000296173Y000004984520D01*
D02*
X000000295877Y000004982924D01*
D02*
X000000295498Y000004981345D01*
D02*
X000000295037Y000004979789D01*
D02*
X000000294495Y000004978259D01*
D02*
X000000293874Y000004976759D01*
D02*
X000000293176Y000004975294D01*
D02*
X000000292401Y000004973868D01*
D02*
X000000291553Y000004972484D01*
D02*
X000000290633Y000004971146D01*
D02*
X000000289645Y000004969858D01*
D02*
X000000288591Y000004968624D01*
D02*
X000000287474Y000004967446D01*
D02*
X000000286296Y000004966329D01*
D02*
X000000285062Y000004965275D01*
D02*
X000000283774Y000004964287D01*
D02*
X000000282437Y000004963368D01*
D02*
X000000281053Y000004962519D01*
D02*
X000000279626Y000004961745D01*
D02*
X000000278161Y000004961046D01*
D02*
X000000276661Y000004960425D01*
D02*
X000000275131Y000004959883D01*
D02*
X000000273575Y000004959422D01*
D02*
X000000271997Y000004959043D01*
D02*
X000000270401Y000004958748D01*
D02*
X000000268792Y000004958535D01*
D02*
X000000267173Y000004958408D01*
D02*
X000000265551Y000004958366D01*
D02*
X000000003444D01*
D02*
Y000005020373D01*
Y000005120374D02*
X000000265551D01*
D02*
X000000267173Y000005120331D01*
D02*
X000000268792Y000005120204D01*
D02*
X000000270401Y000005119992D01*
D02*
X000000271997Y000005119696D01*
D02*
X000000273575Y000005119317D01*
D02*
X000000275131Y000005118856D01*
D02*
X000000276661Y000005118314D01*
D02*
X000000278161Y000005117693D01*
D02*
X000000279626Y000005116994D01*
D02*
X000000281053Y000005116220D01*
D02*
X000000282437Y000005115372D01*
D02*
X000000283774Y000005114452D01*
D02*
X000000285062Y000005113464D01*
D02*
X000000286296Y000005112410D01*
D02*
X000000287474Y000005111293D01*
D02*
X000000288591Y000005110115D01*
D02*
X000000289645Y000005108881D01*
D02*
X000000290633Y000005107593D01*
D02*
X000000291553Y000005106255D01*
D02*
X000000292401Y000005104872D01*
D02*
X000000293176Y000005103445D01*
D02*
X000000293874Y000005101980D01*
D02*
X000000294495Y000005100480D01*
D02*
X000000295037Y000005098950D01*
D02*
X000000295498Y000005097394D01*
D02*
X000000295877Y000005095816D01*
D02*
X000000296173Y000005094220D01*
D02*
X000000296385Y000005092611D01*
D02*
X000000296512Y000005090992D01*
D02*
X000000296555Y000005089370D01*
D02*
X000000296512Y000005087747D01*
D02*
X000000296385Y000005086129D01*
D02*
X000000296173Y000005084520D01*
D02*
X000000295877Y000005082924D01*
D02*
X000000295498Y000005081345D01*
D02*
X000000295037Y000005079789D01*
D02*
X000000294495Y000005078259D01*
D02*
X000000293874Y000005076759D01*
D02*
X000000293176Y000005075294D01*
D02*
X000000292401Y000005073868D01*
D02*
X000000291553Y000005072484D01*
D02*
X000000290633Y000005071146D01*
D02*
X000000289645Y000005069858D01*
D02*
X000000288591Y000005068624D01*
D02*
X000000287474Y000005067446D01*
D02*
X000000286296Y000005066329D01*
D02*
X000000285062Y000005065275D01*
D02*
X000000283774Y000005064287D01*
D02*
X000000282437Y000005063368D01*
D02*
X000000281053Y000005062519D01*
D02*
X000000279626Y000005061745D01*
D02*
X000000278161Y000005061046D01*
D02*
X000000276661Y000005060425D01*
D02*
X000000275131Y000005059883D01*
D02*
X000000273575Y000005059422D01*
D02*
X000000271997Y000005059043D01*
D02*
X000000270401Y000005058748D01*
D02*
X000000268792Y000005058535D01*
D02*
X000000267173Y000005058408D01*
D02*
X000000265551Y000005058366D01*
D02*
X000000003444D01*
D02*
Y000005120374D01*
Y000005220374D02*
X000000265551D01*
D02*
X000000267173Y000005220331D01*
D02*
X000000268792Y000005220204D01*
D02*
X000000270401Y000005219992D01*
D02*
X000000271997Y000005219696D01*
D02*
X000000273575Y000005219317D01*
D02*
X000000275131Y000005218856D01*
D02*
X000000276661Y000005218314D01*
D02*
X000000278161Y000005217693D01*
D02*
X000000279626Y000005216994D01*
D02*
X000000281053Y000005216220D01*
D02*
X000000282437Y000005215372D01*
D02*
X000000283774Y000005214452D01*
D02*
X000000285062Y000005213464D01*
D02*
X000000286296Y000005212410D01*
D02*
X000000287474Y000005211293D01*
D02*
X000000288591Y000005210115D01*
D02*
X000000289645Y000005208881D01*
D02*
X000000290633Y000005207593D01*
D02*
X000000291553Y000005206255D01*
D02*
X000000292401Y000005204872D01*
D02*
X000000293176Y000005203445D01*
D02*
X000000293874Y000005201980D01*
D02*
X000000294495Y000005200480D01*
D02*
X000000295037Y000005198950D01*
D02*
X000000295498Y000005197394D01*
D02*
X000000295877Y000005195816D01*
D02*
X000000296173Y000005194220D01*
D02*
X000000296385Y000005192611D01*
D02*
X000000296512Y000005190992D01*
D02*
X000000296555Y000005189370D01*
D02*
X000000296512Y000005187747D01*
D02*
X000000296385Y000005186129D01*
D02*
X000000296173Y000005184520D01*
D02*
X000000295877Y000005182924D01*
D02*
X000000295498Y000005181345D01*
D02*
X000000295037Y000005179789D01*
D02*
X000000294495Y000005178259D01*
D02*
X000000293874Y000005176759D01*
D02*
X000000293176Y000005175294D01*
D02*
X000000292401Y000005173868D01*
D02*
X000000291553Y000005172484D01*
D02*
X000000290633Y000005171146D01*
D02*
X000000289645Y000005169858D01*
D02*
X000000288591Y000005168624D01*
D02*
X000000287474Y000005167446D01*
D02*
X000000286296Y000005166329D01*
D02*
X000000285062Y000005165275D01*
D02*
X000000283774Y000005164287D01*
D02*
X000000282437Y000005163368D01*
D02*
X000000281053Y000005162519D01*
D02*
X000000279626Y000005161745D01*
D02*
X000000278161Y000005161046D01*
D02*
X000000276661Y000005160425D01*
D02*
X000000275131Y000005159883D01*
D02*
X000000273575Y000005159422D01*
D02*
X000000271997Y000005159043D01*
D02*
X000000270401Y000005158747D01*
D02*
X000000268792Y000005158535D01*
D02*
X000000267173Y000005158408D01*
D02*
X000000265551Y000005158366D01*
D02*
X000000003444D01*
D02*
Y000005220374D01*
Y000005320374D02*
X000000265551D01*
D02*
X000000267173Y000005320331D01*
D02*
X000000268792Y000005320204D01*
D02*
X000000270401Y000005319992D01*
D02*
X000000271997Y000005319696D01*
D02*
X000000273575Y000005319317D01*
D02*
X000000275131Y000005318856D01*
D02*
X000000276661Y000005318314D01*
D02*
X000000278161Y000005317693D01*
D02*
X000000279626Y000005316994D01*
D02*
X000000281053Y000005316220D01*
D02*
X000000282437Y000005315372D01*
D02*
X000000283774Y000005314452D01*
D02*
X000000285062Y000005313464D01*
D02*
X000000286296Y000005312410D01*
D02*
X000000287474Y000005311293D01*
D02*
X000000288591Y000005310115D01*
D02*
X000000289645Y000005308881D01*
D02*
X000000290633Y000005307593D01*
D02*
X000000291553Y000005306255D01*
D02*
X000000292401Y000005304872D01*
D02*
X000000293176Y000005303445D01*
D02*
X000000293874Y000005301980D01*
D02*
X000000294495Y000005300480D01*
D02*
X000000295037Y000005298950D01*
D02*
X000000295498Y000005297394D01*
D02*
X000000295877Y000005295816D01*
D02*
X000000296173Y000005294220D01*
D02*
X000000296385Y000005292611D01*
D02*
X000000296512Y000005290992D01*
D02*
X000000296555Y000005289370D01*
D02*
X000000296512Y000005287747D01*
D02*
X000000296385Y000005286129D01*
D02*
X000000296173Y000005284520D01*
D02*
X000000295877Y000005282924D01*
D02*
X000000295498Y000005281345D01*
D02*
X000000295037Y000005279789D01*
D02*
X000000294495Y000005278259D01*
D02*
X000000293874Y000005276759D01*
D02*
X000000293176Y000005275294D01*
D02*
X000000292401Y000005273868D01*
D02*
X000000291553Y000005272484D01*
D02*
X000000290633Y000005271146D01*
D02*
X000000289645Y000005269858D01*
D02*
X000000288591Y000005268624D01*
D02*
X000000287474Y000005267446D01*
D02*
X000000286296Y000005266329D01*
D02*
X000000285062Y000005265275D01*
D02*
X000000283774Y000005264287D01*
D02*
X000000282437Y000005263368D01*
D02*
X000000281053Y000005262519D01*
D02*
X000000279626Y000005261745D01*
D02*
X000000278161Y000005261046D01*
D02*
X000000276661Y000005260425D01*
D02*
X000000275131Y000005259883D01*
D02*
X000000273575Y000005259422D01*
D02*
X000000271997Y000005259043D01*
D02*
X000000270401Y000005258748D01*
D02*
X000000268792Y000005258535D01*
D02*
X000000267173Y000005258408D01*
D02*
X000000265551Y000005258366D01*
D02*
X000000003444D01*
D02*
Y000005320374D01*
Y000005420374D02*
X000000265551D01*
D02*
X000000267173Y000005420331D01*
D02*
X000000268792Y000005420204D01*
D02*
X000000270401Y000005419992D01*
D02*
X000000271997Y000005419696D01*
D02*
X000000273575Y000005419317D01*
D02*
X000000275131Y000005418856D01*
D02*
X000000276661Y000005418314D01*
D02*
X000000278161Y000005417693D01*
D02*
X000000279626Y000005416994D01*
D02*
X000000281053Y000005416220D01*
D02*
X000000282437Y000005415372D01*
D02*
X000000283774Y000005414452D01*
D02*
X000000285062Y000005413464D01*
D02*
X000000286296Y000005412410D01*
D02*
X000000287474Y000005411293D01*
D02*
X000000288591Y000005410115D01*
D02*
X000000289645Y000005408881D01*
D02*
X000000290633Y000005407593D01*
D02*
X000000291553Y000005406255D01*
D02*
X000000292401Y000005404872D01*
D02*
X000000293176Y000005403445D01*
D02*
X000000293874Y000005401980D01*
D02*
X000000294495Y000005400480D01*
D02*
X000000295037Y000005398950D01*
D02*
X000000295498Y000005397394D01*
D02*
X000000295877Y000005395816D01*
D02*
X000000296173Y000005394220D01*
D02*
X000000296385Y000005392611D01*
D02*
X000000296512Y000005390992D01*
D02*
X000000296555Y000005389370D01*
D02*
X000000296512Y000005387747D01*
D02*
X000000296385Y000005386129D01*
D02*
X000000296173Y000005384520D01*
D02*
X000000295877Y000005382924D01*
D02*
X000000295498Y000005381345D01*
D02*
X000000295037Y000005379789D01*
D02*
X000000294495Y000005378259D01*
D02*
X000000293874Y000005376759D01*
D02*
X000000293176Y000005375294D01*
D02*
X000000292401Y000005373868D01*
D02*
X000000291553Y000005372484D01*
D02*
X000000290633Y000005371146D01*
D02*
X000000289645Y000005369858D01*
D02*
X000000288591Y000005368624D01*
D02*
X000000287474Y000005367446D01*
D02*
X000000286296Y000005366329D01*
D02*
X000000285062Y000005365275D01*
D02*
X000000283774Y000005364287D01*
D02*
X000000282437Y000005363368D01*
D02*
X000000281053Y000005362519D01*
D02*
X000000279626Y000005361745D01*
D02*
X000000278161Y000005361046D01*
D02*
X000000276661Y000005360425D01*
D02*
X000000275131Y000005359883D01*
D02*
X000000273575Y000005359422D01*
D02*
X000000271997Y000005359043D01*
D02*
X000000270401Y000005358747D01*
D02*
X000000268792Y000005358535D01*
D02*
X000000267173Y000005358408D01*
D02*
X000000265551Y000005358366D01*
D02*
X000000003444D01*
D02*
Y000005420374D01*
G54D13*
X000000003444Y000000520374D02*
X000000265551D01*
X000000003444Y000000515551D02*
X000000282144D01*
X000000003444Y000000510728D02*
X000000288010D01*
X000000003444Y000000505905D02*
X000000291767D01*
X000000003444Y000000501082D02*
X000000294246D01*
X000000003444Y000000496260D02*
X000000295771D01*
X000000003444Y000000491437D02*
X000000296477D01*
X000000003444Y000000486614D02*
X000000296423D01*
X000000003444Y000000481791D02*
X000000295605D01*
X000000003444Y000000476968D02*
X000000293961D01*
X000000003444Y000000472146D02*
X000000291320D01*
X000000003444Y000000467323D02*
X000000287344D01*
X000000003444Y000000462500D02*
X000000281017D01*
X000000003444Y000000620374D02*
X000000265551D01*
X000000003444Y000000615551D02*
X000000282144D01*
X000000003444Y000000610728D02*
X000000288010D01*
X000000003444Y000000605905D02*
X000000291767D01*
X000000003444Y000000601082D02*
X000000294246D01*
X000000003444Y000000596260D02*
X000000295771D01*
X000000003444Y000000591437D02*
X000000296477D01*
X000000003444Y000000586614D02*
X000000296423D01*
X000000003444Y000000581791D02*
X000000295605D01*
X000000003444Y000000576968D02*
X000000293961D01*
X000000003444Y000000572145D02*
X000000291320D01*
X000000003444Y000000567323D02*
X000000287344D01*
X000000003444Y000000562500D02*
X000000281017D01*
X000000003444Y000000720374D02*
X000000265551D01*
X000000003444Y000000715551D02*
X000000282144D01*
X000000003444Y000000710728D02*
X000000288010D01*
X000000003444Y000000705905D02*
X000000291767D01*
X000000003444Y000000701082D02*
X000000294246D01*
X000000003444Y000000696260D02*
X000000295771D01*
X000000003444Y000000691437D02*
X000000296477D01*
X000000003444Y000000686614D02*
X000000296423D01*
X000000003444Y000000681791D02*
X000000295605D01*
X000000003444Y000000676968D02*
X000000293961D01*
X000000003444Y000000672145D02*
X000000291320D01*
X000000003444Y000000667323D02*
X000000287344D01*
X000000003444Y000000662500D02*
X000000281017D01*
X000000003444Y000000820374D02*
X000000265551D01*
X000000003444Y000000815551D02*
X000000282144D01*
X000000003444Y000000810728D02*
X000000288010D01*
X000000003444Y000000805905D02*
X000000291767D01*
X000000003444Y000000801082D02*
X000000294246D01*
X000000003444Y000000796260D02*
X000000295771D01*
X000000003444Y000000791437D02*
X000000296477D01*
X000000003444Y000000786614D02*
X000000296423D01*
X000000003444Y000000781791D02*
X000000295605D01*
X000000003444Y000000776968D02*
X000000293961D01*
X000000003444Y000000772146D02*
X000000291320D01*
X000000003444Y000000767323D02*
X000000287344D01*
X000000003444Y000000762500D02*
X000000281017D01*
X000000003444Y000000920374D02*
X000000265551D01*
X000000003444Y000000915551D02*
X000000282144D01*
X000000003444Y000000910728D02*
X000000288010D01*
X000000003444Y000000905905D02*
X000000291767D01*
X000000003444Y000000901082D02*
X000000294246D01*
X000000003444Y000000896260D02*
X000000295771D01*
X000000003444Y000000891437D02*
X000000296477D01*
X000000003444Y000000886614D02*
X000000296423D01*
X000000003444Y000000881791D02*
X000000295605D01*
X000000003444Y000000876968D02*
X000000293961D01*
X000000003444Y000000872146D02*
X000000291320D01*
X000000003444Y000000867323D02*
X000000287344D01*
X000000003444Y000000862500D02*
X000000281017D01*
X000000003444Y000001020374D02*
X000000265551D01*
X000000003444Y000001015551D02*
X000000282144D01*
X000000003444Y000001010728D02*
X000000288010D01*
X000000003444Y000001005905D02*
X000000291767D01*
X000000003444Y000001001082D02*
X000000294246D01*
X000000003444Y000000996260D02*
X000000295771D01*
X000000003444Y000000991437D02*
X000000296477D01*
X000000003444Y000000986614D02*
X000000296423D01*
X000000003444Y000000981791D02*
X000000295605D01*
X000000003444Y000000976968D02*
X000000293961D01*
X000000003444Y000000972146D02*
X000000291320D01*
X000000003444Y000000967323D02*
X000000287344D01*
X000000003444Y000000962500D02*
X000000281017D01*
X000000003444Y000001120374D02*
X000000265551D01*
X000000003444Y000001115551D02*
X000000282144D01*
X000000003444Y000001110728D02*
X000000288010D01*
X000000003444Y000001105905D02*
X000000291767D01*
X000000003444Y000001101082D02*
X000000294246D01*
X000000003444Y000001096260D02*
X000000295771D01*
X000000003444Y000001091437D02*
X000000296477D01*
X000000003444Y000001086614D02*
X000000296423D01*
X000000003444Y000001081791D02*
X000000295605D01*
X000000003444Y000001076968D02*
X000000293961D01*
X000000003444Y000001072146D02*
X000000291320D01*
X000000003444Y000001067323D02*
X000000287344D01*
X000000003444Y000001062500D02*
X000000281017D01*
X000000003444Y000001220374D02*
X000000265551D01*
X000000003444Y000001215551D02*
X000000282144D01*
X000000003444Y000001210728D02*
X000000288010D01*
X000000003444Y000001205905D02*
X000000291767D01*
X000000003444Y000001201082D02*
X000000294246D01*
X000000003444Y000001196260D02*
X000000295771D01*
X000000003444Y000001191437D02*
X000000296477D01*
X000000003444Y000001186614D02*
X000000296423D01*
X000000003444Y000001181791D02*
X000000295605D01*
X000000003444Y000001176968D02*
X000000293961D01*
X000000003444Y000001172146D02*
X000000291320D01*
X000000003444Y000001167323D02*
X000000287344D01*
X000000003444Y000001162500D02*
X000000281017D01*
X000000003444Y000001320374D02*
X000000265551D01*
X000000003444Y000001315551D02*
X000000282144D01*
X000000003444Y000001310728D02*
X000000288010D01*
X000000003444Y000001305905D02*
X000000291767D01*
X000000003444Y000001301082D02*
X000000294246D01*
X000000003444Y000001296260D02*
X000000295771D01*
X000000003444Y000001291437D02*
X000000296477D01*
X000000003444Y000001286614D02*
X000000296423D01*
X000000003444Y000001281791D02*
X000000295605D01*
X000000003444Y000001276968D02*
X000000293961D01*
X000000003444Y000001272146D02*
X000000291320D01*
X000000003444Y000001267323D02*
X000000287344D01*
X000000003444Y000001262500D02*
X000000281017D01*
X000000003444Y000001420374D02*
X000000265551D01*
X000000003444Y000001415551D02*
X000000282144D01*
X000000003444Y000001410728D02*
X000000288010D01*
X000000003444Y000001405905D02*
X000000291767D01*
X000000003444Y000001401082D02*
X000000294246D01*
X000000003444Y000001396260D02*
X000000295771D01*
X000000003444Y000001391437D02*
X000000296477D01*
X000000003444Y000001386614D02*
X000000296423D01*
X000000003444Y000001381791D02*
X000000295605D01*
X000000003444Y000001376968D02*
X000000293961D01*
X000000003444Y000001372145D02*
X000000291320D01*
X000000003444Y000001367323D02*
X000000287344D01*
X000000003444Y000001362500D02*
X000000281017D01*
X000000003444Y000001520374D02*
X000000265551D01*
X000000003444Y000001515551D02*
X000000282144D01*
X000000003444Y000001510728D02*
X000000288010D01*
X000000003444Y000001505905D02*
X000000291767D01*
X000000003444Y000001501082D02*
X000000294246D01*
X000000003444Y000001496260D02*
X000000295771D01*
X000000003444Y000001491437D02*
X000000296477D01*
X000000003444Y000001486614D02*
X000000296423D01*
X000000003444Y000001481791D02*
X000000295605D01*
X000000003444Y000001476968D02*
X000000293961D01*
X000000003444Y000001472146D02*
X000000291320D01*
X000000003444Y000001467323D02*
X000000287344D01*
X000000003444Y000001462500D02*
X000000281017D01*
X000000003444Y000001620374D02*
X000000265551D01*
X000000003444Y000001615551D02*
X000000282144D01*
X000000003444Y000001610728D02*
X000000288010D01*
X000000003444Y000001605905D02*
X000000291767D01*
X000000003444Y000001601082D02*
X000000294246D01*
X000000003444Y000001596260D02*
X000000295771D01*
X000000003444Y000001591437D02*
X000000296477D01*
X000000003444Y000001586614D02*
X000000296423D01*
X000000003444Y000001581791D02*
X000000295605D01*
X000000003444Y000001576968D02*
X000000293961D01*
X000000003444Y000001572146D02*
X000000291320D01*
X000000003444Y000001567323D02*
X000000287344D01*
X000000003444Y000001562500D02*
X000000281017D01*
X000000003444Y000001720374D02*
X000000265551D01*
X000000003444Y000001715551D02*
X000000282144D01*
X000000003444Y000001710728D02*
X000000288010D01*
X000000003444Y000001705905D02*
X000000291767D01*
X000000003444Y000001701082D02*
X000000294246D01*
X000000003444Y000001696260D02*
X000000295771D01*
X000000003444Y000001691437D02*
X000000296477D01*
X000000003444Y000001686614D02*
X000000296423D01*
X000000003444Y000001681791D02*
X000000295605D01*
X000000003444Y000001676968D02*
X000000293961D01*
X000000003444Y000001672146D02*
X000000291320D01*
X000000003444Y000001667323D02*
X000000287344D01*
X000000003444Y000001662500D02*
X000000281017D01*
X000000003444Y000001820374D02*
X000000265551D01*
X000000003444Y000001815551D02*
X000000282144D01*
X000000003444Y000001810728D02*
X000000288010D01*
X000000003444Y000001805905D02*
X000000291767D01*
X000000003444Y000001801082D02*
X000000294246D01*
X000000003444Y000001796260D02*
X000000295771D01*
X000000003444Y000001791437D02*
X000000296477D01*
X000000003444Y000001786614D02*
X000000296423D01*
X000000003444Y000001781791D02*
X000000295605D01*
X000000003444Y000001776968D02*
X000000293961D01*
X000000003444Y000001772146D02*
X000000291320D01*
X000000003444Y000001767323D02*
X000000287344D01*
X000000003444Y000001762500D02*
X000000281017D01*
X000000003444Y000001920374D02*
X000000265551D01*
X000000003444Y000001915551D02*
X000000282144D01*
X000000003444Y000001910728D02*
X000000288010D01*
X000000003444Y000001905905D02*
X000000291767D01*
X000000003444Y000001901082D02*
X000000294246D01*
X000000003444Y000001896260D02*
X000000295771D01*
X000000003444Y000001891437D02*
X000000296477D01*
X000000003444Y000001886614D02*
X000000296423D01*
X000000003444Y000001881791D02*
X000000295605D01*
X000000003444Y000001876968D02*
X000000293961D01*
X000000003444Y000001872145D02*
X000000291320D01*
X000000003444Y000001867323D02*
X000000287344D01*
X000000003444Y000001862500D02*
X000000281017D01*
X000000003444Y000002020374D02*
X000000265551D01*
X000000003444Y000002015551D02*
X000000282144D01*
X000000003444Y000002010728D02*
X000000288010D01*
X000000003444Y000002005905D02*
X000000291767D01*
X000000003444Y000002001082D02*
X000000294246D01*
X000000003444Y000001996260D02*
X000000295771D01*
X000000003444Y000001991437D02*
X000000296477D01*
X000000003444Y000001986614D02*
X000000296423D01*
X000000003444Y000001981791D02*
X000000295605D01*
X000000003444Y000001976968D02*
X000000293961D01*
X000000003444Y000001972146D02*
X000000291320D01*
X000000003444Y000001967323D02*
X000000287344D01*
X000000003444Y000001962500D02*
X000000281017D01*
X000000003444Y000002120374D02*
X000000265551D01*
X000000003444Y000002115551D02*
X000000282144D01*
X000000003444Y000002110728D02*
X000000288010D01*
X000000003444Y000002105905D02*
X000000291767D01*
X000000003444Y000002101082D02*
X000000294246D01*
X000000003444Y000002096260D02*
X000000295771D01*
X000000003444Y000002091437D02*
X000000296477D01*
X000000003444Y000002086614D02*
X000000296423D01*
X000000003444Y000002081791D02*
X000000295605D01*
X000000003444Y000002076968D02*
X000000293961D01*
X000000003444Y000002072146D02*
X000000291320D01*
X000000003444Y000002067323D02*
X000000287344D01*
X000000003444Y000002062500D02*
X000000281017D01*
X000000003444Y000002220373D02*
X000000265551D01*
X000000003444Y000002215551D02*
X000000282144D01*
X000000003444Y000002210728D02*
X000000288010D01*
X000000003444Y000002205905D02*
X000000291767D01*
X000000003444Y000002201082D02*
X000000294246D01*
X000000003444Y000002196260D02*
X000000295771D01*
X000000003444Y000002191437D02*
X000000296477D01*
X000000003444Y000002186614D02*
X000000296423D01*
X000000003444Y000002181791D02*
X000000295605D01*
X000000003444Y000002176968D02*
X000000293961D01*
X000000003444Y000002172146D02*
X000000291320D01*
X000000003444Y000002167323D02*
X000000287344D01*
X000000003444Y000002162500D02*
X000000281017D01*
X000000003444Y000002320373D02*
X000000265551D01*
X000000003444Y000002315551D02*
X000000282144D01*
X000000003444Y000002310728D02*
X000000288010D01*
X000000003444Y000002305905D02*
X000000291767D01*
X000000003444Y000002301082D02*
X000000294246D01*
X000000003444Y000002296260D02*
X000000295771D01*
X000000003444Y000002291437D02*
X000000296477D01*
X000000003444Y000002286614D02*
X000000296423D01*
X000000003444Y000002281791D02*
X000000295605D01*
X000000003444Y000002276968D02*
X000000293961D01*
X000000003444Y000002272146D02*
X000000291320D01*
X000000003444Y000002267323D02*
X000000287344D01*
X000000003444Y000002262500D02*
X000000281017D01*
X000000003444Y000002420374D02*
X000000265551D01*
X000000003444Y000002415551D02*
X000000282144D01*
X000000003444Y000002410728D02*
X000000288010D01*
X000000003444Y000002405905D02*
X000000291767D01*
X000000003444Y000002401082D02*
X000000294246D01*
X000000003444Y000002396260D02*
X000000295771D01*
X000000003444Y000002391437D02*
X000000296477D01*
X000000003444Y000002386614D02*
X000000296423D01*
X000000003444Y000002381791D02*
X000000295605D01*
X000000003444Y000002376968D02*
X000000293961D01*
X000000003444Y000002372146D02*
X000000291320D01*
X000000003444Y000002367323D02*
X000000287344D01*
X000000003444Y000002362500D02*
X000000281017D01*
X000000003444Y000002520374D02*
X000000265551D01*
X000000003444Y000002515551D02*
X000000282144D01*
X000000003444Y000002510728D02*
X000000288010D01*
X000000003444Y000002505905D02*
X000000291767D01*
X000000003444Y000002501082D02*
X000000294246D01*
X000000003444Y000002496260D02*
X000000295771D01*
X000000003444Y000002491437D02*
X000000296477D01*
X000000003444Y000002486614D02*
X000000296423D01*
X000000003444Y000002481791D02*
X000000295605D01*
X000000003444Y000002476968D02*
X000000293961D01*
X000000003444Y000002472146D02*
X000000291320D01*
X000000003444Y000002467323D02*
X000000287344D01*
X000000003444Y000002462500D02*
X000000281017D01*
X000000003444Y000002620374D02*
X000000265551D01*
X000000003444Y000002615551D02*
X000000282144D01*
X000000003444Y000002610728D02*
X000000288010D01*
X000000003444Y000002605905D02*
X000000291767D01*
X000000003444Y000002601082D02*
X000000294246D01*
X000000003444Y000002596260D02*
X000000295771D01*
X000000003444Y000002591437D02*
X000000296477D01*
X000000003444Y000002586614D02*
X000000296423D01*
X000000003444Y000002581791D02*
X000000295605D01*
X000000003444Y000002576968D02*
X000000293961D01*
X000000003444Y000002572146D02*
X000000291320D01*
X000000003444Y000002567323D02*
X000000287344D01*
X000000003444Y000002562500D02*
X000000281017D01*
X000000003444Y000002720373D02*
X000000265551D01*
X000000003444Y000002715551D02*
X000000282144D01*
X000000003444Y000002710728D02*
X000000288010D01*
X000000003444Y000002705905D02*
X000000291767D01*
X000000003444Y000002701082D02*
X000000294246D01*
X000000003444Y000002696260D02*
X000000295771D01*
X000000003444Y000002691437D02*
X000000296477D01*
X000000003444Y000002686614D02*
X000000296423D01*
X000000003444Y000002681791D02*
X000000295605D01*
X000000003444Y000002676968D02*
X000000293961D01*
X000000003444Y000002672146D02*
X000000291320D01*
X000000003444Y000002667323D02*
X000000287344D01*
X000000003444Y000002662500D02*
X000000281017D01*
X000000003444Y000002820373D02*
X000000265551D01*
X000000003444Y000002815551D02*
X000000282144D01*
X000000003444Y000002810728D02*
X000000288010D01*
X000000003444Y000002805905D02*
X000000291767D01*
X000000003444Y000002801082D02*
X000000294246D01*
X000000003444Y000002796260D02*
X000000295771D01*
X000000003444Y000002791437D02*
X000000296477D01*
X000000003444Y000002786614D02*
X000000296423D01*
X000000003444Y000002781791D02*
X000000295605D01*
X000000003444Y000002776968D02*
X000000293961D01*
X000000003444Y000002772146D02*
X000000291320D01*
X000000003444Y000002767323D02*
X000000287344D01*
X000000003444Y000002762500D02*
X000000281017D01*
X000000003444Y000002920374D02*
X000000265551D01*
X000000003444Y000002915551D02*
X000000282144D01*
X000000003444Y000002910728D02*
X000000288010D01*
X000000003444Y000002905905D02*
X000000291767D01*
X000000003444Y000002901082D02*
X000000294246D01*
X000000003444Y000002896260D02*
X000000295771D01*
X000000003444Y000002891437D02*
X000000296477D01*
X000000003444Y000002886614D02*
X000000296423D01*
X000000003444Y000002881791D02*
X000000295605D01*
X000000003444Y000002876968D02*
X000000293961D01*
X000000003444Y000002872146D02*
X000000291320D01*
X000000003444Y000002867323D02*
X000000287344D01*
X000000003444Y000002862500D02*
X000000281017D01*
X000000003444Y000003020374D02*
X000000265551D01*
X000000003444Y000003015551D02*
X000000282144D01*
X000000003444Y000003010728D02*
X000000288010D01*
X000000003444Y000003005905D02*
X000000291767D01*
X000000003444Y000003001082D02*
X000000294246D01*
X000000003444Y000002996260D02*
X000000295771D01*
X000000003444Y000002991437D02*
X000000296477D01*
X000000003444Y000002986614D02*
X000000296423D01*
X000000003444Y000002981791D02*
X000000295605D01*
X000000003444Y000002976968D02*
X000000293961D01*
X000000003444Y000002972146D02*
X000000291320D01*
X000000003444Y000002967323D02*
X000000287344D01*
X000000003444Y000002962500D02*
X000000281017D01*
X000000003444Y000003120374D02*
X000000265551D01*
X000000003444Y000003115551D02*
X000000282144D01*
X000000003444Y000003110728D02*
X000000288010D01*
X000000003444Y000003105905D02*
X000000291767D01*
X000000003444Y000003101082D02*
X000000294246D01*
X000000003444Y000003096260D02*
X000000295771D01*
X000000003444Y000003091437D02*
X000000296477D01*
X000000003444Y000003086614D02*
X000000296423D01*
X000000003444Y000003081791D02*
X000000295605D01*
X000000003444Y000003076968D02*
X000000293961D01*
X000000003444Y000003072146D02*
X000000291320D01*
X000000003444Y000003067323D02*
X000000287344D01*
X000000003444Y000003062500D02*
X000000281017D01*
X000000003444Y000003220373D02*
X000000265551D01*
X000000003444Y000003215551D02*
X000000282144D01*
X000000003444Y000003210728D02*
X000000288010D01*
X000000003444Y000003205905D02*
X000000291767D01*
X000000003444Y000003201082D02*
X000000294246D01*
X000000003444Y000003196260D02*
X000000295771D01*
X000000003444Y000003191437D02*
X000000296477D01*
X000000003444Y000003186614D02*
X000000296423D01*
X000000003444Y000003181791D02*
X000000295605D01*
X000000003444Y000003176968D02*
X000000293961D01*
X000000003444Y000003172146D02*
X000000291320D01*
X000000003444Y000003167323D02*
X000000287344D01*
X000000003444Y000003162500D02*
X000000281017D01*
X000000003444Y000003320373D02*
X000000265551D01*
X000000003444Y000003315551D02*
X000000282144D01*
X000000003444Y000003310728D02*
X000000288010D01*
X000000003444Y000003305905D02*
X000000291767D01*
X000000003444Y000003301082D02*
X000000294246D01*
X000000003444Y000003296260D02*
X000000295771D01*
X000000003444Y000003291437D02*
X000000296477D01*
X000000003444Y000003286614D02*
X000000296423D01*
X000000003444Y000003281791D02*
X000000295605D01*
X000000003444Y000003276968D02*
X000000293961D01*
X000000003444Y000003272146D02*
X000000291320D01*
X000000003444Y000003267323D02*
X000000287344D01*
X000000003444Y000003262500D02*
X000000281017D01*
X000000003444Y000003420374D02*
X000000265551D01*
X000000003444Y000003415551D02*
X000000282144D01*
X000000003444Y000003410728D02*
X000000288010D01*
X000000003444Y000003405905D02*
X000000291767D01*
X000000003444Y000003401082D02*
X000000294246D01*
X000000003444Y000003396260D02*
X000000295771D01*
X000000003444Y000003391437D02*
X000000296477D01*
X000000003444Y000003386614D02*
X000000296423D01*
X000000003444Y000003381791D02*
X000000295605D01*
X000000003444Y000003376968D02*
X000000293961D01*
X000000003444Y000003372146D02*
X000000291320D01*
X000000003444Y000003367323D02*
X000000287344D01*
X000000003444Y000003362500D02*
X000000281017D01*
X000000003444Y000003520374D02*
X000000265551D01*
X000000003444Y000003515551D02*
X000000282144D01*
X000000003444Y000003510728D02*
X000000288010D01*
X000000003444Y000003505905D02*
X000000291767D01*
X000000003444Y000003501082D02*
X000000294246D01*
X000000003444Y000003496260D02*
X000000295771D01*
X000000003444Y000003491437D02*
X000000296477D01*
X000000003444Y000003486614D02*
X000000296423D01*
X000000003444Y000003481791D02*
X000000295605D01*
X000000003444Y000003476968D02*
X000000293961D01*
X000000003444Y000003472146D02*
X000000291320D01*
X000000003444Y000003467323D02*
X000000287344D01*
X000000003444Y000003462500D02*
X000000281017D01*
X000000003444Y000003620374D02*
X000000265551D01*
X000000003444Y000003615551D02*
X000000282144D01*
X000000003444Y000003610728D02*
X000000288010D01*
X000000003444Y000003605905D02*
X000000291767D01*
X000000003444Y000003601082D02*
X000000294246D01*
X000000003444Y000003596260D02*
X000000295771D01*
X000000003444Y000003591437D02*
X000000296477D01*
X000000003444Y000003586614D02*
X000000296423D01*
X000000003444Y000003581791D02*
X000000295605D01*
X000000003444Y000003576968D02*
X000000293961D01*
X000000003444Y000003572146D02*
X000000291320D01*
X000000003444Y000003567323D02*
X000000287344D01*
X000000003444Y000003562500D02*
X000000281017D01*
X000000003444Y000003720373D02*
X000000265551D01*
X000000003444Y000003715551D02*
X000000282144D01*
X000000003444Y000003710728D02*
X000000288010D01*
X000000003444Y000003705905D02*
X000000291767D01*
X000000003444Y000003701082D02*
X000000294246D01*
X000000003444Y000003696260D02*
X000000295771D01*
X000000003444Y000003691437D02*
X000000296477D01*
X000000003444Y000003686614D02*
X000000296423D01*
X000000003444Y000003681791D02*
X000000295605D01*
X000000003444Y000003676968D02*
X000000293961D01*
X000000003444Y000003672146D02*
X000000291320D01*
X000000003444Y000003667323D02*
X000000287344D01*
X000000003444Y000003662500D02*
X000000281017D01*
X000000003444Y000003820373D02*
X000000265551D01*
X000000003444Y000003815551D02*
X000000282144D01*
X000000003444Y000003810728D02*
X000000288010D01*
X000000003444Y000003805905D02*
X000000291767D01*
X000000003444Y000003801082D02*
X000000294246D01*
X000000003444Y000003796260D02*
X000000295771D01*
X000000003444Y000003791437D02*
X000000296477D01*
X000000003444Y000003786614D02*
X000000296423D01*
X000000003444Y000003781791D02*
X000000295605D01*
X000000003444Y000003776968D02*
X000000293961D01*
X000000003444Y000003772146D02*
X000000291320D01*
X000000003444Y000003767323D02*
X000000287344D01*
X000000003444Y000003762500D02*
X000000281017D01*
X000000003444Y000003920374D02*
X000000265551D01*
X000000003444Y000003915551D02*
X000000282144D01*
X000000003444Y000003910728D02*
X000000288010D01*
X000000003444Y000003905905D02*
X000000291767D01*
X000000003444Y000003901082D02*
X000000294246D01*
X000000003444Y000003896260D02*
X000000295771D01*
X000000003444Y000003891437D02*
X000000296477D01*
X000000003444Y000003886614D02*
X000000296423D01*
X000000003444Y000003881791D02*
X000000295605D01*
X000000003444Y000003876968D02*
X000000293961D01*
X000000003444Y000003872146D02*
X000000291320D01*
X000000003444Y000003867323D02*
X000000287344D01*
X000000003444Y000003862500D02*
X000000281017D01*
X000000003444Y000004020373D02*
X000000265551D01*
X000000003444Y000004015551D02*
X000000282144D01*
X000000003444Y000004010728D02*
X000000288010D01*
X000000003444Y000004005905D02*
X000000291767D01*
X000000003444Y000004001082D02*
X000000294246D01*
X000000003444Y000003996260D02*
X000000295771D01*
X000000003444Y000003991437D02*
X000000296477D01*
X000000003444Y000003986614D02*
X000000296423D01*
X000000003444Y000003981791D02*
X000000295605D01*
X000000003444Y000003976968D02*
X000000293961D01*
X000000003444Y000003972146D02*
X000000291320D01*
X000000003444Y000003967323D02*
X000000287344D01*
X000000003444Y000003962500D02*
X000000281017D01*
X000000003444Y000004120374D02*
X000000265551D01*
X000000003444Y000004115551D02*
X000000282144D01*
X000000003444Y000004110728D02*
X000000288010D01*
X000000003444Y000004105905D02*
X000000291767D01*
X000000003444Y000004101082D02*
X000000294246D01*
X000000003444Y000004096260D02*
X000000295771D01*
X000000003444Y000004091437D02*
X000000296477D01*
X000000003444Y000004086614D02*
X000000296423D01*
X000000003444Y000004081791D02*
X000000295605D01*
X000000003444Y000004076968D02*
X000000293961D01*
X000000003444Y000004072146D02*
X000000291320D01*
X000000003444Y000004067323D02*
X000000287344D01*
X000000003444Y000004062500D02*
X000000281017D01*
X000000003444Y000004220374D02*
X000000265551D01*
X000000003444Y000004215551D02*
X000000282144D01*
X000000003444Y000004210728D02*
X000000288010D01*
X000000003444Y000004205905D02*
X000000291767D01*
X000000003444Y000004201082D02*
X000000294246D01*
X000000003444Y000004196260D02*
X000000295771D01*
X000000003444Y000004191437D02*
X000000296477D01*
X000000003444Y000004186614D02*
X000000296423D01*
X000000003444Y000004181791D02*
X000000295605D01*
X000000003444Y000004176968D02*
X000000293961D01*
X000000003444Y000004172145D02*
X000000291320D01*
X000000003444Y000004167323D02*
X000000287344D01*
X000000003444Y000004162500D02*
X000000281017D01*
X000000003444Y000004320374D02*
X000000265551D01*
X000000003444Y000004315551D02*
X000000282144D01*
X000000003444Y000004310728D02*
X000000288010D01*
X000000003444Y000004305905D02*
X000000291767D01*
X000000003444Y000004301082D02*
X000000294246D01*
X000000003444Y000004296260D02*
X000000295771D01*
X000000003444Y000004291437D02*
X000000296477D01*
X000000003444Y000004286614D02*
X000000296423D01*
X000000003444Y000004281791D02*
X000000295605D01*
X000000003444Y000004276968D02*
X000000293961D01*
X000000003444Y000004272145D02*
X000000291320D01*
X000000003444Y000004267323D02*
X000000287344D01*
X000000003444Y000004262500D02*
X000000281017D01*
X000000003444Y000004420374D02*
X000000265551D01*
X000000003444Y000004415551D02*
X000000282144D01*
X000000003444Y000004410728D02*
X000000288010D01*
X000000003444Y000004405905D02*
X000000291767D01*
X000000003444Y000004401082D02*
X000000294246D01*
X000000003444Y000004396260D02*
X000000295771D01*
X000000003444Y000004391437D02*
X000000296477D01*
X000000003444Y000004386614D02*
X000000296423D01*
X000000003444Y000004381791D02*
X000000295605D01*
X000000003444Y000004376968D02*
X000000293961D01*
X000000003444Y000004372146D02*
X000000291320D01*
X000000003444Y000004367323D02*
X000000287344D01*
X000000003444Y000004362500D02*
X000000281017D01*
X000000003444Y000004520373D02*
X000000265551D01*
X000000003444Y000004515551D02*
X000000282144D01*
X000000003444Y000004510728D02*
X000000288010D01*
X000000003444Y000004505905D02*
X000000291767D01*
X000000003444Y000004501082D02*
X000000294246D01*
X000000003444Y000004496260D02*
X000000295771D01*
X000000003444Y000004491437D02*
X000000296477D01*
X000000003444Y000004486614D02*
X000000296423D01*
X000000003444Y000004481791D02*
X000000295605D01*
X000000003444Y000004476968D02*
X000000293961D01*
X000000003444Y000004472145D02*
X000000291320D01*
X000000003444Y000004467323D02*
X000000287344D01*
X000000003444Y000004462500D02*
X000000281017D01*
X000000003444Y000004620374D02*
X000000265551D01*
X000000003444Y000004615551D02*
X000000282144D01*
X000000003444Y000004610728D02*
X000000288010D01*
X000000003444Y000004605905D02*
X000000291767D01*
X000000003444Y000004601082D02*
X000000294246D01*
X000000003444Y000004596260D02*
X000000295771D01*
X000000003444Y000004591437D02*
X000000296477D01*
X000000003444Y000004586614D02*
X000000296423D01*
X000000003444Y000004581791D02*
X000000295605D01*
X000000003444Y000004576968D02*
X000000293961D01*
X000000003444Y000004572146D02*
X000000291320D01*
X000000003444Y000004567323D02*
X000000287344D01*
X000000003444Y000004562500D02*
X000000281017D01*
X000000003444Y000004720374D02*
X000000265551D01*
X000000003444Y000004715551D02*
X000000282144D01*
X000000003444Y000004710728D02*
X000000288010D01*
X000000003444Y000004705905D02*
X000000291767D01*
X000000003444Y000004701082D02*
X000000294246D01*
X000000003444Y000004696260D02*
X000000295771D01*
X000000003444Y000004691437D02*
X000000296477D01*
X000000003444Y000004686614D02*
X000000296423D01*
X000000003444Y000004681791D02*
X000000295605D01*
X000000003444Y000004676968D02*
X000000293961D01*
X000000003444Y000004672146D02*
X000000291320D01*
X000000003444Y000004667323D02*
X000000287344D01*
X000000003444Y000004662500D02*
X000000281017D01*
X000000003444Y000004820374D02*
X000000265551D01*
X000000003444Y000004815551D02*
X000000282144D01*
X000000003444Y000004810728D02*
X000000288010D01*
X000000003444Y000004805905D02*
X000000291767D01*
X000000003444Y000004801082D02*
X000000294246D01*
X000000003444Y000004796260D02*
X000000295771D01*
X000000003444Y000004791437D02*
X000000296477D01*
X000000003444Y000004786614D02*
X000000296423D01*
X000000003444Y000004781791D02*
X000000295605D01*
X000000003444Y000004776968D02*
X000000293961D01*
X000000003444Y000004772145D02*
X000000291320D01*
X000000003444Y000004767323D02*
X000000287344D01*
X000000003444Y000004762500D02*
X000000281017D01*
X000000003444Y000004920374D02*
X000000265551D01*
X000000003444Y000004915551D02*
X000000282144D01*
X000000003444Y000004910728D02*
X000000288010D01*
X000000003444Y000004905905D02*
X000000291767D01*
X000000003444Y000004901082D02*
X000000294246D01*
X000000003444Y000004896260D02*
X000000295771D01*
X000000003444Y000004891437D02*
X000000296477D01*
X000000003444Y000004886614D02*
X000000296423D01*
X000000003444Y000004881791D02*
X000000295605D01*
X000000003444Y000004876968D02*
X000000293961D01*
X000000003444Y000004872146D02*
X000000291320D01*
X000000003444Y000004867323D02*
X000000287344D01*
X000000003444Y000004862500D02*
X000000281017D01*
X000000003444Y000005020373D02*
X000000265551D01*
X000000003444Y000005015551D02*
X000000282144D01*
X000000003444Y000005010728D02*
X000000288010D01*
X000000003444Y000005005905D02*
X000000291767D01*
X000000003444Y000005001082D02*
X000000294246D01*
X000000003444Y000004996260D02*
X000000295771D01*
X000000003444Y000004991437D02*
X000000296477D01*
X000000003444Y000004986614D02*
X000000296423D01*
X000000003444Y000004981791D02*
X000000295605D01*
X000000003444Y000004976968D02*
X000000293961D01*
X000000003444Y000004972145D02*
X000000291320D01*
X000000003444Y000004967323D02*
X000000287344D01*
X000000003444Y000004962500D02*
X000000281017D01*
X000000003444Y000005120374D02*
X000000265551D01*
X000000003444Y000005115551D02*
X000000282144D01*
X000000003444Y000005110728D02*
X000000288010D01*
X000000003444Y000005105905D02*
X000000291767D01*
X000000003444Y000005101082D02*
X000000294246D01*
X000000003444Y000005096260D02*
X000000295771D01*
X000000003444Y000005091437D02*
X000000296477D01*
X000000003444Y000005086614D02*
X000000296423D01*
X000000003444Y000005081791D02*
X000000295605D01*
X000000003444Y000005076968D02*
X000000293961D01*
X000000003444Y000005072146D02*
X000000291320D01*
X000000003444Y000005067323D02*
X000000287344D01*
X000000003444Y000005062500D02*
X000000281017D01*
X000000003444Y000005220374D02*
X000000265551D01*
X000000003444Y000005215551D02*
X000000282144D01*
X000000003444Y000005210728D02*
X000000288010D01*
X000000003444Y000005205905D02*
X000000291767D01*
X000000003444Y000005201082D02*
X000000294246D01*
X000000003444Y000005196260D02*
X000000295771D01*
X000000003444Y000005191437D02*
X000000296477D01*
X000000003444Y000005186614D02*
X000000296423D01*
X000000003444Y000005181791D02*
X000000295605D01*
X000000003444Y000005176968D02*
X000000293961D01*
X000000003444Y000005172146D02*
X000000291320D01*
X000000003444Y000005167323D02*
X000000287344D01*
X000000003444Y000005162500D02*
X000000281017D01*
X000000003444Y000005320374D02*
X000000265551D01*
X000000003444Y000005315551D02*
X000000282144D01*
X000000003444Y000005310728D02*
X000000288010D01*
X000000003444Y000005305905D02*
X000000291767D01*
X000000003444Y000005301082D02*
X000000294246D01*
X000000003444Y000005296260D02*
X000000295771D01*
X000000003444Y000005291437D02*
X000000296477D01*
X000000003444Y000005286614D02*
X000000296423D01*
X000000003444Y000005281791D02*
X000000295605D01*
X000000003444Y000005276968D02*
X000000293961D01*
X000000003444Y000005272145D02*
X000000291320D01*
X000000003444Y000005267323D02*
X000000287344D01*
X000000003444Y000005262500D02*
X000000281017D01*
X000000003444Y000005420374D02*
X000000265551D01*
X000000003444Y000005415551D02*
X000000282144D01*
X000000003444Y000005410728D02*
X000000288010D01*
X000000003444Y000005405905D02*
X000000291767D01*
X000000003444Y000005401082D02*
X000000294246D01*
X000000003444Y000005396260D02*
X000000295771D01*
X000000003444Y000005391437D02*
X000000296477D01*
X000000003444Y000005386614D02*
X000000296423D01*
X000000003444Y000005381791D02*
X000000295605D01*
X000000003444Y000005376968D02*
X000000293961D01*
X000000003444Y000005372146D02*
X000000291320D01*
X000000003444Y000005367323D02*
X000000287344D01*
X000000003444Y000005362500D02*
X000000281017D01*
G54D14*
X000000800000Y000005289370D03*
X000000900000Y000005189370D03*
Y000005089370D03*
Y000004989370D03*
Y000003789370D03*
Y000003689370D03*
Y000003589369D03*
Y000003389370D03*
Y000003289370D03*
Y000003189370D03*
Y000003089369D03*
Y000002989370D03*
Y000002889370D03*
Y000002789370D03*
Y000002689370D03*
Y000002589369D03*
Y000002389370D03*
Y000002289370D03*
Y000002189370D03*
Y000002089369D03*
Y000001989369D03*
Y000001889370D03*
Y000001789370D03*
Y000001689369D03*
Y000001589370D03*
Y000001389370D03*
Y000001289370D03*
Y000001189369D03*
Y000001089370D03*
Y000000989370D03*
Y000000889370D03*
Y000000789370D03*
X000000800000Y000003589369D03*
Y000002589369D03*
Y000000689370D03*
Y000000589370D03*
Y000000489370D03*
Y000000789370D03*
Y000000889370D03*
Y000000989370D03*
Y000001089370D03*
Y000001189369D03*
Y000001289370D03*
Y000001389370D03*
Y000001589370D03*
Y000001689369D03*
Y000001789370D03*
Y000001889370D03*
Y000001989369D03*
Y000002089369D03*
Y000002189370D03*
Y000002289370D03*
Y000002389370D03*
Y000002789370D03*
Y000002889370D03*
Y000002989370D03*
Y000003089369D03*
Y000003189370D03*
Y000003289370D03*
Y000003389370D03*
X000000900000Y000003889370D03*
Y000003989370D03*
Y000004189370D03*
Y000004089369D03*
Y000004389370D03*
Y000004289370D03*
Y000004589370D03*
Y000004689370D03*
Y000004889370D03*
Y000004789370D03*
X000000800000Y000003789370D03*
Y000003889370D03*
Y000003989370D03*
Y000004089369D03*
Y000004189370D03*
Y000004289370D03*
Y000004389370D03*
Y000004589370D03*
Y000004689370D03*
Y000004789370D03*
Y000004889370D03*
Y000004989370D03*
Y000005089370D03*
Y000005189370D03*
M02*
