G04 WinPCB Gerber Out *
G70*
G90*
G04 CSI RS-274X *
G04 Date: 2019/03/05 *
G04 Time: 11:11:37 *
%FSDAX66Y66*%
%MOIN*%
%IPPOS*%
%ADD10C,0.005906*%
%ADD11C,0.007874*%
%ADD12C,0.011811*%
%ADD13R,0.061024X0.061024*%
%ADD14C,0.051181*%
%C:\Users\user_EDA1\Documents\PC-98_C-BUS_Board\6.プリント基板\01\2-1半田面配線層-L16.gbr*%
G01X000000000000Y000000000000D02*
G54D10*
X000001058110Y-000000844173D02*
X000001061181Y-000000838976D01*
D02*
X000001069212Y-000000827519D01*
D02*
X000001074055Y-000000821378D01*
D02*
X000001062362Y-000000812755D01*
D02*
X000001056811Y-000000817952D01*
D02*
X000001048189Y-000000829055D01*
D02*
X000001045118Y-000000834842D01*
D02*
X000001058110Y-000000844173D01*
X000001013818Y-000000887165D02*
X000000952283D01*
D02*
Y-000000898858D01*
D02*
X000001013818D01*
D02*
Y-000000943149D01*
D02*
X000001027874D01*
D02*
Y-000000898858D01*
D02*
X000001089409D01*
D02*
Y-000000887165D01*
D02*
X000001027874D01*
D02*
Y-000000864370D01*
D02*
X000001077126D01*
D02*
Y-000000852677D01*
D02*
X000001027874D01*
D02*
Y-000000806023D01*
D02*
X000001014409D01*
D02*
X000001011929Y-000000806378D01*
D02*
X000001011692Y-000000808149D01*
D02*
X000001013818Y-000000809685D01*
D02*
Y-000000852677D01*
D02*
X000000964566D01*
D02*
Y-000000864370D01*
D02*
X000001013818D01*
D02*
Y-000000887165D01*
X000000996574Y-000000840984D02*
X000000992559Y-000000834252D01*
D02*
X000000985826Y-000000819252D01*
D02*
X000000982992Y-000000810866D01*
D02*
X000000969527Y-000000816417D01*
D02*
X000000967755Y-000000817716D01*
D02*
X000000968346Y-000000818897D01*
D02*
X000000970708D01*
D02*
X000000974133Y-000000829055D01*
D02*
X000000980866Y-000000843228D01*
D02*
X000000984291Y-000000847244D01*
D02*
X000000996574Y-000000840984D01*
X000000911417Y-000000877362D02*
Y-000000914803D01*
D02*
X000000874448D01*
D02*
Y-000000877362D01*
D02*
X000000911417D01*
X000000874448Y-000000829409D02*
X000000911417D01*
D02*
Y-000000865669D01*
D02*
X000000874448D01*
D02*
Y-000000829409D01*
X000000862165Y-000000865669D02*
X000000824606D01*
D02*
Y-000000829409D01*
D02*
X000000862165D01*
D02*
Y-000000865669D01*
X000000824606Y-000000877362D02*
X000000862165D01*
D02*
Y-000000914803D01*
D02*
X000000824606D01*
D02*
Y-000000877362D01*
Y-000000933937D02*
Y-000000926496D01*
D02*
X000000911417D01*
D02*
Y-000000935708D01*
D02*
X000000925472D01*
D02*
Y-000000817716D01*
D02*
X000000810551D01*
D02*
Y-000000933937D01*
D02*
X000000824606D01*
X000000679212Y-000000939488D02*
Y-000000933346D01*
D02*
X000000773346D01*
D02*
Y-000000941850D01*
D02*
X000000785629D01*
D02*
Y-000000844763D01*
D02*
X000000735196D01*
D02*
X000000730236Y-000000824448D01*
D02*
X000000793070D01*
D02*
Y-000000812755D01*
D02*
X000000659606D01*
D02*
Y-000000824448D01*
D02*
X000000716181D01*
D02*
X000000722913Y-000000844763D01*
D02*
X000000666929D01*
D02*
Y-000000939488D01*
D02*
X000000679212D01*
X000000751850Y-000000856456D02*
X000000773346D01*
D02*
Y-000000921653D01*
D02*
X000000751850D01*
D02*
Y-000000856456D01*
X000000713110Y-000000906181D02*
X000000739566D01*
D02*
Y-000000921653D01*
D02*
X000000713110D01*
D02*
Y-000000906181D01*
Y-000000882204D02*
X000000739566D01*
D02*
Y-000000896378D01*
D02*
X000000713110D01*
D02*
Y-000000882204D01*
X000000739566Y-000000856456D02*
Y-000000872401D01*
D02*
X000000713110D01*
D02*
Y-000000856456D01*
D02*
X000000739566D01*
X000000700826D02*
Y-000000921653D01*
D02*
X000000679212D01*
D02*
Y-000000856456D01*
D02*
X000000700826D01*
X000000523425Y-000000837322D02*
X000000527086D01*
D02*
X000000533228Y-000000834960D01*
D02*
X000000535708Y-000000832480D01*
D02*
X000000538188Y-000000830000D01*
D02*
X000000540551Y-000000823858D01*
D02*
Y-000000820078D01*
D02*
Y-000000816417D01*
D02*
X000000538188Y-000000810275D01*
D02*
X000000535708Y-000000807795D01*
D02*
X000000533228Y-000000805433D01*
D02*
X000000527086Y-000000802952D01*
D02*
X000000523425D01*
D02*
X000000519763D01*
D02*
X000000513503Y-000000805433D01*
D02*
X000000511023Y-000000807795D01*
D02*
X000000508661Y-000000810275D01*
D02*
X000000506181Y-000000816417D01*
D02*
Y-000000820078D01*
D02*
Y-000000823858D01*
D02*
X000000508661Y-000000830000D01*
D02*
X000000511023Y-000000832480D01*
D02*
X000000513503Y-000000834960D01*
D02*
X000000519763Y-000000837322D01*
D02*
X000000523425D01*
Y-000000831181D02*
X000000520944D01*
D02*
X000000516929Y-000000829645D01*
D02*
X000000515393Y-000000828110D01*
D02*
X000000513858Y-000000826574D01*
D02*
X000000512322Y-000000822559D01*
D02*
Y-000000820078D01*
D02*
Y-000000817716D01*
D02*
X000000513858Y-000000813700D01*
D02*
X000000515393Y-000000812165D01*
D02*
X000000516929Y-000000810629D01*
D02*
X000000520944Y-000000809094D01*
D02*
X000000523425D01*
D02*
X000000525905D01*
D02*
X000000529803Y-000000810629D01*
D02*
X000000531338Y-000000812165D01*
D02*
X000000532874Y-000000813700D01*
D02*
X000000534409Y-000000817716D01*
D02*
Y-000000820078D01*
D02*
Y-000000822559D01*
D02*
X000000532874Y-000000826574D01*
D02*
X000000531338Y-000000828110D01*
D02*
X000000529803Y-000000829645D01*
D02*
X000000525905Y-000000831181D01*
D02*
X000000523425D01*
X000000547992Y-000000834252D02*
X000000532637Y-000000853622D01*
D02*
X000000510787Y-000000894606D01*
D02*
X000000504291Y-000000916102D01*
D02*
X000000520944Y-000000921653D01*
D02*
X000000528621Y-000000897322D01*
D02*
X000000548582Y-000000858582D01*
D02*
X000000560866Y-000000844173D01*
D02*
X000000547992Y-000000834252D01*
X000000594763Y-000000848425D02*
X000000592283Y-000000849960D01*
D02*
X000000592874Y-000000852795D01*
D02*
X000000595944Y-000000853976D01*
D02*
X000000601496Y-000000873346D01*
D02*
X000000619330Y-000000908779D01*
D02*
X000000631614Y-000000924724D01*
D02*
X000000645787Y-000000915511D01*
D02*
X000000632322Y-000000899212D01*
D02*
X000000614133Y-000000862362D01*
D02*
X000000609527Y-000000841692D01*
D02*
X000000594763Y-000000848425D01*
X000000438149Y-000000815826D02*
X000000439448Y-000000819488D01*
D02*
X000000442519Y-000000826574D01*
D02*
X000000444291Y-000000830000D01*
D02*
X000000403070D01*
D02*
X000000396338Y-000000827519D01*
D02*
X000000388307Y-000000835551D01*
D02*
X000000387125Y-000000837086D01*
D02*
X000000388425Y-000000839566D01*
D02*
X000000390787Y-000000840393D01*
D02*
X000000393267Y-000000852795D01*
D02*
X000000400708Y-000000875236D01*
D02*
X000000405551Y-000000885275D01*
D02*
X000000390787Y-000000895196D01*
D02*
X000000400000Y-000000908661D01*
D02*
X000000413582Y-000000898858D01*
D02*
X000000422559Y-000000911850D01*
D02*
X000000448070Y-000000932992D01*
D02*
X000000464606Y-000000941259D01*
D02*
X000000478779Y-000000930866D01*
D02*
X000000460354Y-000000923188D01*
D02*
X000000433897Y-000000902874D01*
D02*
X000000425866Y-000000890236D01*
D02*
X000000433543Y-000000885393D01*
D02*
X000000448661Y-000000876417D01*
D02*
X000000455984Y-000000872401D01*
D02*
X000000448661Y-000000861299D01*
D02*
X000000439094Y-000000865669D01*
D02*
X000000423385Y-000000873700D01*
D02*
X000000417244Y-000000877362D01*
D02*
X000000412637Y-000000867795D01*
D02*
X000000407086Y-000000850905D01*
D02*
X000000406141Y-000000843464D01*
D02*
X000000451141D01*
D02*
X000000456929Y-000000853976D01*
D02*
X000000471338Y-000000872992D01*
D02*
X000000479960Y-000000881614D01*
D02*
X000000491653Y-000000873582D01*
D02*
X000000476063Y-000000857283D01*
D02*
X000000455393Y-000000822913D01*
D02*
X000000450433Y-000000804724D01*
D02*
X000000435669Y-000000810866D01*
D02*
X000000433307Y-000000812165D01*
D02*
X000000434488Y-000000814645D01*
D02*
X000000438149Y-000000815826D01*
X000000373897Y-000000866259D02*
X000000236771D01*
D02*
Y-000000879842D01*
D02*
X000000373897D01*
D02*
Y-000000866259D01*
X000000102952Y-000000858818D02*
X000000119252Y-000000892716D01*
D02*
X000000174055Y-000000928385D01*
D02*
X000000212440Y-000000930157D01*
D02*
X000000213976Y-000000934173D01*
D02*
X000000217047Y-000000934763D01*
D02*
X000000218582Y-000000931456D01*
D02*
X000000223543Y-000000915511D01*
D02*
X000000183622Y-000000914566D01*
D02*
X000000129763Y-000000881614D01*
D02*
X000000115944Y-000000849606D01*
D02*
X000000102952Y-000000858818D01*
X000000189763D02*
X000000198031Y-000000851141D01*
D02*
X000000213740Y-000000838622D01*
D02*
X000000221062Y-000000833661D01*
D02*
X000000210669Y-000000820787D01*
D02*
X000000204173Y-000000824803D01*
D02*
X000000187874Y-000000838031D01*
D02*
X000000178070Y-000000847244D01*
D02*
X000000189763Y-000000858818D01*
X000001027874Y-000000943149D02*
X000001013818D01*
X000001027874Y-000000941378D02*
X000001013818D01*
X000000785629D02*
X000000773346D01*
X000001027874Y-000000939606D02*
X000001013818D01*
X000000785629D02*
X000000773346D01*
X000000466860D02*
X000000461299D01*
X000001027874Y-000000937834D02*
X000001013818D01*
X000000785629D02*
X000000773346D01*
X000000679212D02*
X000000666929D01*
X000000469277D02*
X000000457755D01*
X000001027874Y-000000936063D02*
X000001013818D01*
X000000785629D02*
X000000773346D01*
X000000679212D02*
X000000666929D01*
X000000471692D02*
X000000454212D01*
X000001027874Y-000000934291D02*
X000001013818D01*
X000000925472D02*
X000000911417D01*
X000000785629D02*
X000000773346D01*
X000000679212D02*
X000000666929D01*
X000000474109D02*
X000000450669D01*
X000000217266D02*
X000000214590D01*
X000001027874Y-000000932519D02*
X000001013818D01*
X000000925472D02*
X000000911417D01*
X000000824606D02*
X000000810551D01*
X000000785629D02*
X000000666929D01*
X000000476524D02*
X000000447500D01*
X000000218089D02*
X000000213344D01*
X000001027874Y-000000930748D02*
X000001013818D01*
X000000925472D02*
X000000911417D01*
X000000824606D02*
X000000810551D01*
X000000785629D02*
X000000666929D01*
X000000478495D02*
X000000445363D01*
X000000218803D02*
X000000212666D01*
X000001027874Y-000000928976D02*
X000001013818D01*
X000000925472D02*
X000000911417D01*
X000000824606D02*
X000000810551D01*
X000000785629D02*
X000000666929D01*
X000000474243D02*
X000000443225D01*
X000000219354D02*
X000000186850D01*
X000001027874Y-000000927204D02*
X000001013818D01*
X000000925472D02*
X000000911417D01*
X000000824606D02*
X000000810551D01*
X000000785629D02*
X000000666929D01*
X000000469991D02*
X000000441087D01*
X000000219905D02*
X000000172240D01*
X000001027874Y-000000925433D02*
X000001013818D01*
X000000925472D02*
X000000810551D01*
X000000785629D02*
X000000666929D01*
X000000465739D02*
X000000438949D01*
X000000220456D02*
X000000169518D01*
X000001027874Y-000000923661D02*
X000001013818D01*
X000000925472D02*
X000000810551D01*
X000000785629D02*
X000000666929D01*
X000000633249D02*
X000000630795D01*
X000000461487D02*
X000000436811D01*
X000000221007D02*
X000000166796D01*
X000001027874Y-000000921889D02*
X000001013818D01*
X000000925472D02*
X000000810551D01*
X000000785629D02*
X000000666929D01*
X000000635975D02*
X000000629430D01*
X000000458662D02*
X000000434673D01*
X000000221559D02*
X000000164074D01*
X000001027874Y-000000920118D02*
X000001013818D01*
X000000925472D02*
X000000810551D01*
X000000785629D02*
X000000773346D01*
X000000751850D02*
X000000739566D01*
X000000713110D02*
X000000700826D01*
X000000679212D02*
X000000666929D01*
X000000638700D02*
X000000628065D01*
X000000521429D02*
X000000516338D01*
X000000456355D02*
X000000432535D01*
X000000222110D02*
X000000161352D01*
X000001027874Y-000000918346D02*
X000001013818D01*
X000000925472D02*
X000000810551D01*
X000000785629D02*
X000000773346D01*
X000000751850D02*
X000000739566D01*
X000000713110D02*
X000000700826D01*
X000000679212D02*
X000000666929D01*
X000000641426D02*
X000000626700D01*
X000000521988D02*
X000000511023D01*
X000000454048D02*
X000000430398D01*
X000000222661D02*
X000000158630D01*
X000001027874Y-000000916574D02*
X000001013818D01*
X000000925472D02*
X000000810551D01*
X000000785629D02*
X000000773346D01*
X000000751850D02*
X000000739566D01*
X000000713110D02*
X000000700826D01*
X000000679212D02*
X000000666929D01*
X000000644152D02*
X000000625336D01*
X000000522547D02*
X000000505708D01*
X000000451740D02*
X000000428259D01*
X000000223212D02*
X000000155908D01*
X000001027874Y-000000914803D02*
X000001013818D01*
X000000925472D02*
X000000911417D01*
X000000874448D02*
X000000862165D01*
X000000824606D02*
X000000810551D01*
X000000785629D02*
X000000773346D01*
X000000751850D02*
X000000739566D01*
X000000713110D02*
X000000700826D01*
X000000679212D02*
X000000666929D01*
X000000645202D02*
X000000623970D01*
X000000523106D02*
X000000504684D01*
X000000449433D02*
X000000426122D01*
X000000193602D02*
X000000153186D01*
X000001027874Y-000000913031D02*
X000001013818D01*
X000000925472D02*
X000000911417D01*
X000000874448D02*
X000000862165D01*
X000000824606D02*
X000000810551D01*
X000000785629D02*
X000000773346D01*
X000000751850D02*
X000000739566D01*
X000000713110D02*
X000000700826D01*
X000000679212D02*
X000000666929D01*
X000000643738D02*
X000000622605D01*
X000000523665D02*
X000000505219D01*
X000000447125D02*
X000000423984D01*
X000000181112D02*
X000000150464D01*
X000001027874Y-000000911259D02*
X000001013818D01*
X000000925472D02*
X000000911417D01*
X000000874448D02*
X000000862165D01*
X000000824606D02*
X000000810551D01*
X000000785629D02*
X000000773346D01*
X000000751850D02*
X000000739566D01*
X000000713110D02*
X000000700826D01*
X000000679212D02*
X000000666929D01*
X000000642274D02*
X000000621241D01*
X000000524224D02*
X000000505754D01*
X000000444818D02*
X000000422151D01*
X000000178216D02*
X000000147742D01*
X000001027874Y-000000909488D02*
X000001013818D01*
X000000925472D02*
X000000911417D01*
X000000874448D02*
X000000862165D01*
X000000824606D02*
X000000810551D01*
X000000785629D02*
X000000773346D01*
X000000751850D02*
X000000739566D01*
X000000713110D02*
X000000700826D01*
X000000679212D02*
X000000666929D01*
X000000640811D02*
X000000619876D01*
X000000524783D02*
X000000506290D01*
X000000442511D02*
X000000420926D01*
X000000175321D02*
X000000145020D01*
X000001027874Y-000000907716D02*
X000001013818D01*
X000000925472D02*
X000000911417D01*
X000000874448D02*
X000000862165D01*
X000000824606D02*
X000000810551D01*
X000000785629D02*
X000000773346D01*
X000000751850D02*
X000000739566D01*
X000000713110D02*
X000000700826D01*
X000000679212D02*
X000000666929D01*
X000000639347D02*
X000000618795D01*
X000000525342D02*
X000000506825D01*
X000000440204D02*
X000000419702D01*
X000000401309D02*
X000000399353D01*
X000000172425D02*
X000000142298D01*
X000001027874Y-000000905944D02*
X000001013818D01*
X000000925472D02*
X000000911417D01*
X000000874448D02*
X000000862165D01*
X000000824606D02*
X000000810551D01*
X000000785629D02*
X000000773346D01*
X000000751850D02*
X000000700826D01*
X000000679212D02*
X000000666929D01*
X000000637884D02*
X000000617903D01*
X000000525901D02*
X000000507360D01*
X000000437896D02*
X000000418479D01*
X000000403763D02*
X000000398141D01*
X000000169529D02*
X000000139576D01*
X000001027874Y-000000904173D02*
X000001013818D01*
X000000925472D02*
X000000911417D01*
X000000874448D02*
X000000862165D01*
X000000824606D02*
X000000810551D01*
X000000785629D02*
X000000773346D01*
X000000751850D02*
X000000700826D01*
X000000679212D02*
X000000666929D01*
X000000636420D02*
X000000617012D01*
X000000526460D02*
X000000507896D01*
X000000435589D02*
X000000417254D01*
X000000406218D02*
X000000396929D01*
X000000166634D02*
X000000136854D01*
X000001027874Y-000000902401D02*
X000001013818D01*
X000000925472D02*
X000000911417D01*
X000000874448D02*
X000000862165D01*
X000000824606D02*
X000000810551D01*
X000000785629D02*
X000000773346D01*
X000000751850D02*
X000000700826D01*
X000000679212D02*
X000000666929D01*
X000000634957D02*
X000000616120D01*
X000000527019D02*
X000000508431D01*
X000000433597D02*
X000000416030D01*
X000000408673D02*
X000000395716D01*
X000000163739D02*
X000000134132D01*
X000001027874Y-000000900629D02*
X000001013818D01*
X000000925472D02*
X000000911417D01*
X000000874448D02*
X000000862165D01*
X000000824606D02*
X000000810551D01*
X000000785629D02*
X000000773346D01*
X000000751850D02*
X000000700826D01*
X000000679212D02*
X000000666929D01*
X000000633493D02*
X000000615228D01*
X000000527578D02*
X000000508966D01*
X000000432471D02*
X000000414806D01*
X000000411128D02*
X000000394504D01*
X000000160843D02*
X000000131410D01*
X000001089409Y-000000898858D02*
X000000952283D01*
X000000925472D02*
X000000911417D01*
X000000874448D02*
X000000862165D01*
X000000824606D02*
X000000810551D01*
X000000785629D02*
X000000773346D01*
X000000751850D02*
X000000700826D01*
X000000679212D02*
X000000666929D01*
X000000632148D02*
X000000614337D01*
X000000528137D02*
X000000509502D01*
X000000431345D02*
X000000393292D01*
X000000157947D02*
X000000128688D01*
X000001089409Y-000000897086D02*
X000000952283D01*
X000000925472D02*
X000000911417D01*
X000000874448D02*
X000000862165D01*
X000000824606D02*
X000000810551D01*
X000000785629D02*
X000000773346D01*
X000000751850D02*
X000000700826D01*
X000000679212D02*
X000000666929D01*
X000000631273D02*
X000000613445D01*
X000000528743D02*
X000000510037D01*
X000000430219D02*
X000000392080D01*
X000000155052D02*
X000000125966D01*
X000001089409Y-000000895315D02*
X000000952283D01*
X000000925472D02*
X000000911417D01*
X000000874448D02*
X000000862165D01*
X000000824606D02*
X000000810551D01*
X000000785629D02*
X000000773346D01*
X000000751850D02*
X000000739566D01*
X000000713110D02*
X000000700826D01*
X000000679212D02*
X000000666929D01*
X000000630399D02*
X000000612553D01*
X000000529656D02*
X000000510572D01*
X000000429093D02*
X000000390868D01*
X000000152156D02*
X000000123244D01*
X000001089409Y-000000893543D02*
X000000952283D01*
X000000925472D02*
X000000911417D01*
X000000874448D02*
X000000862165D01*
X000000824606D02*
X000000810551D01*
X000000785629D02*
X000000773346D01*
X000000751850D02*
X000000739566D01*
X000000713110D02*
X000000700826D01*
X000000679212D02*
X000000666929D01*
X000000629524D02*
X000000611661D01*
X000000530569D02*
X000000511354D01*
X000000427967D02*
X000000393248D01*
X000000149260D02*
X000000120522D01*
X000001089409Y-000000891771D02*
X000000952283D01*
X000000925472D02*
X000000911417D01*
X000000874448D02*
X000000862165D01*
X000000824606D02*
X000000810551D01*
X000000785629D02*
X000000773346D01*
X000000751850D02*
X000000739566D01*
X000000713110D02*
X000000700826D01*
X000000679212D02*
X000000666929D01*
X000000628649D02*
X000000610770D01*
X000000531482D02*
X000000512298D01*
X000000426842D02*
X000000395884D01*
X000000146365D02*
X000000118797D01*
X000001089409Y-000000890000D02*
X000000952283D01*
X000000925472D02*
X000000911417D01*
X000000874448D02*
X000000862165D01*
X000000824606D02*
X000000810551D01*
X000000785629D02*
X000000773346D01*
X000000751850D02*
X000000739566D01*
X000000713110D02*
X000000700826D01*
X000000679212D02*
X000000666929D01*
X000000627775D02*
X000000609878D01*
X000000532394D02*
X000000513242D01*
X000000426240D02*
X000000398520D01*
X000000143469D02*
X000000117945D01*
X000001089409Y-000000888228D02*
X000000952283D01*
X000000925472D02*
X000000911417D01*
X000000874448D02*
X000000862165D01*
X000000824606D02*
X000000810551D01*
X000000785629D02*
X000000773346D01*
X000000751850D02*
X000000739566D01*
X000000713110D02*
X000000700826D01*
X000000679212D02*
X000000666929D01*
X000000626901D02*
X000000608986D01*
X000000533307D02*
X000000514187D01*
X000000429049D02*
X000000401157D01*
X000000140574D02*
X000000117093D01*
X000001027874Y-000000886456D02*
X000001013818D01*
X000000925472D02*
X000000911417D01*
X000000874448D02*
X000000862165D01*
X000000824606D02*
X000000810551D01*
X000000785629D02*
X000000773346D01*
X000000751850D02*
X000000739566D01*
X000000713110D02*
X000000700826D01*
X000000679212D02*
X000000666929D01*
X000000626026D02*
X000000608094D01*
X000000534220D02*
X000000515132D01*
X000000431857D02*
X000000403793D01*
X000000137678D02*
X000000116241D01*
X000001027874Y-000000884685D02*
X000001013818D01*
X000000925472D02*
X000000911417D01*
X000000874448D02*
X000000862165D01*
X000000824606D02*
X000000810551D01*
X000000785629D02*
X000000773346D01*
X000000751850D02*
X000000739566D01*
X000000713110D02*
X000000700826D01*
X000000679212D02*
X000000666929D01*
X000000625152D02*
X000000607202D01*
X000000535133D02*
X000000516076D01*
X000000434737D02*
X000000405266D01*
X000000134783D02*
X000000115390D01*
X000001027874Y-000000882913D02*
X000001013818D01*
X000000925472D02*
X000000911417D01*
X000000874448D02*
X000000862165D01*
X000000824606D02*
X000000810551D01*
X000000785629D02*
X000000773346D01*
X000000751850D02*
X000000739566D01*
X000000713110D02*
X000000700826D01*
X000000679212D02*
X000000666929D01*
X000000624278D02*
X000000606311D01*
X000000536046D02*
X000000517021D01*
X000000437720D02*
X000000404411D01*
X000000131887D02*
X000000114538D01*
X000001027874Y-000000881141D02*
X000001013818D01*
X000000925472D02*
X000000911417D01*
X000000874448D02*
X000000862165D01*
X000000824606D02*
X000000810551D01*
X000000785629D02*
X000000773346D01*
X000000751850D02*
X000000700826D01*
X000000679212D02*
X000000666929D01*
X000000623403D02*
X000000605419D01*
X000000536959D02*
X000000517966D01*
X000000440704D02*
X000000403557D01*
X000000129559D02*
X000000113686D01*
X000001027874Y-000000879370D02*
X000001013818D01*
X000000925472D02*
X000000911417D01*
X000000874448D02*
X000000862165D01*
X000000824606D02*
X000000810551D01*
X000000785629D02*
X000000773346D01*
X000000751850D02*
X000000700826D01*
X000000679212D02*
X000000666929D01*
X000000622528D02*
X000000604528D01*
X000000537871D02*
X000000518910D01*
X000000483227D02*
X000000477716D01*
X000000443688D02*
X000000402702D01*
X000000373897D02*
X000000236771D01*
X000000128795D02*
X000000112834D01*
X000001027874Y-000000877598D02*
X000001013818D01*
X000000925472D02*
X000000911417D01*
X000000874448D02*
X000000862165D01*
X000000824606D02*
X000000810551D01*
X000000785629D02*
X000000773346D01*
X000000751850D02*
X000000700826D01*
X000000679212D02*
X000000666929D01*
X000000621654D02*
X000000603635D01*
X000000538785D02*
X000000519854D01*
X000000485807D02*
X000000475944D01*
X000000446672D02*
X000000401848D01*
X000000373897D02*
X000000236771D01*
X000000128030D02*
X000000111982D01*
X000001027874Y-000000875826D02*
X000001013818D01*
X000000925472D02*
X000000810551D01*
X000000785629D02*
X000000773346D01*
X000000751850D02*
X000000700826D01*
X000000679212D02*
X000000666929D01*
X000000620779D02*
X000000602744D01*
X000000539697D02*
X000000520799D01*
X000000488386D02*
X000000474173D01*
X000000449738D02*
X000000419819D01*
X000000416504D02*
X000000400993D01*
X000000373897D02*
X000000236771D01*
X000000127265D02*
X000000111130D01*
X000001027874Y-000000874055D02*
X000001013818D01*
X000000925472D02*
X000000810551D01*
X000000785629D02*
X000000773346D01*
X000000751850D02*
X000000700826D01*
X000000679212D02*
X000000666929D01*
X000000619905D02*
X000000601852D01*
X000000540610D02*
X000000521744D01*
X000000490965D02*
X000000472401D01*
X000000452969D02*
X000000422791D01*
X000000415651D02*
X000000400316D01*
X000000373897D02*
X000000236771D01*
X000000126500D02*
X000000110278D01*
X000001027874Y-000000872283D02*
X000001013818D01*
X000000925472D02*
X000000810551D01*
X000000785629D02*
X000000773346D01*
X000000751850D02*
X000000739566D01*
X000000713110D02*
X000000700826D01*
X000000679212D02*
X000000666929D01*
X000000619030D02*
X000000601191D01*
X000000541523D02*
X000000522688D01*
X000000490411D02*
X000000470801D01*
X000000455906D02*
X000000426158D01*
X000000414798D02*
X000000399729D01*
X000000373897D02*
X000000236771D01*
X000000125735D02*
X000000109426D01*
X000001027874Y-000000870511D02*
X000001013818D01*
X000000925472D02*
X000000810551D01*
X000000785629D02*
X000000773346D01*
X000000751850D02*
X000000739566D01*
X000000713110D02*
X000000700826D01*
X000000679212D02*
X000000666929D01*
X000000618156D02*
X000000600683D01*
X000000542436D02*
X000000523633D01*
X000000488716D02*
X000000469459D01*
X000000454737D02*
X000000429622D01*
X000000413945D02*
X000000399142D01*
X000000373897D02*
X000000236771D01*
X000000124970D02*
X000000108574D01*
X000001027874Y-000000868740D02*
X000001013818D01*
X000000925472D02*
X000000810551D01*
X000000785629D02*
X000000773346D01*
X000000751850D02*
X000000739566D01*
X000000713110D02*
X000000700826D01*
X000000679212D02*
X000000666929D01*
X000000617281D02*
X000000600176D01*
X000000543348D02*
X000000524578D01*
X000000487021D02*
X000000468116D01*
X000000453569D02*
X000000433088D01*
X000000413092D02*
X000000398554D01*
X000000373897D02*
X000000236771D01*
X000000124205D02*
X000000107723D01*
X000001027874Y-000000866968D02*
X000001013818D01*
X000000925472D02*
X000000810551D01*
X000000785629D02*
X000000773346D01*
X000000751850D02*
X000000739566D01*
X000000713110D02*
X000000700826D01*
X000000679212D02*
X000000666929D01*
X000000616407D02*
X000000599668D01*
X000000544261D02*
X000000525522D01*
X000000485326D02*
X000000466774D01*
X000000452400D02*
X000000436553D01*
X000000412366D02*
X000000397967D01*
X000000373897D02*
X000000236771D01*
X000000123440D02*
X000000106871D01*
X000001027874Y-000000865196D02*
X000001013818D01*
X000000925472D02*
X000000911417D01*
X000000874448D02*
X000000862165D01*
X000000824606D02*
X000000810551D01*
X000000785629D02*
X000000773346D01*
X000000751850D02*
X000000739566D01*
X000000713110D02*
X000000700826D01*
X000000679212D02*
X000000666929D01*
X000000615533D02*
X000000599160D01*
X000000545174D02*
X000000526466D01*
X000000483632D02*
X000000465431D01*
X000000451232D02*
X000000440128D01*
X000000411783D02*
X000000397379D01*
X000000122675D02*
X000000106019D01*
X000001077126Y-000000863425D02*
X000000964566D01*
X000000925472D02*
X000000911417D01*
X000000874448D02*
X000000862165D01*
X000000824606D02*
X000000810551D01*
X000000785629D02*
X000000773346D01*
X000000751850D02*
X000000739566D01*
X000000713110D02*
X000000700826D01*
X000000679212D02*
X000000666929D01*
X000000614658D02*
X000000598652D01*
X000000546087D02*
X000000527411D01*
X000000481937D02*
X000000464089D01*
X000000450063D02*
X000000444007D01*
X000000411201D02*
X000000396792D01*
X000000121910D02*
X000000105167D01*
X000001077126Y-000000861653D02*
X000000964566D01*
X000000925472D02*
X000000911417D01*
X000000874448D02*
X000000862165D01*
X000000824606D02*
X000000810551D01*
X000000785629D02*
X000000773346D01*
X000000751850D02*
X000000739566D01*
X000000713110D02*
X000000700826D01*
X000000679212D02*
X000000666929D01*
X000000613975D02*
X000000598145D01*
X000000547000D02*
X000000528355D01*
X000000480243D02*
X000000462746D01*
X000000410619D02*
X000000396205D01*
X000000121145D02*
X000000104315D01*
X000001077126Y-000000859881D02*
X000000964566D01*
X000000925472D02*
X000000911417D01*
X000000874448D02*
X000000862165D01*
X000000824606D02*
X000000810551D01*
X000000785629D02*
X000000773346D01*
X000000751850D02*
X000000739566D01*
X000000713110D02*
X000000700826D01*
X000000679212D02*
X000000666929D01*
X000000613580D02*
X000000597637D01*
X000000547913D02*
X000000529300D01*
X000000478548D02*
X000000461404D01*
X000000410037D02*
X000000395617D01*
X000000120380D02*
X000000103463D01*
X000001077126Y-000000858110D02*
X000000964566D01*
X000000925472D02*
X000000911417D01*
X000000874448D02*
X000000862165D01*
X000000824606D02*
X000000810551D01*
X000000785629D02*
X000000773346D01*
X000000751850D02*
X000000739566D01*
X000000713110D02*
X000000700826D01*
X000000679212D02*
X000000666929D01*
X000000613186D02*
X000000597129D01*
X000000548985D02*
X000000530244D01*
X000000476853D02*
X000000460061D01*
X000000409454D02*
X000000395029D01*
X000000190526D02*
X000000189048D01*
X000000119616D02*
X000000103952D01*
X000001077126Y-000000856338D02*
X000000964566D01*
X000000925472D02*
X000000911417D01*
X000000874448D02*
X000000862165D01*
X000000824606D02*
X000000810551D01*
X000000785629D02*
X000000666929D01*
X000000612791D02*
X000000596621D01*
X000000550495D02*
X000000531189D01*
X000000475494D02*
X000000458719D01*
X000000408872D02*
X000000394442D01*
X000000192434D02*
X000000187258D01*
X000000118851D02*
X000000106450D01*
X000001077126Y-000000854566D02*
X000000964566D01*
X000000925472D02*
X000000911417D01*
X000000874448D02*
X000000862165D01*
X000000824606D02*
X000000810551D01*
X000000785629D02*
X000000666929D01*
X000000612396D02*
X000000596114D01*
X000000552005D02*
X000000532134D01*
X000000474429D02*
X000000457376D01*
X000000408289D02*
X000000393855D01*
X000000194342D02*
X000000185468D01*
X000000118086D02*
X000000108949D01*
X000001077126Y-000000852795D02*
X000000964566D01*
X000000925472D02*
X000000911417D01*
X000000874448D02*
X000000862165D01*
X000000824606D02*
X000000810551D01*
X000000785629D02*
X000000666929D01*
X000000612001D02*
X000000592874D01*
X000000553516D02*
X000000533292D01*
X000000473364D02*
X000000456279D01*
X000000407707D02*
X000000393267D01*
X000000196250D02*
X000000183678D01*
X000000117321D02*
X000000111447D01*
X000001027874Y-000000851023D02*
X000001013818D01*
X000000925472D02*
X000000911417D01*
X000000874448D02*
X000000862165D01*
X000000824606D02*
X000000810551D01*
X000000785629D02*
X000000666929D01*
X000000611607D02*
X000000592504D01*
X000000555026D02*
X000000534697D01*
X000000472298D02*
X000000455303D01*
X000000407125D02*
X000000392913D01*
X000000198179D02*
X000000181889D01*
X000000116556D02*
X000000113946D01*
X000001027874Y-000000849252D02*
X000001013818D01*
X000000925472D02*
X000000911417D01*
X000000874448D02*
X000000862165D01*
X000000824606D02*
X000000810551D01*
X000000785629D02*
X000000666929D01*
X000000611212D02*
X000000593428D01*
X000000556537D02*
X000000536102D01*
X000000471233D02*
X000000454327D01*
X000000406876D02*
X000000392559D01*
X000000200402D02*
X000000180099D01*
X000001027874Y-000000847480D02*
X000001013818D01*
X000000925472D02*
X000000911417D01*
X000000874448D02*
X000000862165D01*
X000000824606D02*
X000000810551D01*
X000000785629D02*
X000000666929D01*
X000000610817D02*
X000000596835D01*
X000000558047D02*
X000000537506D01*
X000000470167D02*
X000000453352D01*
X000000406651D02*
X000000392204D01*
X000000202625D02*
X000000178309D01*
X000001027874Y-000000845708D02*
X000001013818D01*
X000000987304D02*
X000000982981D01*
X000000925472D02*
X000000911417D01*
X000000874448D02*
X000000862165D01*
X000000824606D02*
X000000810551D01*
X000000785629D02*
X000000666929D01*
X000000610422D02*
X000000600721D01*
X000000559557D02*
X000000538910D01*
X000000469102D02*
X000000452377D01*
X000000406426D02*
X000000391850D01*
X000000204848D02*
X000000179704D01*
X000001027874Y-000000843937D02*
X000001013818D01*
X000000990780D02*
X000000981470D01*
X000000925472D02*
X000000911417D01*
X000000874448D02*
X000000862165D01*
X000000824606D02*
X000000810551D01*
X000000734994D02*
X000000722639D01*
X000000610028D02*
X000000604606D01*
X000000560559D02*
X000000540315D01*
X000000468036D02*
X000000451401D01*
X000000406201D02*
X000000391496D01*
X000000207071D02*
X000000181589D01*
X000001059296Y-000000842165D02*
X000001055314D01*
X000001027874D02*
X000001013818D01*
X000000994257D02*
X000000980361D01*
X000000925472D02*
X000000911417D01*
X000000874448D02*
X000000862165D01*
X000000824606D02*
X000000810551D01*
X000000734562D02*
X000000722052D01*
X000000558260D02*
X000000541719D01*
X000000466971D02*
X000000391141D01*
X000000209294D02*
X000000183475D01*
X000001060343Y-000000840393D02*
X000001052847D01*
X000001027874D02*
X000001013818D01*
X000000996222D02*
X000000979519D01*
X000000925472D02*
X000000911417D01*
X000000874448D02*
X000000862165D01*
X000000824606D02*
X000000810551D01*
X000000734129D02*
X000000721465D01*
X000000555961D02*
X000000543123D01*
X000000465905D02*
X000000390787D01*
X000000211517D02*
X000000185360D01*
X000001061429Y-000000838622D02*
X000001050380D01*
X000001027874D02*
X000001013818D01*
X000000995165D02*
X000000978678D01*
X000000925472D02*
X000000911417D01*
X000000874448D02*
X000000862165D01*
X000000824606D02*
X000000810551D01*
X000000733697D02*
X000000720878D01*
X000000553662D02*
X000000544528D01*
X000000464840D02*
X000000387930D01*
X000000213740D02*
X000000187245D01*
X000001062671Y-000000836850D02*
X000001047913D01*
X000001027874D02*
X000001013818D01*
X000000994108D02*
X000000977836D01*
X000000925472D02*
X000000911417D01*
X000000874448D02*
X000000862165D01*
X000000824606D02*
X000000810551D01*
X000000733264D02*
X000000720290D01*
X000000551363D02*
X000000545932D01*
X000000528315D02*
X000000518511D01*
X000000463775D02*
X000000387307D01*
X000000216355D02*
X000000189329D01*
X000001063913Y-000000835078D02*
X000001045446D01*
X000001027874D02*
X000001013818D01*
X000000993052D02*
X000000976994D01*
X000000925472D02*
X000000911417D01*
X000000874448D02*
X000000862165D01*
X000000824606D02*
X000000810551D01*
X000000732831D02*
X000000719703D01*
X000000549065D02*
X000000547337D01*
X000000532921D02*
X000000513816D01*
X000000462709D02*
X000000388779D01*
X000000218970D02*
X000000191512D01*
X000001065155Y-000000833307D02*
X000001045932D01*
X000001027874D02*
X000001013818D01*
X000000992135D02*
X000000976153D01*
X000000925472D02*
X000000911417D01*
X000000874448D02*
X000000862165D01*
X000000824606D02*
X000000810551D01*
X000000732399D02*
X000000719116D01*
X000000534881D02*
X000000511850D01*
X000000461644D02*
X000000390551D01*
X000000220776D02*
X000000193695D01*
X000001066397Y-000000831535D02*
X000001046872D01*
X000001027874D02*
X000001013818D01*
X000000991339D02*
X000000975312D01*
X000000925472D02*
X000000911417D01*
X000000874448D02*
X000000862165D01*
X000000824606D02*
X000000810551D01*
X000000731966D02*
X000000718529D01*
X000000536653D02*
X000000510123D01*
X000000460578D02*
X000000392322D01*
X000000219346D02*
X000000195878D01*
X000001067639Y-000000829763D02*
X000001047813D01*
X000001027874D02*
X000001013818D01*
X000000990544D02*
X000000974470D01*
X000000925472D02*
X000000911417D01*
X000000874448D02*
X000000862165D01*
X000000824606D02*
X000000810551D01*
X000000731533D02*
X000000717942D01*
X000000538279D02*
X000000529503D01*
X000000517237D02*
X000000508566D01*
X000000459513D02*
X000000444168D01*
X000000402429D02*
X000000394094D01*
X000000217916D02*
X000000198060D01*
X000001068881Y-000000827992D02*
X000001049014D01*
X000001027874D02*
X000001013818D01*
X000000989749D02*
X000000973775D01*
X000000925472D02*
X000000810551D01*
X000000731101D02*
X000000717355D01*
X000000538961D02*
X000000531456D01*
X000000515275D02*
X000000507850D01*
X000000458447D02*
X000000443252D01*
X000000397620D02*
X000000395866D01*
X000000216485D02*
X000000200243D01*
X000001070237Y-000000826220D02*
X000001050390D01*
X000001027874D02*
X000001013818D01*
X000000988954D02*
X000000973177D01*
X000000925472D02*
X000000810551D01*
X000000730668D02*
X000000716768D01*
X000000539642D02*
X000000533009D01*
X000000513722D02*
X000000507135D01*
X000000457382D02*
X000000442366D01*
X000000215055D02*
X000000202427D01*
X000001071633Y-000000824448D02*
X000001051766D01*
X000001027874D02*
X000001013818D01*
X000000988159D02*
X000000972580D01*
X000000925472D02*
X000000810551D01*
X000000793070D02*
X000000659606D01*
X000000540323D02*
X000000533686D01*
X000000513045D02*
X000000506419D01*
X000000456316D02*
X000000441598D01*
X000000213625D02*
X000000204746D01*
X000001073030Y-000000822677D02*
X000001053142D01*
X000001027874D02*
X000001013818D01*
X000000987364D02*
X000000971983D01*
X000000925472D02*
X000000810551D01*
X000000793070D02*
X000000659606D01*
X000000540551D02*
X000000534364D01*
X000000512367D02*
X000000506181D01*
X000000455329D02*
X000000440830D01*
X000000212194D02*
X000000207612D01*
X000001073414Y-000000820905D02*
X000001054518D01*
X000001027874D02*
X000001013818D01*
X000000986568D02*
X000000971385D01*
X000000925472D02*
X000000810551D01*
X000000793070D02*
X000000659606D01*
X000000540551D02*
X000000534409D01*
X000000512322D02*
X000000506181D01*
X000000454845D02*
X000000440063D01*
X000001071011Y-000000819133D02*
X000001055894D01*
X000001027874D02*
X000001013818D01*
X000000985786D02*
X000000970788D01*
X000000925472D02*
X000000810551D01*
X000000793070D02*
X000000659606D01*
X000000540551D02*
X000000534409D01*
X000000512322D02*
X000000506181D01*
X000000454362D02*
X000000439323D01*
X000001068609Y-000000817362D02*
X000001057442D01*
X000001027874D02*
X000001013818D01*
X000000985187D02*
X000000968239D01*
X000000793070D02*
X000000659606D01*
X000000540551D02*
X000000534274D01*
X000000512458D02*
X000000506181D01*
X000000453879D02*
X000000438694D01*
X000001066206Y-000000815590D02*
X000001059333D01*
X000001027874D02*
X000001013818D01*
X000000984589D02*
X000000971533D01*
X000000793070D02*
X000000659606D01*
X000000540233D02*
X000000533596D01*
X000000513135D02*
X000000506514D01*
X000000453396D02*
X000000437417D01*
X000001063803Y-000000813818D02*
X000001061226D01*
X000001027874D02*
X000001013818D01*
X000000983990D02*
X000000975829D01*
X000000793070D02*
X000000659606D01*
X000000539552D02*
X000000532918D01*
X000000513812D02*
X000000507230D01*
X000000452913D02*
X000000434094D01*
X000001027874Y-000000812047D02*
X000001013818D01*
X000000983391D02*
X000000980127D01*
X000000538870D02*
X000000531220D01*
X000000515511D02*
X000000507946D01*
X000000452430D02*
X000000433521D01*
X000001027874Y-000000810275D02*
X000001013818D01*
X000000538188D02*
X000000528903D01*
X000000517855D02*
X000000508661D01*
X000000451946D02*
X000000437089D01*
X000001027874Y-000000808503D02*
X000001012183D01*
X000000536417D02*
X000000510348D01*
X000000451463D02*
X000000441347D01*
X000001027874Y-000000806732D02*
X000001011881D01*
X000000534592D02*
X000000512139D01*
X000000450980D02*
X000000445606D01*
X000000532058Y-000000804960D02*
X000000514696D01*
X000000527671Y-000000803188D02*
X000000519167D01*
G54D11*
X000000600000Y000000121259D02*
Y000000278740D01*
X000000521259Y000000200000D02*
X000000678740D01*
X000006469291Y000005610629D02*
Y000005689370D01*
X000006429921Y000005650000D02*
X000006508661D01*
X000000600000Y000005571259D02*
Y000005728740D01*
X000000521259Y000005650000D02*
X000000678740D01*
X000000800000Y000005490944D02*
Y000005609055D01*
X000000740944Y000005550000D02*
X000000859055D01*
X000006469291Y000000160629D02*
Y000000239370D01*
X000006429921Y000000200000D02*
X000006508661D01*
G75*
G01X000000678740Y000000200000D02*
G03I-000000078740J000000000000D01*
G74*
G75*
G01X000006508661Y000005650000D02*
G03I-000000039370J000000000000D01*
G74*
G75*
G01X000000678740Y000005650000D02*
G03I-000000078740J000000000000D01*
G74*
G75*
G01X000000859055Y000005550000D02*
G03I-000000059055J000000000000D01*
G74*
G75*
G01X000006508661Y000000200000D02*
G03I-000000039370J000000000000D01*
G74*
G54D12*
X000000150000Y000000489370D02*
X000000800000D01*
X000000150000Y000004789370D02*
X000000687503D01*
D02*
X000000737503Y000004739370D01*
D02*
X000000850000D01*
D02*
X000000900000Y000004789370D01*
X000000150000Y000003389370D02*
X000000687503D01*
D02*
X000000737503Y000003339370D01*
D02*
X000000850000D01*
D02*
X000000900000Y000003389370D01*
X000000150000Y000003689370D02*
X000000687503D01*
D02*
X000000737503Y000003639370D01*
D02*
X000000850000D01*
D02*
X000000900000Y000003689370D01*
X000000150000Y000003789370D02*
X000000687503D01*
D02*
X000000737503Y000003739370D01*
D02*
X000000850000D01*
D02*
X000000900000Y000003789370D01*
X000000150000Y000003889370D02*
X000000687503D01*
D02*
X000000737503Y000003839370D01*
D02*
X000000850000D01*
D02*
X000000900000Y000003889370D01*
X000000150000Y000003989370D02*
X000000687503D01*
D02*
X000000737503Y000003939370D01*
D02*
X000000850000D01*
D02*
X000000900000Y000003989370D01*
X000000150000Y000000789370D02*
X000000687503D01*
D02*
X000000737503Y000000739370D01*
D02*
X000000850000D01*
D02*
X000000900000Y000000789370D01*
X000000150000Y000000889370D02*
X000000687503D01*
D02*
X000000737503Y000000839370D01*
D02*
X000000850000D01*
D02*
X000000900000Y000000889370D01*
X000000150000Y000000989370D02*
X000000687503D01*
D02*
X000000737503Y000000939370D01*
D02*
X000000850000D01*
D02*
X000000900000Y000000989370D01*
X000000150000Y000001089370D02*
X000000687503D01*
D02*
X000000737503Y000001039370D01*
D02*
X000000850000D01*
D02*
X000000900000Y000001089370D01*
X000000150000Y000001189370D02*
X000000687503D01*
D02*
X000000737503Y000001139370D01*
D02*
X000000850000D01*
D02*
X000000900000Y000001189370D01*
X000000150000Y000001289370D02*
X000000687503D01*
D02*
X000000737503Y000001239370D01*
D02*
X000000850000D01*
D02*
X000000900000Y000001289370D01*
X000000150000Y000001389370D02*
X000000687503D01*
D02*
X000000737503Y000001339370D01*
D02*
X000000850000D01*
D02*
X000000900000Y000001389370D01*
X000000150000Y000001589370D02*
X000000687503D01*
D02*
X000000737503Y000001539370D01*
D02*
X000000850000D01*
D02*
X000000900000Y000001589370D01*
X000000150000Y000001689370D02*
X000000687503D01*
D02*
X000000737503Y000001639370D01*
D02*
X000000850000D01*
D02*
X000000900000Y000001689370D01*
X000000150000Y000001789370D02*
X000000687503D01*
D02*
X000000737503Y000001739370D01*
D02*
X000000850000D01*
D02*
X000000900000Y000001789370D01*
X000000150000Y000001889370D02*
X000000687503D01*
D02*
X000000737503Y000001839370D01*
D02*
X000000850000D01*
D02*
X000000900000Y000001889370D01*
X000000150000Y000001989370D02*
X000000687503D01*
D02*
X000000737503Y000001939370D01*
D02*
X000000850000D01*
D02*
X000000900000Y000001989370D01*
X000000150000Y000002089370D02*
X000000687503D01*
D02*
X000000737503Y000002039370D01*
D02*
X000000850000D01*
D02*
X000000900000Y000002089370D01*
X000000150000Y000002189370D02*
X000000687503D01*
D02*
X000000737503Y000002139370D01*
D02*
X000000850000D01*
D02*
X000000900000Y000002189370D01*
X000000150000Y000002289370D02*
X000000687503D01*
D02*
X000000737503Y000002239370D01*
D02*
X000000850000D01*
D02*
X000000900000Y000002289370D01*
X000000150000Y000002389370D02*
X000000687503D01*
D02*
X000000737503Y000002339370D01*
D02*
X000000850000D01*
D02*
X000000900000Y000002389370D01*
X000000150000Y000002589370D02*
X000000687503D01*
D02*
X000000737503Y000002539370D01*
D02*
X000000850000D01*
D02*
X000000900000Y000002589370D01*
X000000150000Y000002689370D02*
X000000687503D01*
D02*
X000000737503Y000002639370D01*
D02*
X000000850000D01*
D02*
X000000900000Y000002689370D01*
X000000150000Y000002789370D02*
X000000687503D01*
D02*
X000000737503Y000002739370D01*
D02*
X000000850000D01*
D02*
X000000900000Y000002789370D01*
X000000150000Y000002889370D02*
X000000687503D01*
D02*
X000000737503Y000002839370D01*
D02*
X000000850000D01*
D02*
X000000900000Y000002889370D01*
X000000150000Y000002989370D02*
X000000687503D01*
D02*
X000000737503Y000002939370D01*
D02*
X000000850000D01*
D02*
X000000900000Y000002989370D01*
X000000150000Y000003089370D02*
X000000687503D01*
D02*
X000000737503Y000003039370D01*
D02*
X000000850000D01*
D02*
X000000900000Y000003089370D01*
X000000150000Y000003189370D02*
X000000687503D01*
D02*
X000000737503Y000003139370D01*
D02*
X000000850000D01*
D02*
X000000900000Y000003189370D01*
X000000150000Y000003289370D02*
X000000687503D01*
D02*
X000000737503Y000003239370D01*
D02*
X000000850000D01*
D02*
X000000900000Y000003289370D01*
X000000150000Y000004089370D02*
X000000687503D01*
D02*
X000000737503Y000004039370D01*
D02*
X000000850000D01*
D02*
X000000900000Y000004089370D01*
Y000004389370D02*
X000000850000Y000004339370D01*
D02*
X000000737503D01*
D02*
X000000687503Y000004389370D01*
D02*
X000000150000D01*
Y000004689370D02*
X000000687503D01*
D02*
X000000737503Y000004639370D01*
D02*
X000000850000D01*
D02*
X000000900000Y000004689370D01*
X000000150000Y000004289370D02*
X000000687503D01*
D02*
X000000737503Y000004239370D01*
D02*
X000000850000D01*
D02*
X000000900000Y000004289370D01*
X000000150000Y000004989370D02*
X000000687503D01*
D02*
X000000737503Y000004939370D01*
D02*
X000000850000D01*
D02*
X000000900000Y000004989370D01*
X000000150000Y000003589370D02*
X000000687503D01*
D02*
X000000737503Y000003539370D01*
D02*
X000000850000D01*
D02*
X000000900000Y000003589370D01*
X000000150000Y000004889370D02*
X000000687503D01*
D02*
X000000737503Y000004839370D01*
D02*
X000000850000D01*
D02*
X000000900000Y000004889370D01*
X000000150000Y000005189370D02*
X000000687503D01*
D02*
X000000737503Y000005139370D01*
D02*
X000000850000D01*
D02*
X000000900000Y000005189370D01*
X000000150000Y000004589370D02*
X000000687503D01*
D02*
X000000737503Y000004539370D01*
D02*
X000000850000D01*
D02*
X000000900000Y000004589370D01*
X000000150000Y000004189370D02*
X000000687503D01*
D02*
X000000737503Y000004139370D01*
D02*
X000000850000D01*
D02*
X000000900000Y000004189370D01*
X000000150000Y000005089370D02*
X000000687503D01*
D02*
X000000737503Y000005039370D01*
D02*
X000000850000D01*
D02*
X000000900000Y000005089370D01*
G54D13*
X000000034448Y000000489370D02*
X000000230118D01*
X000000034448Y000000589370D02*
X000000230118D01*
X000000034448Y000000689370D02*
X000000230118D01*
X000000034448Y000000789370D02*
X000000230118D01*
X000000034448Y000000889370D02*
X000000230118D01*
X000000034448Y000000989370D02*
X000000230118D01*
X000000034448Y000001089370D02*
X000000230118D01*
X000000034448Y000001189370D02*
X000000230118D01*
X000000034448Y000001289370D02*
X000000230118D01*
X000000034448Y000001389370D02*
X000000230118D01*
X000000034448Y000001489370D02*
X000000230118D01*
X000000034448Y000001589370D02*
X000000230118D01*
X000000034448Y000001689370D02*
X000000230118D01*
X000000034448Y000001789370D02*
X000000230118D01*
X000000034448Y000001889370D02*
X000000230118D01*
X000000034448Y000001989370D02*
X000000230118D01*
X000000034448Y000002089370D02*
X000000230118D01*
X000000034448Y000002189370D02*
X000000230118D01*
X000000034448Y000002289370D02*
X000000230118D01*
X000000034448Y000002389370D02*
X000000230118D01*
X000000034448Y000002489370D02*
X000000230118D01*
X000000034448Y000002589370D02*
X000000230118D01*
X000000034448Y000002689370D02*
X000000230118D01*
X000000034448Y000002789370D02*
X000000230118D01*
X000000034448Y000002889370D02*
X000000230118D01*
X000000034448Y000002989370D02*
X000000230118D01*
X000000034448Y000003089370D02*
X000000230118D01*
X000000034448Y000003189370D02*
X000000230118D01*
X000000034448Y000003289370D02*
X000000230118D01*
X000000034448Y000003389370D02*
X000000230118D01*
X000000034448Y000003489370D02*
X000000230118D01*
X000000034448Y000003589370D02*
X000000230118D01*
X000000034448Y000003689370D02*
X000000230118D01*
X000000034448Y000003789370D02*
X000000230118D01*
X000000034448Y000003889370D02*
X000000230118D01*
X000000034448Y000003989370D02*
X000000230118D01*
X000000034448Y000004089370D02*
X000000230118D01*
X000000034448Y000004189370D02*
X000000230118D01*
X000000034448Y000004289370D02*
X000000230118D01*
X000000034448Y000004389370D02*
X000000230118D01*
X000000034448Y000004489370D02*
X000000230118D01*
X000000034448Y000004589370D02*
X000000230118D01*
X000000034448Y000004689370D02*
X000000230118D01*
X000000034448Y000004789370D02*
X000000230118D01*
X000000034448Y000004889370D02*
X000000230118D01*
X000000034448Y000004989370D02*
X000000230118D01*
X000000034448Y000005089370D02*
X000000230118D01*
X000000034448Y000005189370D02*
X000000230118D01*
X000000034448Y000005289370D02*
X000000230118D01*
X000000034448Y000005389370D02*
X000000230118D01*
G54D14*
X000000800000Y000005289370D03*
X000000900000Y000005189370D03*
Y000005089370D03*
Y000004989370D03*
Y000003789370D03*
Y000003689370D03*
Y000003589369D03*
Y000003389370D03*
Y000003289370D03*
Y000003189370D03*
Y000003089369D03*
Y000002989370D03*
Y000002889370D03*
Y000002789370D03*
Y000002689370D03*
Y000002589369D03*
Y000002389370D03*
Y000002289370D03*
Y000002189370D03*
Y000002089369D03*
Y000001989369D03*
Y000001889370D03*
Y000001789370D03*
Y000001689369D03*
Y000001589370D03*
Y000001389370D03*
Y000001289370D03*
Y000001189369D03*
Y000001089370D03*
Y000000989370D03*
Y000000889370D03*
Y000000789370D03*
X000000800000Y000003589369D03*
Y000002589369D03*
Y000000689370D03*
Y000000589370D03*
Y000000489370D03*
Y000000789370D03*
Y000000889370D03*
Y000000989370D03*
Y000001089370D03*
Y000001189369D03*
Y000001289370D03*
Y000001389370D03*
Y000001589370D03*
Y000001689369D03*
Y000001789370D03*
Y000001889370D03*
Y000001989369D03*
Y000002089369D03*
Y000002189370D03*
Y000002289370D03*
Y000002389370D03*
Y000002789370D03*
Y000002889370D03*
Y000002989370D03*
Y000003089369D03*
Y000003189370D03*
Y000003289370D03*
Y000003389370D03*
X000000900000Y000003889370D03*
Y000003989370D03*
Y000004189370D03*
Y000004089369D03*
Y000004389370D03*
Y000004289370D03*
Y000004589370D03*
Y000004689370D03*
Y000004889370D03*
Y000004789370D03*
X000000800000Y000003789370D03*
Y000003889370D03*
Y000003989370D03*
Y000004089369D03*
Y000004189370D03*
Y000004289370D03*
Y000004389370D03*
Y000004589370D03*
Y000004689370D03*
Y000004789370D03*
Y000004889370D03*
Y000004989370D03*
Y000005089370D03*
Y000005189370D03*
M02*
