G04 WinPCB Gerber Out *
G70*
G90*
G04 CSI RS-274X *
G04 Date: 2019/03/05 *
G04 Time: 11:11:39 *
%FSDAX66Y66*%
%MOIN*%
%IPPOS*%
%ADD10C,0.007874*%
%ADD11C,0.005906*%
%C:\Users\user_EDA1\Documents\PC-98_C-BUS_Board\6.プリント基板\01\4-1基板外形.gbr*%
G01X000000000000Y000000000000D02*
G54D10*
X000000000000Y000005441338D02*
X000000039370Y000005480708D01*
X000000000000Y000000437401D02*
Y000005441338D01*
X000000039370Y000000398031D02*
X000000000000Y000000437401D01*
X000000400000Y000000118110D02*
X000000518110Y000000000000D01*
X000000400000Y000005731889D02*
X000000518110Y000005850000D01*
X000006551181D02*
X000000518110D01*
X000006669291Y000005731889D02*
X000006551181Y000005850000D01*
X000000518110Y000000000000D02*
X000006551181D01*
X000006669291Y000000118110D02*
Y000005731889D01*
X000006551181Y000000000000D02*
X000006669291Y000000118110D01*
X000000039370Y000005480708D02*
X000000340944D01*
X000000400000Y000005539763D02*
Y000005731889D01*
X000000340944Y000005480708D02*
X000000400000Y000005539763D01*
X000000039370Y000000398031D02*
X000000340944D01*
X000000400000Y000000338976D02*
Y000000118110D01*
X000000340944Y000000398031D02*
X000000400000Y000000338976D01*
G54D11*
X000000841912Y-000000221007D02*
X000000825613Y-000000216400D01*
D02*
X000000800928Y-000000199511D01*
D02*
X000000792660Y-000000187227D01*
X000000756400D02*
X000000749314Y-000000201046D01*
D02*
X000000725337Y-000000219471D01*
D02*
X000000708448Y-000000224078D01*
D02*
X000000703487Y-000000211794D01*
D02*
X000000717660Y-000000208133D01*
D02*
X000000737621Y-000000195849D01*
D02*
X000000743408Y-000000187227D01*
D02*
X000000705967D01*
D02*
Y-000000177306D01*
X000000741637D02*
Y-000000130652D01*
D02*
X000000715180D01*
D02*
Y-000000120731D01*
D02*
X000000741637D01*
D02*
Y-000000103487D01*
D02*
X000000753329D01*
D02*
X000000756400Y-000000103841D01*
D02*
X000000756636Y-000000105731D01*
D02*
X000000753920Y-000000107266D01*
D02*
Y-000000120731D01*
D02*
X000000795140D01*
D02*
Y-000000103487D01*
D02*
X000000806833D01*
D02*
X000000809904Y-000000103841D01*
D02*
X000000810140Y-000000105731D01*
D02*
X000000807424Y-000000107266D01*
D02*
Y-000000120731D01*
D02*
X000000832581D01*
D02*
Y-000000130652D01*
D02*
X000000807424D01*
D02*
Y-000000177306D01*
D02*
X000000842503D01*
D02*
Y-000000187227D01*
D02*
X000000806833D01*
D02*
X000000811085Y-000000193723D01*
D02*
X000000831046Y-000000204117D01*
D02*
X000000846755Y-000000208133D01*
D02*
X000000841912Y-000000221007D01*
X000000744117Y-000000206833D02*
X000000768093D01*
D02*
Y-000000193369D01*
D02*
X000000779786D01*
D02*
X000000782857Y-000000193723D01*
D02*
X000000783093Y-000000195495D01*
D02*
X000000780377Y-000000197030D01*
D02*
Y-000000206833D01*
D02*
X000000805534D01*
D02*
Y-000000216755D01*
D02*
X000000780377D01*
D02*
Y-000000229038D01*
D02*
X000000833290D01*
D02*
Y-000000240731D01*
D02*
X000000715770D01*
D02*
Y-000000229038D01*
D02*
X000000768093D01*
D02*
Y-000000216755D01*
D02*
X000000744117D01*
D02*
Y-000000206833D01*
X000000753920Y-000000139865D02*
X000000795140D01*
D02*
Y-000000130652D01*
D02*
X000000753920D01*
D02*
Y-000000139865D01*
Y-000000158290D02*
X000000795140D01*
D02*
Y-000000149668D01*
D02*
X000000753920D01*
D02*
Y-000000158290D01*
X000000795140Y-000000177306D02*
Y-000000168093D01*
D02*
X000000753920D01*
D02*
Y-000000177306D01*
X000000955298Y-000000165613D02*
X000000956833Y-000000175180D01*
D02*
X000000962385Y-000000191479D01*
D02*
X000000966400Y-000000198211D01*
D02*
X000000970416Y-000000192424D01*
D02*
X000000975967Y-000000176125D01*
D02*
X000000977503Y-000000165613D01*
D02*
X000000955298D01*
X000000931322Y-000000230810D02*
X000000939944Y-000000226912D01*
D02*
X000000953408Y-000000216400D01*
D02*
X000000958369Y-000000209904D01*
D02*
X000000952463Y-000000198566D01*
D02*
X000000945140Y-000000176479D01*
D02*
X000000943605Y-000000165613D01*
D02*
X000000936873D01*
D02*
Y-000000178605D01*
D02*
Y-000000202936D01*
D02*
X000000926361Y-000000235770D01*
D02*
X000000915967Y-000000244392D01*
D02*
X000000908526Y-000000232109D01*
D02*
X000000916558Y-000000224078D01*
D02*
X000000924589Y-000000197621D01*
D02*
Y-000000179196D01*
D02*
Y-000000114589D01*
D02*
X000000997700D01*
D02*
Y-000000126282D01*
D02*
X000000936873D01*
D02*
Y-000000153920D01*
D02*
X000000979274D01*
D02*
X000000982345Y-000000150849D01*
D02*
X000000992857Y-000000158290D01*
D02*
X000000994038Y-000000159235D01*
D02*
X000000993093Y-000000161361D01*
D02*
X000000990967Y-000000162542D01*
D02*
X000000988487Y-000000175770D01*
D02*
X000000980219Y-000000199156D01*
D02*
X000000974432Y-000000209314D01*
D02*
X000000977739Y-000000214274D01*
D02*
X000000991322Y-000000224078D01*
D02*
X000001001479Y-000000229038D01*
D02*
X000000996518Y-000000241912D01*
D02*
X000000989078Y-000000238841D01*
D02*
X000000974078Y-000000227857D01*
D02*
X000000966400Y-000000219826D01*
D02*
X000000960849Y-000000226912D01*
D02*
X000000945731Y-000000238841D01*
D02*
X000000936282Y-000000243802D01*
D02*
X000000931322Y-000000230810D01*
X000000887030Y-000000182266D02*
X000000882424Y-000000193015D01*
D02*
X000000872503Y-000000208133D01*
D02*
X000000867306Y-000000212385D01*
D02*
X000000861164Y-000000201282D01*
D02*
X000000871322Y-000000189589D01*
D02*
X000000884196Y-000000162542D01*
D02*
X000000887030Y-000000147188D01*
D02*
X000000864944D01*
D02*
Y-000000135495D01*
D02*
X000000887030D01*
D02*
Y-000000103487D01*
D02*
X000000898723D01*
D02*
X000000901203Y-000000103841D01*
D02*
X000000901440Y-000000105731D01*
D02*
X000000899314Y-000000107266D01*
D02*
Y-000000135495D01*
D02*
X000000919629D01*
D02*
Y-000000147188D01*
D02*
X000000899314D01*
D02*
Y-000000168684D01*
D02*
X000000905810Y-000000172463D01*
D02*
X000000915967Y-000000179550D01*
D02*
X000000919629Y-000000182857D01*
D02*
X000000914078Y-000000195140D01*
D02*
X000000910416Y-000000192424D01*
D02*
X000000902975Y-000000186282D01*
D02*
X000000899314Y-000000182857D01*
D02*
Y-000000246164D01*
D02*
X000000887030D01*
D02*
Y-000000182266D01*
X000001022739Y-000000229038D02*
X000001032896Y-000000222542D01*
D02*
X000001050731Y-000000202227D01*
D02*
X000001058408Y-000000188408D01*
D02*
X000001052266Y-000000182857D01*
D02*
X000001042109Y-000000174944D01*
D02*
X000001038093Y-000000172463D01*
D02*
X000001035849Y-000000177660D01*
D02*
X000001030062Y-000000187227D01*
D02*
X000001026400Y-000000191479D01*
D02*
X000001015298Y-000000183448D01*
D02*
X000001025455Y-000000170928D01*
D02*
X000001038684Y-000000137148D01*
D02*
X000001041755Y-000000115888D01*
D02*
X000001054629Y-000000119550D01*
D02*
X000001056164Y-000000120849D01*
D02*
X000001055574Y-000000122975D01*
D02*
X000001053448Y-000000123802D01*
D02*
X000001050967Y-000000135495D01*
D02*
X000001074353D01*
D02*
X000001076833Y-000000133015D01*
D02*
X000001085455Y-000000140455D01*
D02*
X000001086282Y-000000141400D01*
D02*
X000001085692Y-000000143172D01*
D02*
X000001084156Y-000000144117D01*
D02*
X000001079550Y-000000176715D01*
D02*
X000001052739Y-000000224668D01*
D02*
X000001030652Y-000000240022D01*
D02*
X000001022739Y-000000229038D01*
X000001146282Y-000000203172D02*
X000001137306Y-000000197030D01*
D02*
X000001124078Y-000000186873D01*
D02*
X000001119826Y-000000182857D01*
D02*
Y-000000242503D01*
D02*
X000001107542D01*
D02*
Y-000000170574D01*
D02*
X000001101637Y-000000163251D01*
D02*
X000001091243Y-000000147896D01*
D02*
X000001086636Y-000000139865D01*
D02*
X000001096558Y-000000132424D01*
D02*
X000001099274Y-000000137384D01*
D02*
X000001104707Y-000000146007D01*
D02*
X000001107542Y-000000149668D01*
D02*
Y-000000107266D01*
D02*
X000001119235D01*
D02*
X000001121715Y-000000107621D01*
D02*
X000001121952Y-000000109392D01*
D02*
X000001119826Y-000000110928D01*
D02*
Y-000000163841D01*
D02*
X000001121952Y-000000168211D01*
D02*
X000001139786Y-000000181676D01*
D02*
X000001155495Y-000000190889D01*
D02*
X000001146282Y-000000203172D01*
X000001063251Y-000000176125D02*
X000001065967Y-000000169038D01*
D02*
X000001069983Y-000000154629D01*
D02*
X000001071282Y-000000147188D01*
D02*
X000001047896D01*
D02*
X000001043054Y-000000160770D01*
D02*
X000001046952Y-000000163251D01*
D02*
X000001057109Y-000000170928D01*
D02*
X000001063251Y-000000176125D01*
X000001172385Y-000000172463D02*
Y-000000160770D01*
D02*
X000001190219D01*
D02*
Y-000000126873D01*
D02*
X000001177936D01*
D02*
Y-000000115180D01*
D02*
X000001243133D01*
D02*
Y-000000126873D01*
D02*
X000001231440D01*
D02*
Y-000000160770D01*
D02*
X000001249274D01*
D02*
Y-000000172463D01*
D02*
X000001231440D01*
D02*
Y-000000241912D01*
D02*
X000001219156D01*
D02*
Y-000000172463D01*
D02*
X000001202503D01*
D02*
Y-000000182857D01*
D02*
Y-000000202581D01*
D02*
X000001194471Y-000000231991D01*
D02*
X000001186558Y-000000241912D01*
D02*
X000001174865Y-000000232700D01*
D02*
X000001182542Y-000000225022D01*
D02*
X000001190219Y-000000200101D01*
D02*
Y-000000182857D01*
D02*
Y-000000172463D01*
D02*
X000001172385D01*
X000001202503Y-000000126873D02*
Y-000000160770D01*
D02*
X000001219156D01*
D02*
Y-000000126873D01*
D02*
X000001202503D01*
X000001246203Y-000000147778D02*
X000001261203Y-000000139865D01*
D02*
X000001281282Y-000000122621D01*
D02*
X000001286243Y-000000113408D01*
D02*
X000001298526Y-000000122621D01*
D02*
X000001299353Y-000000123211D01*
D02*
X000001297818Y-000000124511D01*
D02*
X000001295455Y-000000125101D01*
D02*
X000001290140Y-000000134078D01*
D02*
X000001269589Y-000000151558D01*
D02*
X000001254235Y-000000160062D01*
D02*
X000001246203Y-000000147778D01*
X000001245613Y-000000185928D02*
X000001263093Y-000000178251D01*
D02*
X000001285888Y-000000159826D01*
D02*
X000001291085Y-000000149078D01*
D02*
X000001303369Y-000000158881D01*
D02*
X000001304314Y-000000159471D01*
D02*
X000001302778Y-000000160770D01*
D02*
X000001300298Y-000000161361D01*
D02*
X000001291676Y-000000173408D01*
D02*
X000001268644Y-000000192424D01*
D02*
X000001254235Y-000000199511D01*
D02*
X000001245613Y-000000185928D01*
X000001310810Y-000000192070D02*
X000001312345Y-000000192778D01*
D02*
X000001310810Y-000000194314D01*
D02*
X000001307739Y-000000195140D01*
D02*
X000001297581Y-000000210259D01*
D02*
X000001268290Y-000000232581D01*
D02*
X000001249274Y-000000240022D01*
D02*
X000001241952Y-000000226558D01*
D02*
X000001261558Y-000000219235D01*
D02*
X000001289904Y-000000197030D01*
D02*
X000001298526Y-000000182266D01*
D02*
X000001310810Y-000000192070D01*
X000000887030Y-000000246164D02*
X000000899314D01*
X000000887030Y-000000244392D02*
X000000899314D01*
X000000887030Y-000000242621D02*
X000000899314D01*
X000000914894D02*
X000000918103D01*
X000000935831D02*
X000000938532D01*
X000000887030Y-000000240849D02*
X000000899314D01*
X000000913821D02*
X000000920239D01*
X000000935155D02*
X000000941906D01*
X000000993943D02*
X000000996928D01*
X000001107542D02*
X000001119826D01*
X000001185208D02*
X000001187405D01*
X000001219156D02*
X000001231440D01*
X000000715770Y-000000239078D02*
X000000833290D01*
X000000887030D02*
X000000899314D01*
X000000912748D02*
X000000922374D01*
X000000934478D02*
X000000945281D01*
X000000989650D02*
X000000997611D01*
X000001029971D02*
X000001032011D01*
X000001107542D02*
X000001119826D01*
X000001182960D02*
X000001188818D01*
X000001219156D02*
X000001231440D01*
X000001248761D02*
X000001251689D01*
X000000715770Y-000000237306D02*
X000000833290D01*
X000000887030D02*
X000000899314D01*
X000000911674D02*
X000000924510D01*
X000000933802D02*
X000000947677D01*
X000000986981D02*
X000000998293D01*
X000001028695D02*
X000001034560D01*
X000001107542D02*
X000001119826D01*
X000001180711D02*
X000001190232D01*
X000001219156D02*
X000001231440D01*
X000001247797D02*
X000001256216D01*
X000000715770Y-000000235534D02*
X000000833290D01*
X000000887030D02*
X000000899314D01*
X000000910601D02*
X000000926437D01*
X000000933125D02*
X000000949922D01*
X000000984561D02*
X000000998976D01*
X000001027418D02*
X000001037108D01*
X000001107542D02*
X000001119826D01*
X000001178463D02*
X000001191645D01*
X000001219156D02*
X000001231440D01*
X000001246833D02*
X000001260744D01*
X000000715770Y-000000233763D02*
X000000833290D01*
X000000887030D02*
X000000899314D01*
X000000909528D02*
X000000927003D01*
X000000932449D02*
X000000952168D01*
X000000982142D02*
X000000999659D01*
X000001026142D02*
X000001039657D01*
X000001107542D02*
X000001119826D01*
X000001176214D02*
X000001193058D01*
X000001219156D02*
X000001231440D01*
X000001245870D02*
X000001265272D01*
X000000715770Y-000000231991D02*
X000000833290D01*
X000000887030D02*
X000000899314D01*
X000000908644D02*
X000000927571D01*
X000000931772D02*
X000000954413D01*
X000000979722D02*
X000001000341D01*
X000001024866D02*
X000001042205D01*
X000001107542D02*
X000001119826D01*
X000001175574D02*
X000001194471D01*
X000001219156D02*
X000001231440D01*
X000001244906D02*
X000001269065D01*
X000000715770Y-000000230219D02*
X000000833290D01*
X000000887030D02*
X000000899314D01*
X000000910416D02*
X000000928138D01*
X000000932628D02*
X000000956658D01*
X000000977303D02*
X000001001023D01*
X000001023590D02*
X000001044754D01*
X000001107542D02*
X000001119826D01*
X000001177345D02*
X000001194955D01*
X000001219156D02*
X000001231440D01*
X000001243942D02*
X000001271390D01*
X000000768093Y-000000228448D02*
X000000780377D01*
X000000887030D02*
X000000899314D01*
X000000912188D02*
X000000928705D01*
X000000936547D02*
X000000958903D01*
X000000974884D02*
X000001000270D01*
X000001023662D02*
X000001047302D01*
X000001107542D02*
X000001119826D01*
X000001179117D02*
X000001195439D01*
X000001219156D02*
X000001231440D01*
X000001242979D02*
X000001273714D01*
X000000768093Y-000000226676D02*
X000000780377D01*
X000000887030D02*
X000000899314D01*
X000000913959D02*
X000000929272D01*
X000000940246D02*
X000000961034D01*
X000000972948D02*
X000000996642D01*
X000001026432D02*
X000001049851D01*
X000001107542D02*
X000001119826D01*
X000001180888D02*
X000001195922D01*
X000001219156D02*
X000001231440D01*
X000001242016D02*
X000001276039D01*
X000000768093Y-000000224904D02*
X000000780377D01*
X000000887030D02*
X000000899314D01*
X000000915731D02*
X000000929840D01*
X000000942515D02*
X000000962422D01*
X000000971255D02*
X000000993015D01*
X000001029203D02*
X000001052399D01*
X000001107542D02*
X000001119826D01*
X000001182578D02*
X000001196407D01*
X000001219156D02*
X000001231440D01*
X000001246379D02*
X000001278364D01*
X000000708066Y-000000223133D02*
X000000711912D01*
X000000768093D02*
X000000780377D01*
X000000887030D02*
X000000899314D01*
X000000916845D02*
X000000930407D01*
X000000944785D02*
X000000963810D01*
X000000969561D02*
X000000990012D01*
X000001031973D02*
X000001053597D01*
X000001107542D02*
X000001119826D01*
X000001183124D02*
X000001196890D01*
X000001219156D02*
X000001231440D01*
X000001251122D02*
X000001280689D01*
X000000707351Y-000000221361D02*
X000000718408D01*
X000000768093D02*
X000000780377D01*
X000000887030D02*
X000000899314D01*
X000000917382D02*
X000000930974D01*
X000000947054D02*
X000000965197D01*
X000000967868D02*
X000000987558D01*
X000001033933D02*
X000001054588D01*
X000001107542D02*
X000001119826D01*
X000001183670D02*
X000001197374D01*
X000001219156D02*
X000001231440D01*
X000001255866D02*
X000001283013D01*
X000000706635Y-000000219589D02*
X000000724904D01*
X000000768093D02*
X000000780377D01*
X000000836897D02*
X000000842445D01*
X000000887030D02*
X000000899314D01*
X000000917920D02*
X000000931541D01*
X000000949323D02*
X000000985103D01*
X000001035489D02*
X000001055578D01*
X000001107542D02*
X000001119826D01*
X000001184216D02*
X000001197858D01*
X000001219156D02*
X000001231440D01*
X000001260609D02*
X000001285338D01*
X000000705919Y-000000217818D02*
X000000727489D01*
X000000768093D02*
X000000780377D01*
X000000830628D02*
X000000843111D01*
X000000887030D02*
X000000899314D01*
X000000918458D02*
X000000932108D01*
X000000951593D02*
X000000982648D01*
X000001037044D02*
X000001056569D01*
X000001107542D02*
X000001119826D01*
X000001184761D02*
X000001198342D01*
X000001219156D02*
X000001231440D01*
X000001263367D02*
X000001287663D01*
X000000705204Y-000000216046D02*
X000000729794D01*
X000000744117D02*
X000000805534D01*
X000000825095D02*
X000000843778D01*
X000000887030D02*
X000000899314D01*
X000000918996D02*
X000000932676D01*
X000000953679D02*
X000000980194D01*
X000001038599D02*
X000001057559D01*
X000001107542D02*
X000001119826D01*
X000001185307D02*
X000001198826D01*
X000001219156D02*
X000001231440D01*
X000001265629D02*
X000001289987D01*
X000000704489Y-000000214274D02*
X000000732100D01*
X000000744117D02*
X000000805534D01*
X000000822506D02*
X000000844444D01*
X000000887030D02*
X000000899314D01*
X000000919534D02*
X000000933243D01*
X000000955031D02*
X000000977739D01*
X000001040155D02*
X000001058550D01*
X000001107542D02*
X000001119826D01*
X000001185853D02*
X000001199309D01*
X000001219156D02*
X000001231440D01*
X000001267890D02*
X000001292312D01*
X000000703773Y-000000212503D02*
X000000734405D01*
X000000744117D02*
X000000805534D01*
X000000819916D02*
X000000845111D01*
X000000887030D02*
X000000899314D01*
X000000920072D02*
X000000933810D01*
X000000956385D02*
X000000976558D01*
X000001041710D02*
X000001059540D01*
X000001107542D02*
X000001119826D01*
X000001186399D02*
X000001199793D01*
X000001219156D02*
X000001231440D01*
X000001270152D02*
X000001294637D01*
X000000707602Y-000000210731D02*
X000000736711D01*
X000000744117D02*
X000000805534D01*
X000000817327D02*
X000000845777D01*
X000000866391D02*
X000000869327D01*
X000000887030D02*
X000000899314D01*
X000000920609D02*
X000000934377D01*
X000000957737D02*
X000000975377D01*
X000001043265D02*
X000001060531D01*
X000001107542D02*
X000001119826D01*
X000001186944D02*
X000001200277D01*
X000001219156D02*
X000001231440D01*
X000001272414D02*
X000001296961D01*
X000000714459Y-000000208959D02*
X000000739016D01*
X000000744117D02*
X000000805534D01*
X000000814737D02*
X000000846444D01*
X000000865411D02*
X000000871492D01*
X000000887030D02*
X000000899314D01*
X000000921147D02*
X000000934944D01*
X000000957877D02*
X000000974633D01*
X000001044821D02*
X000001061521D01*
X000001107542D02*
X000001119826D01*
X000001187490D02*
X000001200761D01*
X000001219156D02*
X000001231440D01*
X000001274676D02*
X000001298454D01*
X000000719196Y-000000207188D02*
X000000741322D01*
X000000744117D02*
X000000805534D01*
X000000812148D02*
X000000843058D01*
X000000864431D02*
X000000873122D01*
X000000887030D02*
X000000899314D01*
X000000921685D02*
X000000935511D01*
X000000956954D02*
X000000975643D01*
X000001046376D02*
X000001062512D01*
X000001107542D02*
X000001119826D01*
X000001188036D02*
X000001201245D01*
X000001219156D02*
X000001231440D01*
X000001276937D02*
X000001299644D01*
X000000722074Y-000000205416D02*
X000000743627D01*
X000000768093D02*
X000000780377D01*
X000000809559D02*
X000000836128D01*
X000000863451D02*
X000000874285D01*
X000000887030D02*
X000000899314D01*
X000000922223D02*
X000000936078D01*
X000000956031D02*
X000000976653D01*
X000001047931D02*
X000001063503D01*
X000001107542D02*
X000001119826D01*
X000001188582D02*
X000001201728D01*
X000001219156D02*
X000001231440D01*
X000001279199D02*
X000001300835D01*
X000000724953Y-000000203644D02*
X000000745932D01*
X000000768093D02*
X000000780377D01*
X000000806970D02*
X000000830139D01*
X000000862471D02*
X000000875448D01*
X000000887030D02*
X000000899314D01*
X000000922761D02*
X000000936646D01*
X000000955108D02*
X000000977662D01*
X000001049487D02*
X000001064494D01*
X000001107542D02*
X000001119826D01*
X000001189128D02*
X000001202213D01*
X000001219156D02*
X000001231440D01*
X000001281461D02*
X000001302026D01*
X000000727833Y-000000201873D02*
X000000748238D01*
X000000768093D02*
X000000780377D01*
X000000804380D02*
X000000826736D01*
X000000861490D02*
X000000876611D01*
X000000887030D02*
X000000899314D01*
X000000923298D02*
X000000936873D01*
X000000954186D02*
X000000978671D01*
X000001050928D02*
X000001065484D01*
X000001107542D02*
X000001119826D01*
X000001144383D02*
X000001147256D01*
X000001189673D02*
X000001202503D01*
X000001219156D02*
X000001231440D01*
X000001283722D02*
X000001303216D01*
X000000730711Y-000000200101D02*
X000000749798D01*
X000000768093D02*
X000000780377D01*
X000000801791D02*
X000000823334D01*
X000000862190D02*
X000000877774D01*
X000000887030D02*
X000000899314D01*
X000000923837D02*
X000000936873D01*
X000000953263D02*
X000000979681D01*
X000001051912D02*
X000001066474D01*
X000001107542D02*
X000001119826D01*
X000001141794D02*
X000001148585D01*
X000001190219D02*
X000001202503D01*
X000001219156D02*
X000001231440D01*
X000001285984D02*
X000001304406D01*
X000000733590Y-000000198329D02*
X000000750707D01*
X000000768093D02*
X000000780377D01*
X000000800133D02*
X000000819931D01*
X000000863729D02*
X000000878936D01*
X000000887030D02*
X000000899314D01*
X000000924374D02*
X000000936873D01*
X000000952385D02*
X000000980511D01*
X000001052896D02*
X000001067465D01*
X000001107542D02*
X000001119826D01*
X000001139204D02*
X000001149914D01*
X000001190219D02*
X000001202503D01*
X000001219156D02*
X000001231440D01*
X000001253485D02*
X000001256637D01*
X000001288246D02*
X000001305596D01*
X000000736469Y-000000196558D02*
X000000751615D01*
X000000768093D02*
X000000781212D01*
X000000798940D02*
X000000816529D01*
X000000865268D02*
X000000880098D01*
X000000887030D02*
X000000899314D01*
X000000924589D02*
X000000936873D01*
X000000951797D02*
X000000965414D01*
X000000967548D02*
X000000981137D01*
X000001053880D02*
X000001068455D01*
X000001107542D02*
X000001119826D01*
X000001136690D02*
X000001151243D01*
X000001190219D02*
X000001202503D01*
X000001219156D02*
X000001231440D01*
X000001252361D02*
X000001260239D01*
X000001290180D02*
X000001306787D01*
X000000738334Y-000000194786D02*
X000000752524D01*
X000000768093D02*
X000000782999D01*
X000000797748D02*
X000000813127D01*
X000000866807D02*
X000000881261D01*
X000000887030D02*
X000000899314D01*
X000000913600D02*
X000000914237D01*
X000000924589D02*
X000000936873D01*
X000000951210D02*
X000000964357D01*
X000000968777D02*
X000000981764D01*
X000001054865D02*
X000001069446D01*
X000001107542D02*
X000001119826D01*
X000001134383D02*
X000001152571D01*
X000001190219D02*
X000001202503D01*
X000001219156D02*
X000001231440D01*
X000001251236D02*
X000001263841D01*
X000001291215D02*
X000001309055D01*
X000000739524Y-000000193015D02*
X000000753432D01*
X000000796555D02*
X000000810621D01*
X000000868346D02*
X000000882424D01*
X000000887030D02*
X000000899314D01*
X000000911212D02*
X000000915038D01*
X000000924589D02*
X000000936873D01*
X000000950623D02*
X000000963301D01*
X000000970006D02*
X000000982390D01*
X000001055849D02*
X000001070437D01*
X000001107542D02*
X000001119826D01*
X000001132076D02*
X000001153900D01*
X000001190219D02*
X000001202503D01*
X000001219156D02*
X000001231440D01*
X000001250111D02*
X000001267444D01*
X000001292249D02*
X000001312109D01*
X000000740713Y-000000191243D02*
X000000754341D01*
X000000795363D02*
X000000809462D01*
X000000869885D02*
X000000883183D01*
X000000887030D02*
X000000899314D01*
X000000908985D02*
X000000915839D01*
X000000924589D02*
X000000936873D01*
X000000950035D02*
X000000962304D01*
X000000970818D02*
X000000983016D01*
X000001026074D02*
X000001026603D01*
X000001056833D02*
X000001071427D01*
X000001107542D02*
X000001119826D01*
X000001129768D02*
X000001155229D01*
X000001190219D02*
X000001202503D01*
X000001219156D02*
X000001231440D01*
X000001248987D02*
X000001270075D01*
X000001293284D02*
X000001309774D01*
X000000741902Y-000000189471D02*
X000000755250D01*
X000000794170D02*
X000000808302D01*
X000000871378D02*
X000000883942D01*
X000000887030D02*
X000000899314D01*
X000000906839D02*
X000000916640D01*
X000000924589D02*
X000000936873D01*
X000000949448D02*
X000000961700D01*
X000000971422D02*
X000000983643D01*
X000001023625D02*
X000001028129D01*
X000001057818D02*
X000001072418D01*
X000001107542D02*
X000001119826D01*
X000001127461D02*
X000001153078D01*
X000001190219D02*
X000001202503D01*
X000001219156D02*
X000001231440D01*
X000001247862D02*
X000001272221D01*
X000001294319D02*
X000001307554D01*
X000000743091Y-000000187699D02*
X000000756158D01*
X000000792978D02*
X000000807142D01*
X000000872221D02*
X000000884702D01*
X000000887030D02*
X000000899314D01*
X000000904692D02*
X000000917440D01*
X000000924589D02*
X000000936873D01*
X000000948861D02*
X000000961097D01*
X000000972025D02*
X000000984269D01*
X000001021176D02*
X000001029655D01*
X000001057624D02*
X000001073409D01*
X000001107542D02*
X000001119826D01*
X000001125154D02*
X000001150057D01*
X000001190219D02*
X000001202503D01*
X000001219156D02*
X000001231440D01*
X000001246737D02*
X000001274366D01*
X000001295353D02*
X000001305334D01*
X000000705967Y-000000185928D02*
X000000842503D01*
X000000873065D02*
X000000885461D01*
X000000887030D02*
X000000899314D01*
X000000902596D02*
X000000918241D01*
X000000924589D02*
X000000936873D01*
X000000948273D02*
X000000960494D01*
X000000972628D02*
X000000984896D01*
X000001018726D02*
X000001030848D01*
X000001055664D02*
X000001074399D01*
X000001107542D02*
X000001119826D01*
X000001123077D02*
X000001147037D01*
X000001190219D02*
X000001202503D01*
X000001219156D02*
X000001231440D01*
X000001245613D02*
X000001276512D01*
X000001296388D02*
X000001303114D01*
X000000705967Y-000000184156D02*
X000000842503D01*
X000000873907D02*
X000000886220D01*
X000000887030D02*
X000000899314D01*
X000000900703D02*
X000000919041D01*
X000000924589D02*
X000000936873D01*
X000000947686D02*
X000000959891D01*
X000000973231D02*
X000000985522D01*
X000001016278D02*
X000001031919D01*
X000001053704D02*
X000001075389D01*
X000001107542D02*
X000001119826D01*
X000001121201D02*
X000001144015D01*
X000001190219D02*
X000001202503D01*
X000001219156D02*
X000001231440D01*
X000001249647D02*
X000001278658D01*
X000001297423D02*
X000001300894D01*
X000000705967Y-000000182385D02*
X000000842503D01*
X000000874751D02*
X000000886979D01*
X000000887030D02*
X000000919105D01*
X000000924589D02*
X000000936873D01*
X000000947098D02*
X000000959287D01*
X000000973835D02*
X000000986148D01*
X000001016160D02*
X000001032991D01*
X000001051660D02*
X000001076380D01*
X000001107542D02*
X000001140994D01*
X000001190219D02*
X000001202503D01*
X000001219156D02*
X000001231440D01*
X000001253681D02*
X000001280803D01*
X000001298457D02*
X000001298674D01*
X000000705967Y-000000180613D02*
X000000842503D01*
X000000875594D02*
X000000917144D01*
X000000924589D02*
X000000936873D01*
X000000946511D02*
X000000958683D01*
X000000974438D02*
X000000986775D01*
X000001017598D02*
X000001034063D01*
X000001049386D02*
X000001077370D01*
X000001107542D02*
X000001138378D01*
X000001190219D02*
X000001202503D01*
X000001219156D02*
X000001231440D01*
X000001257715D02*
X000001282950D01*
X000000705967Y-000000178841D02*
X000000842503D01*
X000000876437D02*
X000000914952D01*
X000000924589D02*
X000000936873D01*
X000000945924D02*
X000000958080D01*
X000000975042D02*
X000000987401D01*
X000001019035D02*
X000001035134D01*
X000001047112D02*
X000001078361D01*
X000001107542D02*
X000001136031D01*
X000001190219D02*
X000001202503D01*
X000001219156D02*
X000001231440D01*
X000001261748D02*
X000001285095D01*
X000000741637Y-000000177070D02*
X000000753920D01*
X000000795140D02*
X000000807424D01*
X000000877281D02*
X000000912412D01*
X000000924589D02*
X000000936873D01*
X000000945336D02*
X000000957477D01*
X000000975645D02*
X000000988028D01*
X000001020472D02*
X000001036104D01*
X000001044838D02*
X000001079352D01*
X000001107542D02*
X000001133685D01*
X000001190219D02*
X000001202503D01*
X000001219156D02*
X000001231440D01*
X000001264554D02*
X000001287241D01*
X000000741637Y-000000175298D02*
X000000753920D01*
X000000795140D02*
X000000807424D01*
X000000878124D02*
X000000909873D01*
X000000924589D02*
X000000936873D01*
X000000944974D02*
X000000956873D01*
X000000976088D02*
X000000988575D01*
X000001021910D02*
X000001036869D01*
X000001042564D02*
X000001062274D01*
X000001063567D02*
X000001079750D01*
X000001107542D02*
X000001131338D01*
X000001190219D02*
X000001202503D01*
X000001219156D02*
X000001231440D01*
X000001266746D02*
X000001289387D01*
X000000741637Y-000000173526D02*
X000000753920D01*
X000000795140D02*
X000000807424D01*
X000000878967D02*
X000000907333D01*
X000000924589D02*
X000000936873D01*
X000000944723D02*
X000000956568D01*
X000000976347D02*
X000000988908D01*
X000001023347D02*
X000001037634D01*
X000001039814D02*
X000001060180D01*
X000001064247D02*
X000001080000D01*
X000001107542D02*
X000001128992D01*
X000001190219D02*
X000001202503D01*
X000001219156D02*
X000001231440D01*
X000001268938D02*
X000001291533D01*
X000000741637Y-000000171755D02*
X000000753920D01*
X000000795140D02*
X000000807424D01*
X000000879811D02*
X000000904591D01*
X000000924589D02*
X000000936873D01*
X000000944473D02*
X000000956284D01*
X000000976605D02*
X000000989240D01*
X000001024784D02*
X000001058086D01*
X000001064926D02*
X000001080251D01*
X000001107542D02*
X000001126645D01*
X000001172385D02*
X000001249274D01*
X000001271130D02*
X000001292859D01*
X000000741637Y-000000169983D02*
X000000753920D01*
X000000795140D02*
X000000807424D01*
X000000880653D02*
X000000901546D01*
X000000924589D02*
X000000936873D01*
X000000944222D02*
X000000955999D01*
X000000976864D02*
X000000989572D01*
X000001025826D02*
X000001055859D01*
X000001065605D02*
X000001080501D01*
X000001107066D02*
X000001124298D01*
X000001172385D02*
X000001249274D01*
X000001273322D02*
X000001294128D01*
X000000741637Y-000000168211D02*
X000000753920D01*
X000000795140D02*
X000000807424D01*
X000000881497D02*
X000000899314D01*
X000000924589D02*
X000000936873D01*
X000000943972D02*
X000000955715D01*
X000000977123D02*
X000000989904D01*
X000001026519D02*
X000001053515D01*
X000001066197D02*
X000001080752D01*
X000001105637D02*
X000001121952D01*
X000001172385D02*
X000001249274D01*
X000001275514D02*
X000001295395D01*
X000000741637Y-000000166440D02*
X000000807424D01*
X000000882340D02*
X000000899314D01*
X000000924589D02*
X000000936873D01*
X000000943722D02*
X000000955430D01*
X000000977382D02*
X000000990236D01*
X000001027213D02*
X000001051171D01*
X000001066691D02*
X000001081002D01*
X000001104208D02*
X000001121089D01*
X000001172385D02*
X000001249274D01*
X000001277705D02*
X000001296663D01*
X000000741637Y-000000164668D02*
X000000807424D01*
X000000883184D02*
X000000899314D01*
X000000924589D02*
X000000990569D01*
X000001027907D02*
X000001048827D01*
X000001067185D02*
X000001081252D01*
X000001102779D02*
X000001120228D01*
X000001172385D02*
X000001249274D01*
X000001279897D02*
X000001297931D01*
X000000741637Y-000000162896D02*
X000000807424D01*
X000000884027D02*
X000000899314D01*
X000000924589D02*
X000000990901D01*
X000001028601D02*
X000001046394D01*
X000001067679D02*
X000001081502D01*
X000001101396D02*
X000001119826D01*
X000001172385D02*
X000001249274D01*
X000001282089D02*
X000001299199D01*
X000000741637Y-000000161125D02*
X000000807424D01*
X000000884457D02*
X000000899314D01*
X000000924589D02*
X000000993198D01*
X000001029294D02*
X000001043611D01*
X000001068173D02*
X000001081753D01*
X000001100197D02*
X000001119826D01*
X000001172385D02*
X000001249274D01*
X000001284281D02*
X000001301290D01*
X000000741637Y-000000159353D02*
X000000807424D01*
X000000884784D02*
X000000899314D01*
X000000924589D02*
X000000993985D01*
X000001029988D02*
X000001043559D01*
X000001068666D02*
X000001082003D01*
X000001098998D02*
X000001119826D01*
X000001190219D02*
X000001202503D01*
X000001219156D02*
X000001231440D01*
X000001253771D02*
X000001255515D01*
X000001286117D02*
X000001304125D01*
X000000741637Y-000000157581D02*
X000000753920D01*
X000000795140D02*
X000000807424D01*
X000000885111D02*
X000000899314D01*
X000000924589D02*
X000000991856D01*
X000001030682D02*
X000001044191D01*
X000001069160D02*
X000001082253D01*
X000001097799D02*
X000001119826D01*
X000001190219D02*
X000001202503D01*
X000001219156D02*
X000001231440D01*
X000001252613D02*
X000001258713D01*
X000001286973D02*
X000001301741D01*
X000000741637Y-000000155810D02*
X000000753920D01*
X000000795140D02*
X000000807424D01*
X000000885439D02*
X000000899314D01*
X000000924589D02*
X000000989353D01*
X000001031376D02*
X000001044822D01*
X000001069654D02*
X000001082504D01*
X000001096600D02*
X000001119826D01*
X000001190219D02*
X000001202503D01*
X000001219156D02*
X000001231440D01*
X000001251455D02*
X000001261912D01*
X000001287830D02*
X000001299521D01*
X000000741637Y-000000154038D02*
X000000753920D01*
X000000795140D02*
X000000807424D01*
X000000885765D02*
X000000899314D01*
X000000924589D02*
X000000986850D01*
X000001032070D02*
X000001045454D01*
X000001070086D02*
X000001082754D01*
X000001095400D02*
X000001119826D01*
X000001190219D02*
X000001202503D01*
X000001219156D02*
X000001231440D01*
X000001250296D02*
X000001265111D01*
X000001288687D02*
X000001297301D01*
X000000741637Y-000000152266D02*
X000000753920D01*
X000000795140D02*
X000000807424D01*
X000000886092D02*
X000000899314D01*
X000000924589D02*
X000000936873D01*
X000000980928D02*
X000000984348D01*
X000001032763D02*
X000001046086D01*
X000001070395D02*
X000001083004D01*
X000001094201D02*
X000001119826D01*
X000001190219D02*
X000001202503D01*
X000001219156D02*
X000001231440D01*
X000001249138D02*
X000001268309D01*
X000001289543D02*
X000001295081D01*
X000000741637Y-000000150495D02*
X000000753920D01*
X000000795140D02*
X000000807424D01*
X000000886420D02*
X000000899314D01*
X000000924589D02*
X000000936873D01*
X000001033457D02*
X000001046717D01*
X000001070705D02*
X000001083255D01*
X000001093002D02*
X000001119826D01*
X000001190219D02*
X000001202503D01*
X000001219156D02*
X000001231440D01*
X000001247980D02*
X000001270839D01*
X000001290400D02*
X000001292861D01*
X000000741637Y-000000148723D02*
X000000807424D01*
X000000886746D02*
X000000899314D01*
X000000924589D02*
X000000936873D01*
X000001034151D02*
X000001047349D01*
X000001071014D02*
X000001083505D01*
X000001091802D02*
X000001106811D01*
X000001107542D02*
X000001119826D01*
X000001190219D02*
X000001202503D01*
X000001219156D02*
X000001231440D01*
X000001246821D02*
X000001272922D01*
X000000741637Y-000000146952D02*
X000000807424D01*
X000000864944D02*
X000000919629D01*
X000000924589D02*
X000000936873D01*
X000001034845D02*
X000001083755D01*
X000001090701D02*
X000001105439D01*
X000001107542D02*
X000001119826D01*
X000001190219D02*
X000001202503D01*
X000001219156D02*
X000001231440D01*
X000001247770D02*
X000001275005D01*
X000000741637Y-000000145180D02*
X000000807424D01*
X000000864944D02*
X000000919629D01*
X000000924589D02*
X000000936873D01*
X000001035539D02*
X000001084006D01*
X000001089685D02*
X000001104186D01*
X000001107542D02*
X000001119826D01*
X000001190219D02*
X000001202503D01*
X000001219156D02*
X000001231440D01*
X000001251129D02*
X000001277087D01*
X000000741637Y-000000143408D02*
X000000807424D01*
X000000864944D02*
X000000919629D01*
X000000924589D02*
X000000936873D01*
X000001036232D02*
X000001085308D01*
X000001088668D02*
X000001103070D01*
X000001107542D02*
X000001119826D01*
X000001190219D02*
X000001202503D01*
X000001219156D02*
X000001231440D01*
X000001254487D02*
X000001279170D01*
X000000741637Y-000000141637D02*
X000000807424D01*
X000000864944D02*
X000000919629D01*
X000000924589D02*
X000000936873D01*
X000001036926D02*
X000001086203D01*
X000001087653D02*
X000001101953D01*
X000001107542D02*
X000001119826D01*
X000001190219D02*
X000001202503D01*
X000001219156D02*
X000001231440D01*
X000001257845D02*
X000001281253D01*
X000000741637Y-000000139865D02*
X000000753920D01*
X000000795140D02*
X000000807424D01*
X000000864944D02*
X000000919629D01*
X000000924589D02*
X000000936873D01*
X000001037620D02*
X000001084771D01*
X000001086636D02*
X000001100837D01*
X000001107542D02*
X000001119826D01*
X000001190219D02*
X000001202503D01*
X000001219156D02*
X000001231440D01*
X000001261203D02*
X000001283336D01*
X000000741637Y-000000138093D02*
X000000753920D01*
X000000795140D02*
X000000807424D01*
X000000864944D02*
X000000919629D01*
X000000924589D02*
X000000936873D01*
X000001038314D02*
X000001082718D01*
X000001088999D02*
X000001099721D01*
X000001107542D02*
X000001119826D01*
X000001190219D02*
X000001202503D01*
X000001219156D02*
X000001231440D01*
X000001263266D02*
X000001285419D01*
X000000741637Y-000000136322D02*
X000000753920D01*
X000000795140D02*
X000000807424D01*
X000000864944D02*
X000000919629D01*
X000000924589D02*
X000000936873D01*
X000001038803D02*
X000001080665D01*
X000001091361D02*
X000001098692D01*
X000001107542D02*
X000001119826D01*
X000001190219D02*
X000001202503D01*
X000001219156D02*
X000001231440D01*
X000001265329D02*
X000001287502D01*
X000000741637Y-000000134550D02*
X000000753920D01*
X000000795140D02*
X000000807424D01*
X000000887030D02*
X000000899314D01*
X000000924589D02*
X000000936873D01*
X000001039059D02*
X000001051168D01*
X000001075298D02*
X000001078613D01*
X000001093723D02*
X000001097722D01*
X000001107542D02*
X000001119826D01*
X000001190219D02*
X000001202503D01*
X000001219156D02*
X000001231440D01*
X000001267392D02*
X000001289585D01*
X000000741637Y-000000132778D02*
X000000753920D01*
X000000795140D02*
X000000807424D01*
X000000887030D02*
X000000899314D01*
X000000924589D02*
X000000936873D01*
X000001039315D02*
X000001051543D01*
X000001096085D02*
X000001096752D01*
X000001107542D02*
X000001119826D01*
X000001190219D02*
X000001202503D01*
X000001219156D02*
X000001231440D01*
X000001269455D02*
X000001290909D01*
X000000741637Y-000000131007D02*
X000000753920D01*
X000000795140D02*
X000000807424D01*
X000000887030D02*
X000000899314D01*
X000000924589D02*
X000000936873D01*
X000001039571D02*
X000001051919D01*
X000001107542D02*
X000001119826D01*
X000001190219D02*
X000001202503D01*
X000001219156D02*
X000001231440D01*
X000001271518D02*
X000001291959D01*
X000000715180Y-000000129235D02*
X000000832581D01*
X000000887030D02*
X000000899314D01*
X000000924589D02*
X000000936873D01*
X000001039827D02*
X000001052295D01*
X000001107542D02*
X000001119826D01*
X000001190219D02*
X000001202503D01*
X000001219156D02*
X000001231440D01*
X000001273581D02*
X000001293007D01*
X000000715180Y-000000127463D02*
X000000832581D01*
X000000887030D02*
X000000899314D01*
X000000924589D02*
X000000936873D01*
X000001040083D02*
X000001052671D01*
X000001107542D02*
X000001119826D01*
X000001190219D02*
X000001202503D01*
X000001219156D02*
X000001231440D01*
X000001275644D02*
X000001294057D01*
X000000715180Y-000000125692D02*
X000000832581D01*
X000000887030D02*
X000000899314D01*
X000000924589D02*
X000000997700D01*
X000001040338D02*
X000001053047D01*
X000001107542D02*
X000001119826D01*
X000001177936D02*
X000001243133D01*
X000001277706D02*
X000001295106D01*
X000000715180Y-000000123920D02*
X000000832581D01*
X000000887030D02*
X000000899314D01*
X000000924589D02*
X000000997700D01*
X000001040594D02*
X000001053422D01*
X000001107542D02*
X000001119826D01*
X000001177936D02*
X000001243133D01*
X000001279770D02*
X000001298516D01*
X000000715180Y-000000122148D02*
X000000832581D01*
X000000887030D02*
X000000899314D01*
X000000924589D02*
X000000997700D01*
X000001040850D02*
X000001055803D01*
X000001107542D02*
X000001119826D01*
X000001177936D02*
X000001243133D01*
X000001281537D02*
X000001297896D01*
X000000741637Y-000000120377D02*
X000000753920D01*
X000000795140D02*
X000000807424D01*
X000000887030D02*
X000000899314D01*
X000000924589D02*
X000000997700D01*
X000001041106D02*
X000001055605D01*
X000001107542D02*
X000001119826D01*
X000001177936D02*
X000001243133D01*
X000001282490D02*
X000001295534D01*
X000000741637Y-000000118605D02*
X000000753920D01*
X000000795140D02*
X000000807424D01*
X000000887030D02*
X000000899314D01*
X000000924589D02*
X000000997700D01*
X000001041362D02*
X000001051306D01*
X000001107542D02*
X000001119826D01*
X000001177936D02*
X000001243133D01*
X000001283444D02*
X000001293172D01*
X000000741637Y-000000116833D02*
X000000753920D01*
X000000795140D02*
X000000807424D01*
X000000887030D02*
X000000899314D01*
X000000924589D02*
X000000997700D01*
X000001041618D02*
X000001045077D01*
X000001107542D02*
X000001119826D01*
X000001177936D02*
X000001243133D01*
X000001284399D02*
X000001290809D01*
X000000741637Y-000000115062D02*
X000000753920D01*
X000000795140D02*
X000000807424D01*
X000000887030D02*
X000000899314D01*
X000000924589D02*
X000000997700D01*
X000001107542D02*
X000001119826D01*
X000001285352D02*
X000001288447D01*
X000000741637Y-000000113290D02*
X000000753920D01*
X000000795140D02*
X000000807424D01*
X000000887030D02*
X000000899314D01*
X000001107542D02*
X000001119826D01*
X000000741637Y-000000111518D02*
X000000753920D01*
X000000795140D02*
X000000807424D01*
X000000887030D02*
X000000899314D01*
X000001107542D02*
X000001119826D01*
X000000741637Y-000000109747D02*
X000000753920D01*
X000000795140D02*
X000000807424D01*
X000000887030D02*
X000000899314D01*
X000001107542D02*
X000001121461D01*
X000000741637Y-000000107975D02*
X000000753920D01*
X000000795140D02*
X000000807424D01*
X000000887030D02*
X000000899314D01*
X000001107542D02*
X000001121762D01*
X000000741637Y-000000106203D02*
X000000755800D01*
X000000795140D02*
X000000809304D01*
X000000887030D02*
X000000900785D01*
X000000741637Y-000000104432D02*
X000000756474D01*
X000000795140D02*
X000000809978D01*
X000000887030D02*
X000000901278D01*
X000000753920Y-000000177306D02*
X000000795140D01*
X000000705967D02*
X000000741637D01*
X000000792660Y-000000187227D02*
X000000756400D01*
M02*
